<?xml version="1.0" encoding="UTF-8" standalone="no"?>
<!DOCTYPE svg PUBLIC "-//W3C//DTD SVG 1.1//EN"
 "http://www.w3.org/Graphics/SVG/1.1/DTD/svg11.dtd">
<!-- Generated by graphviz version 2.38.0 (20140413.2041)
 -->
<!-- Title: G Pages: 1 -->
<svg width="2323pt" height="865pt"
 viewBox="0.00 0.00 2323.00 865.00" xmlns="http://www.w3.org/2000/svg" xmlns:xlink="http://www.w3.org/1999/xlink">
<g id="graph0" class="graph" transform="scale(1 1) rotate(0) translate(4 861)">
<title>G</title>
<polygon fill="#f7f7f7" stroke="none" points="-4,4 -4,-861 2319,-861 2319,4 -4,4"/>
<g id="clust1" class="cluster"><title>cluster_1</title>
<polygon fill="#f7f7f7" stroke="black" points="8,-8 8,-849 2307,-849 2307,-8 8,-8"/>
</g>
<g id="clust2" class="cluster"><title>cluster_2</title>
<polygon fill="#f7f7f7" stroke="#00cd00" points="965,-16 965,-810 2299,-810 2299,-16 965,-16"/>
<text text-anchor="middle" x="1632" y="-794.8" font-family="Times,serif" font-size="14.00">Feature Model</text>
</g>
<g id="clust3" class="cluster"><title>cluster_3</title>
<polygon fill="#f7f7f7" stroke="red" points="16,-666 16,-841 957,-841 957,-666 16,-666"/>
<text text-anchor="middle" x="486.5" y="-825.8" font-family="Times,serif" font-size="14.00">Legend:</text>
</g>
<g id="clust4" class="cluster"><title>cluster_4</title>
<polygon fill="#f7f7f7" stroke="blue" points="609,-674 609,-810 949,-810 949,-674 609,-674"/>
<text text-anchor="middle" x="779" y="-794.8" font-family="Times,serif" font-size="14.00">Features:</text>
</g>
<g id="clust5" class="cluster"><title>cluster_5</title>
<polygon fill="#f7f7f7" stroke="blue" points="438,-674 438,-810 601,-810 601,-674 438,-674"/>
<text text-anchor="middle" x="519.5" y="-794.8" font-family="Times,serif" font-size="14.00">Cross&#45;tree Constraints:</text>
</g>
<g id="clust6" class="cluster"><title>cluster_6</title>
<polygon fill="#f7f7f7" stroke="blue" points="24,-674 24,-810 430,-810 430,-674 24,-674"/>
<text text-anchor="middle" x="227" y="-794.8" font-family="Times,serif" font-size="14.00">Group of Features:</text>
</g>
<!-- Matrix -->
<g id="node1" class="node"><title>Matrix</title>
<polygon fill="#ffff00" stroke="red" points="1211,-779 1157,-779 1157,-756 1211,-756 1211,-779"/>
<text text-anchor="middle" x="1184" y="-763.8" font-family="Times,serif" font-size="14.00">Matrix</text>
</g>
<!-- Base -->
<g id="node2" class="node"><title>Base</title>
<polygon fill="#ffff00" stroke="red" points="1091,-705 1041,-705 1041,-682 1091,-682 1091,-705"/>
<text text-anchor="middle" x="1066" y="-689.8" font-family="Times,serif" font-size="14.00">Base</text>
</g>
<!-- Matrix&#45;&gt;Base -->
<g id="edge1" class="edge"><title>Matrix&#45;&gt;Base:n</title>
<path fill="none" stroke="black" d="M1156.93,-764.187C1124.54,-759.884 1073.78,-747.667 1066.81,-713.207"/>
<ellipse fill="black" stroke="black" cx="1066.39" cy="-708.981" rx="4" ry="4"/>
</g>
<!-- AND_1 -->
<g id="node5" class="node"><title>AND_1</title>
<polygon fill="#ffff00" stroke="red" points="1168.5,-639 1109.5,-639 1109.5,-616 1168.5,-616 1168.5,-639"/>
<text text-anchor="middle" x="1139" y="-623.8" font-family="Times,serif" font-size="14.00">AND_1</text>
</g>
<!-- Matrix&#45;&gt;AND_1 -->
<g id="edge4" class="edge"><title>Matrix&#45;&gt;AND_1:n</title>
<path fill="none" stroke="black" d="M1177.36,-755.7C1165.58,-735.534 1141.98,-690.271 1139.26,-647.042"/>
<ellipse fill="none" stroke="black" cx="1139.13" cy="-642.998" rx="4" ry="4"/>
</g>
<!-- XOR -->
<g id="node8" class="node"><title>XOR</title>
<polygon fill="#ffff00" stroke="red" points="1199,-565 1149,-565 1149,-542 1199,-542 1199,-565"/>
<text text-anchor="middle" x="1174" y="-549.8" font-family="Times,serif" font-size="14.00">XOR</text>
</g>
<!-- Matrix&#45;&gt;XOR -->
<g id="edge7" class="edge"><title>Matrix&#45;&gt;XOR:n</title>
<path fill="none" stroke="black" d="M1183.55,-755.915C1182.5,-731.338 1179.77,-668.502 1177,-616 1175.96,-596.337 1174.47,-589.499 1174.09,-573.223"/>
<ellipse fill="black" stroke="black" cx="1174.04" cy="-569" rx="4" ry="4"/>
</g>
<!-- OR -->
<g id="node13" class="node"><title>OR</title>
<polygon fill="#ffff00" stroke="red" points="1641,-705 1591,-705 1591,-682 1641,-682 1641,-705"/>
<text text-anchor="middle" x="1616" y="-689.8" font-family="Times,serif" font-size="14.00">OR</text>
</g>
<!-- Matrix&#45;&gt;OR -->
<g id="edge12" class="edge"><title>Matrix&#45;&gt;OR:n</title>
<path fill="none" stroke="black" d="M1211.02,-765.514C1299.69,-761.949 1578.04,-748.003 1612.49,-712.411"/>
<ellipse fill="none" stroke="black" cx="1614.29" cy="-708.615" rx="4.00002" ry="4.00002"/>
</g>
<!-- A -->
<g id="node3" class="node"><title>A</title>
<polygon fill="#ffff00" stroke="blue" points="1091,-639 1041,-639 1041,-616 1091,-616 1091,-639"/>
<text text-anchor="middle" x="1066" y="-623.8" font-family="Times,serif" font-size="14.00">A</text>
</g>
<!-- Base&#45;&gt;A -->
<g id="edge2" class="edge"><title>Base&#45;&gt;A:n</title>
<path fill="none" stroke="black" d="M1066,-681.842C1066,-673.491 1066,-661.319 1066,-649.357"/>
<polygon fill="black" stroke="black" points="1062,-639 1070,-639 1070,-647 1062,-647 1062,-639"/>
<polyline fill="none" stroke="black" points="1066,-647 1066,-649 "/>
</g>
<!-- B -->
<g id="node4" class="node"><title>B</title>
<polygon fill="#ffff00" stroke="blue" points="1023,-639 973,-639 973,-616 1023,-616 1023,-639"/>
<text text-anchor="middle" x="998" y="-623.8" font-family="Times,serif" font-size="14.00">B</text>
</g>
<!-- Base&#45;&gt;B -->
<g id="edge3" class="edge"><title>Base&#45;&gt;B:n</title>
<path fill="none" stroke="black" d="M1040.68,-684.168C1024.37,-677.299 1005.2,-665.907 999.606,-648.98"/>
<polygon fill="black" stroke="black" points="994.051,-639.635 1001.95,-638.365 1003.22,-646.263 995.322,-647.534 994.051,-639.635"/>
<polyline fill="none" stroke="black" points="999.271,-646.898 999.588,-648.873 "/>
</g>
<!-- K -->
<g id="node6" class="node"><title>K</title>
<polygon fill="#ffff00" stroke="blue" points="1023,-565 973,-565 973,-542 1023,-542 1023,-565"/>
<text text-anchor="middle" x="998" y="-549.8" font-family="Times,serif" font-size="14.00">K</text>
</g>
<!-- AND_1&#45;&gt;K -->
<g id="edge5" class="edge"><title>AND_1&#45;&gt;K:n</title>
<path fill="none" stroke="black" d="M1109.44,-616.752C1075.69,-605.265 1022.77,-586.073 1004.48,-572.855"/>
<polygon fill="black" stroke="black" points="994.914,-567.545 1001.09,-562.455 1006.18,-568.628 1000,-573.717 994.914,-567.545"/>
<polyline fill="none" stroke="black" points="1003.09,-571.173 1004.36,-572.716 "/>
</g>
<!-- X -->
<g id="node7" class="node"><title>X</title>
<polygon fill="#ffff00" stroke="blue" points="1131,-565 1081,-565 1081,-542 1131,-542 1131,-565"/>
<text text-anchor="middle" x="1106" y="-549.8" font-family="Times,serif" font-size="14.00">X</text>
</g>
<!-- AND_1&#45;&gt;X -->
<g id="edge6" class="edge"><title>AND_1&#45;&gt;X:n</title>
<path fill="none" stroke="black" d="M1128.92,-615.654C1120.88,-606.039 1110.44,-591.073 1107.09,-575.064"/>
<polygon fill="black" stroke="black" points="1102.02,-565.429 1109.98,-564.571 1110.84,-572.525 1102.88,-573.383 1102.02,-565.429"/>
<polyline fill="none" stroke="black" points="1106.86,-572.954 1107.07,-574.942 "/>
</g>
<!-- G -->
<g id="node9" class="node"><title>G</title>
<polygon fill="#ffff00" stroke="blue" points="1546,-491 1496,-491 1496,-468 1546,-468 1546,-491"/>
<text text-anchor="middle" x="1521" y="-475.8" font-family="Times,serif" font-size="14.00">G</text>
</g>
<!-- X&#45;&gt;G -->
<g id="edge46" class="edge"><title>X&#45;&gt;G:n</title>
<path fill="none" stroke="blue" stroke-dasharray="5,2" d="M1129.58,-536.081C1146.55,-524.418 1167.25,-510.558 1172,-509 1188.65,-503.537 1459.42,-509.085 1512.14,-495.956"/>
<polygon fill="blue" stroke="blue" points="1127.39,-533.34 1121.15,-541.903 1131.37,-539.1 1127.39,-533.34"/>
<polygon fill="blue" stroke="blue" points="1513.98,-498.937 1521,-491 1510.56,-492.828 1513.98,-498.937"/>
<text text-anchor="middle" x="1199" y="-512.8" font-family="Times,serif" font-size="14.00"> Excludes</text>
</g>
<!-- O -->
<g id="node10" class="node"><title>O</title>
<polygon fill="#ffff00" stroke="blue" points="1734,-343 1684,-343 1684,-320 1734,-320 1734,-343"/>
<text text-anchor="middle" x="1709" y="-327.8" font-family="Times,serif" font-size="14.00">O</text>
</g>
<!-- X&#45;&gt;O -->
<g id="edge63" class="edge"><title>X&#45;&gt;O:n</title>
<path fill="none" stroke="blue" stroke-dasharray="5,2" d="M1120,-533.594C1127.22,-525.012 1136.67,-515.377 1147,-509 1224.78,-460.995 1259.03,-483.674 1344,-450 1357.86,-444.508 1359.85,-439.702 1374,-435 1416.85,-420.757 1430.24,-428.169 1474,-417 1529.83,-402.748 1549.73,-408.959 1597,-376 1604,-371.117 1601.66,-365.368 1609,-361 1625.22,-351.343 1684.2,-361.031 1703.12,-351.281"/>
<polygon fill="blue" stroke="blue" points="1117.06,-531.661 1113.57,-541.665 1122.54,-536.02 1117.06,-531.661"/>
<polygon fill="blue" stroke="blue" points="1706.06,-353.179 1709,-343 1700.36,-349.126 1706.06,-353.179"/>
<text text-anchor="middle" x="1401" y="-438.8" font-family="Times,serif" font-size="14.00"> Excludes</text>
</g>
<!-- J -->
<g id="node11" class="node"><title>J</title>
<polygon fill="#ffff00" stroke="blue" points="1769,-47 1719,-47 1719,-24 1769,-24 1769,-47"/>
<text text-anchor="middle" x="1744" y="-31.8" font-family="Times,serif" font-size="14.00">J</text>
</g>
<!-- X&#45;&gt;J -->
<g id="edge77" class="edge"><title>X&#45;&gt;J:n</title>
<path fill="none" stroke="blue" stroke-dasharray="5,2" d="M1070.84,-544.006C1058.15,-539.625 1044.41,-533.207 1034,-524 996.624,-490.941 1005.3,-466.616 1000,-417 997.353,-392.236 987.271,-381.083 1002,-361 1015.23,-342.963 1036.32,-361.43 1049,-343 1054.79,-334.578 1049.28,-330.218 1049,-320 1048.78,-311.991 1048.22,-310.009 1048,-302 1047.82,-295.336 1047.65,-293.658 1048,-287 1048.67,-274.281 1051,-271.237 1051,-258.5 1051,-258.5 1051,-258.5 1051,-108.5 1051,-72.2478 1085.32,-75.5631 1120,-65 1135.36,-60.3223 1657.09,-63.7405 1734.45,-50.5146"/>
<polygon fill="blue" stroke="blue" points="1070.11,-547.446 1080.7,-547.096 1072.2,-540.766 1070.11,-547.446"/>
<polygon fill="blue" stroke="blue" points="1735.82,-53.739 1744,-47 1733.41,-47.17 1735.82,-53.739"/>
<text text-anchor="middle" x="1075" y="-290.8" font-family="Times,serif" font-size="14.00"> Excludes</text>
</g>
<!-- XOR&#45;&gt;G -->
<g id="edge8" class="edge"><title>XOR&#45;&gt;G:n</title>
<path fill="none" stroke="black" d="M1192.05,-541.968C1210.84,-531.583 1241.45,-516.246 1270,-509 1292.81,-503.211 1455.08,-514.226 1505.85,-501.178"/>
<polygon fill="black" stroke="black" points="1522.95,-493.905 1512.7,-496.578 1519.05,-488.095 1522.95,-493.905"/>
<ellipse fill="none" stroke="black" cx="1509.38" cy="-498.809" rx="4.00001" ry="4.00001"/>
</g>
<!-- XOR&#45;&gt;O -->
<g id="edge9" class="edge"><title>XOR&#45;&gt;O:n</title>
<path fill="none" stroke="black" d="M1154.44,-541.914C1147.98,-537.331 1141.54,-531.319 1138,-524 1135.1,-517.999 1135.26,-515.076 1138,-509 1158.48,-463.658 1180.15,-461.902 1222,-435 1276.06,-400.255 1300.49,-411.578 1354,-376 1362.12,-370.603 1361.03,-364.824 1370,-361 1384.94,-354.628 1625.64,-359.871 1692.11,-349.396"/>
<polygon fill="black" stroke="black" points="1710.24,-346.273 1699.65,-346.542 1707.76,-339.727 1710.24,-346.273"/>
<ellipse fill="none" stroke="black" cx="1695.91" cy="-347.959" rx="4.00001" ry="4.00001"/>
</g>
<!-- XOR&#45;&gt;J -->
<g id="edge10" class="edge"><title>XOR&#45;&gt;J:n</title>
<path fill="none" stroke="black" d="M1148.76,-544.654C1145.81,-543.752 1142.84,-542.851 1140,-542 1112.51,-533.766 1099.68,-542.793 1078,-524 1023.44,-476.709 1026.23,-446.579 1011,-376 1009.59,-369.483 1007.05,-366.367 1011,-361 1027.01,-339.27 1046.39,-357.746 1069,-343 1080.35,-335.599 1079.9,-330.037 1089,-320 1096.39,-311.846 1101.36,-311.976 1106,-302 1114.21,-284.357 1111,-277.961 1111,-258.5 1111,-258.5 1111,-258.5 1111,-108.5 1111,-82.2354 1127.11,-75.9207 1151,-65 1177.93,-52.6874 1635.13,-74.5743 1727.73,-55.2444"/>
<polygon fill="black" stroke="black" points="1745.58,-50.1222 1735.08,-51.5191 1742.42,-43.8778 1745.58,-50.1222"/>
<ellipse fill="none" stroke="black" cx="1731.51" cy="-53.3267" rx="4.00001" ry="4.00001"/>
</g>
<!-- V -->
<g id="node12" class="node"><title>V</title>
<polygon fill="#ffff00" stroke="blue" points="1632,-195 1582,-195 1582,-172 1632,-172 1632,-195"/>
<text text-anchor="middle" x="1607" y="-179.8" font-family="Times,serif" font-size="14.00">V</text>
</g>
<!-- XOR&#45;&gt;V -->
<g id="edge11" class="edge"><title>XOR&#45;&gt;V:n</title>
<path fill="none" stroke="black" d="M1148.91,-544.419C1125.56,-536.799 1094.04,-526.221 1092,-524 1051.7,-480.078 1097.53,-439.483 1059,-394 1046.14,-378.815 1028.88,-392.662 1018,-376 1014.35,-370.418 1013.56,-365.977 1018,-361 1041.22,-334.948 1143.36,-359.7 1174,-343 1202.28,-327.586 1197.55,-310.099 1220,-287 1254.91,-251.078 1258.63,-231.947 1305,-213 1331.74,-202.072 1535.56,-221.459 1592.35,-205.793"/>
<polygon fill="black" stroke="black" points="1609.08,-197.818 1598.95,-200.931 1604.92,-192.182 1609.08,-197.818"/>
<ellipse fill="none" stroke="black" cx="1595.73" cy="-203.304" rx="4.00001" ry="4.00001"/>
</g>
<!-- D -->
<g id="node14" class="node"><title>D</title>
<polygon fill="#ffff00" stroke="blue" points="1393,-417 1343,-417 1343,-394 1393,-394 1393,-417"/>
<text text-anchor="middle" x="1368" y="-401.8" font-family="Times,serif" font-size="14.00">D</text>
</g>
<!-- G&#45;&gt;D -->
<g id="edge31" class="edge"><title>G&#45;&gt;D:n</title>
<path fill="none" stroke="red" d="M1495.91,-472.694C1487.98,-471.002 1479.15,-469.269 1471,-468 1432.15,-461.952 1321.35,-479.18 1295,-450 1290.53,-445.052 1290.89,-440.248 1295,-435 1312.87,-412.188 1354.64,-440.534 1365.42,-426.674"/>
<polygon fill="red" stroke="red" points="1368.81,-427.564 1368,-417 1362.05,-425.763 1368.81,-427.564"/>
<text text-anchor="middle" x="1319.5" y="-438.8" font-family="Times,serif" font-size="14.00">Requires</text>
</g>
<!-- Y -->
<g id="node16" class="node"><title>Y</title>
<polygon fill="#ffff00" stroke="blue" points="2106,-417 2056,-417 2056,-394 2106,-394 2106,-417"/>
<text text-anchor="middle" x="2081" y="-401.8" font-family="Times,serif" font-size="14.00">Y</text>
</g>
<!-- G&#45;&gt;Y -->
<g id="edge32" class="edge"><title>G&#45;&gt;Y:n</title>
<path fill="none" stroke="red" d="M1546.2,-478.297C1600.62,-477.416 1732.96,-472.88 1841,-450 1861.21,-445.72 1864.79,-439.308 1885,-435 1903.72,-431.01 2039.74,-436.965 2073.46,-423.865"/>
<polygon fill="red" stroke="red" points="2075.96,-426.319 2081,-417 2071.25,-421.142 2075.96,-426.319"/>
<text text-anchor="middle" x="1909.5" y="-438.8" font-family="Times,serif" font-size="14.00">Requires</text>
</g>
<!-- C -->
<g id="node15" class="node"><title>C</title>
<polygon fill="#ffff00" stroke="blue" points="1563,-269 1513,-269 1513,-246 1563,-246 1563,-269"/>
<text text-anchor="middle" x="1538" y="-253.8" font-family="Times,serif" font-size="14.00">C</text>
</g>
<!-- O&#45;&gt;C -->
<g id="edge33" class="edge"><title>O&#45;&gt;C:n</title>
<path fill="none" stroke="red" d="M1683.77,-326.81C1641.4,-319.98 1558.88,-303.735 1541.33,-278.643"/>
<polygon fill="red" stroke="red" points="1544.57,-277.31 1538,-269 1537.96,-279.595 1544.57,-277.31"/>
<text text-anchor="middle" x="1604.5" y="-290.8" font-family="Times,serif" font-size="14.00">Requires</text>
</g>
<!-- I -->
<g id="node21" class="node"><title>I</title>
<polygon fill="#ffff00" stroke="blue" points="1455,-269 1405,-269 1405,-246 1455,-246 1455,-269"/>
<text text-anchor="middle" x="1430" y="-253.8" font-family="Times,serif" font-size="14.00">I</text>
</g>
<!-- O&#45;&gt;I -->
<g id="edge34" class="edge"><title>O&#45;&gt;I:n</title>
<path fill="none" stroke="red" d="M1683.75,-330.274C1619.63,-329.069 1454.07,-321.777 1432.36,-278.737"/>
<polygon fill="red" stroke="red" points="1435.76,-277.894 1430,-269 1428.95,-279.543 1435.76,-277.894"/>
<text text-anchor="middle" x="1484.5" y="-290.8" font-family="Times,serif" font-size="14.00">Requires</text>
</g>
<!-- R -->
<g id="node30" class="node"><title>R</title>
<polygon fill="#ffff00" stroke="blue" points="1789,-269 1739,-269 1739,-246 1789,-246 1789,-269"/>
<text text-anchor="middle" x="1764" y="-253.8" font-family="Times,serif" font-size="14.00">R</text>
</g>
<!-- O&#45;&gt;R -->
<g id="edge35" class="edge"><title>O&#45;&gt;R:n</title>
<path fill="none" stroke="red" d="M1710.52,-319.995C1712.41,-310.359 1716.49,-296.224 1725,-287 1734.61,-276.589 1751.44,-282.232 1759.48,-278.03"/>
<polygon fill="red" stroke="red" points="1762.65,-279.508 1764,-269 1756.39,-276.373 1762.65,-279.508"/>
<text text-anchor="middle" x="1749.5" y="-290.8" font-family="Times,serif" font-size="14.00">Requires</text>
</g>
<!-- L -->
<g id="node18" class="node"><title>L</title>
<polygon fill="#ffff00" stroke="blue" points="1769,-121 1719,-121 1719,-98 1769,-98 1769,-121"/>
<text text-anchor="middle" x="1744" y="-105.8" font-family="Times,serif" font-size="14.00">L</text>
</g>
<!-- V&#45;&gt;L -->
<g id="edge36" class="edge"><title>V&#45;&gt;L:n</title>
<path fill="none" stroke="red" d="M1632.13,-182.097C1668.74,-180.142 1733.45,-171.004 1742.85,-131.181"/>
<polygon fill="red" stroke="red" points="1746.35,-131.33 1744,-121 1739.4,-130.543 1746.35,-131.33"/>
<text text-anchor="middle" x="1763.5" y="-142.8" font-family="Times,serif" font-size="14.00">Requires</text>
</g>
<!-- OR&#45;&gt;X -->
<g id="edge18" class="edge"><title>OR&#45;&gt;X:n</title>
<path fill="none" stroke="black" d="M1590.83,-692.117C1517.65,-690.699 1306.17,-684.367 1243,-658 1216.22,-646.82 1216.71,-632.731 1193,-616 1177.84,-605.301 1128.12,-592.716 1111.48,-575.978"/>
<polygon fill="none" stroke="black" points="1111.36,-575.736 1105.1,-572.155 1106,-565 1112.26,-568.581 1111.36,-575.736"/>
</g>
<!-- OR&#45;&gt;D -->
<g id="edge13" class="edge"><title>OR&#45;&gt;D:n</title>
<path fill="none" stroke="black" d="M1590.83,-690.65C1542.82,-686.82 1435.01,-676.771 1346,-658 1316.97,-651.877 1305.5,-657.109 1282,-639 1242.03,-608.204 1264.17,-571.175 1223,-542 1191.49,-519.673 1162.31,-554.001 1138,-524 1100.58,-477.829 1059.75,-507.929 1222,-435 1247.62,-423.482 1337.03,-442.61 1361.67,-427.47"/>
<polygon fill="none" stroke="black" points="1361.79,-427.269 1361.47,-420.065 1368,-417 1368.32,-424.204 1361.79,-427.269"/>
</g>
<!-- OR&#45;&gt;C -->
<g id="edge14" class="edge"><title>OR&#45;&gt;C:n</title>
<path fill="none" stroke="black" d="M1590.85,-691.862C1518.38,-689.55 1310.99,-679.466 1259,-639 1249.39,-631.521 1217.86,-549.149 1208,-542 1169.32,-513.945 1136.85,-556.7 1102,-524 1080.34,-503.677 1087.1,-418.955 1071,-394 1063.96,-383.093 1053.69,-387.669 1048,-376 1028.71,-336.406 1104.28,-353.979 1191,-343 1264.94,-333.639 1509.17,-346.306 1535.66,-281.115"/>
<polygon fill="none" stroke="black" points="1535.73,-280.783 1532.94,-274.134 1538,-269 1540.79,-275.649 1535.73,-280.783"/>
</g>
<!-- OR&#45;&gt;Y -->
<g id="edge15" class="edge"><title>OR&#45;&gt;Y:n</title>
<path fill="none" stroke="black" d="M1641.05,-691.623C1726.05,-688.342 2002.7,-675.072 2083,-639 2175.47,-597.464 2250.28,-512.55 2185,-435 2158.21,-403.178 2097.16,-450.521 2083.67,-428.95"/>
<polygon fill="none" stroke="black" points="2083.62,-428.711 2078.4,-423.728 2081,-417 2086.21,-421.983 2083.62,-428.711"/>
</g>
<!-- Z -->
<g id="node17" class="node"><title>Z</title>
<polygon fill="#ffff00" stroke="blue" points="1799,-565 1749,-565 1749,-542 1799,-542 1799,-565"/>
<text text-anchor="middle" x="1774" y="-549.8" font-family="Times,serif" font-size="14.00">Z</text>
</g>
<!-- OR&#45;&gt;Z -->
<g id="edge16" class="edge"><title>OR&#45;&gt;Z:n</title>
<path fill="none" stroke="black" d="M1641.04,-685.152C1682.8,-671.284 1763.12,-637.142 1773,-577.31"/>
<polygon fill="none" stroke="black" points="1773.02,-576.96 1769.53,-570.655 1774,-565 1777.5,-571.305 1773.02,-576.96"/>
</g>
<!-- OR&#45;&gt;L -->
<g id="edge17" class="edge"><title>OR&#45;&gt;L:n</title>
<path fill="none" stroke="black" d="M1641.19,-692.802C1763.55,-693.942 2290,-694.984 2290,-628.5 2290,-628.5 2290,-628.5 2290,-330.5 2290,-131.794 2078.98,-186.357 1886,-139 1873.21,-135.861 1784.22,-136.484 1754.01,-127.758"/>
<polygon fill="none" stroke="black" points="1753.95,-127.715 1746.73,-127.673 1744,-121 1751.21,-121.042 1753.95,-127.715"/>
</g>
<!-- U -->
<g id="node19" class="node"><title>U</title>
<polygon fill="#ffff00" stroke="blue" points="2166,-565 2116,-565 2116,-542 2166,-542 2166,-565"/>
<text text-anchor="middle" x="2141" y="-549.8" font-family="Times,serif" font-size="14.00">U</text>
</g>
<!-- OR&#45;&gt;U -->
<g id="edge19" class="edge"><title>OR&#45;&gt;U:n</title>
<path fill="none" stroke="black" d="M1641.32,-691.86C1741.99,-688.67 2109.85,-670.642 2139.15,-577.103"/>
<polygon fill="none" stroke="black" points="2139.18,-576.862 2136.14,-570.325 2141,-565 2144.04,-571.537 2139.18,-576.862"/>
</g>
<!-- M -->
<g id="node20" class="node"><title>M</title>
<polygon fill="#ffff00" stroke="blue" points="1307,-565 1257,-565 1257,-542 1307,-542 1307,-565"/>
<text text-anchor="middle" x="1282" y="-549.8" font-family="Times,serif" font-size="14.00">M</text>
</g>
<!-- OR&#45;&gt;M -->
<g id="edge20" class="edge"><title>OR&#45;&gt;M:n</title>
<path fill="none" stroke="black" d="M1590.71,-691.815C1543.06,-689.955 1437.13,-683.097 1352,-658 1311.05,-645.929 1291.77,-638.051 1277,-598 1274.69,-591.745 1276.1,-589.606 1277,-583 1277.35,-580.429 1277.97,-578.518 1278.66,-576.852"/>
<polygon fill="none" stroke="black" points="1278.74,-576.549 1276.52,-569.689 1282,-565 1284.22,-571.861 1278.74,-576.549"/>
</g>
<!-- OR&#45;&gt;I -->
<g id="edge21" class="edge"><title>OR&#45;&gt;I:n</title>
<path fill="none" stroke="black" d="M1590.79,-692.853C1529.42,-693.143 1367.77,-690.482 1238,-658 1216.94,-652.729 1209.86,-652.672 1193,-639 1183.33,-631.158 1187.07,-623.332 1177,-616 1154.84,-599.858 1142.58,-610.152 1118,-598 1095.45,-586.848 1091.37,-581.054 1072,-565 1051.67,-548.152 1039.39,-548.274 1029,-524 1024.05,-512.437 996.118,-408.355 1041,-361 1082.03,-317.706 1121.5,-371.324 1174,-343 1185.92,-336.568 1185.08,-330.199 1194,-320 1195.61,-318.162 1220.82,-288.102 1223,-287 1240.78,-278.004 1382.13,-288.331 1420.45,-276.47"/>
<polygon fill="none" stroke="black" points="1420.55,-276.392 1422.81,-269.545 1430,-269 1427.74,-275.847 1420.55,-276.392"/>
</g>
<!-- N -->
<g id="node22" class="node"><title>N</title>
<polygon fill="#ffff00" stroke="blue" points="1641,-565 1591,-565 1591,-542 1641,-542 1641,-565"/>
<text text-anchor="middle" x="1616" y="-549.8" font-family="Times,serif" font-size="14.00">N</text>
</g>
<!-- OR&#45;&gt;N -->
<g id="edge22" class="edge"><title>OR&#45;&gt;N:n</title>
<path fill="none" stroke="black" d="M1616,-681.921C1616,-662.08 1616,-617.624 1616,-577.128"/>
<polygon fill="none" stroke="black" points="1616,-577 1612,-571 1616,-565 1620,-571 1616,-577"/>
</g>
<!-- P -->
<g id="node23" class="node"><title>P</title>
<polygon fill="#ffff00" stroke="blue" points="1942,-565 1892,-565 1892,-542 1942,-542 1942,-565"/>
<text text-anchor="middle" x="1917" y="-549.8" font-family="Times,serif" font-size="14.00">P</text>
</g>
<!-- OR&#45;&gt;P -->
<g id="edge23" class="edge"><title>OR&#45;&gt;P:n</title>
<path fill="none" stroke="black" d="M1641.06,-692.002C1688.79,-690.455 1795.59,-684.099 1881,-658 1918.91,-646.415 1935.3,-635.877 1947,-598 1948.97,-591.63 1950.28,-588.801 1947,-583 1942.33,-574.755 1932.21,-575.648 1925.02,-574.086"/>
<polygon fill="none" stroke="black" points="1924.94,-573.997 1917.97,-572.145 1917,-565 1923.97,-566.851 1924.94,-573.997"/>
</g>
<!-- Q -->
<g id="node24" class="node"><title>Q</title>
<polygon fill="#ffff00" stroke="blue" points="1573,-565 1523,-565 1523,-542 1573,-542 1573,-565"/>
<text text-anchor="middle" x="1548" y="-549.8" font-family="Times,serif" font-size="14.00">Q</text>
</g>
<!-- OR&#45;&gt;Q -->
<g id="edge24" class="edge"><title>OR&#45;&gt;Q:n</title>
<path fill="none" stroke="black" d="M1605.67,-681.932C1588.25,-663.031 1554.35,-621.268 1548.78,-577.172"/>
<polygon fill="none" stroke="black" points="1548.77,-576.975 1544.39,-571.245 1548,-565 1552.38,-570.731 1548.77,-576.975"/>
</g>
<!-- F -->
<g id="node25" class="node"><title>F</title>
<polygon fill="#ffff00" stroke="blue" points="2030,-565 1980,-565 1980,-542 2030,-542 2030,-565"/>
<text text-anchor="middle" x="2005" y="-549.8" font-family="Times,serif" font-size="14.00">F</text>
</g>
<!-- OR&#45;&gt;F -->
<g id="edge25" class="edge"><title>OR&#45;&gt;F:n</title>
<path fill="none" stroke="black" d="M1641.47,-690.993C1708.63,-686.596 1888.7,-671.958 1937,-639 1970.29,-616.284 1998.87,-610.679 2004.13,-576.984"/>
<polygon fill="none" stroke="black" points="2004.13,-576.969 2000.58,-570.696 2005,-565 2008.56,-571.273 2004.13,-576.969"/>
</g>
<!-- T -->
<g id="node26" class="node"><title>T</title>
<polygon fill="#ffff00" stroke="blue" points="1371,-639 1321,-639 1321,-616 1371,-616 1371,-639"/>
<text text-anchor="middle" x="1346" y="-623.8" font-family="Times,serif" font-size="14.00">T</text>
</g>
<!-- OR&#45;&gt;T -->
<g id="edge26" class="edge"><title>OR&#45;&gt;T:n</title>
<path fill="none" stroke="black" d="M1590.6,-692.805C1529.16,-692.923 1375.67,-689.294 1349.75,-650.806"/>
<polygon fill="none" stroke="black" points="1349.63,-650.438 1344,-645.929 1346,-639 1351.63,-643.509 1349.63,-650.438"/>
</g>
<!-- S -->
<g id="node27" class="node"><title>S</title>
<polygon fill="#ffff00" stroke="blue" points="2098,-565 2048,-565 2048,-542 2098,-542 2098,-565"/>
<text text-anchor="middle" x="2073" y="-549.8" font-family="Times,serif" font-size="14.00">S</text>
</g>
<!-- OR&#45;&gt;S -->
<g id="edge27" class="edge"><title>OR&#45;&gt;S:n</title>
<path fill="none" stroke="black" d="M1641.22,-690.977C1732.54,-684.816 2042.03,-658.081 2070.84,-577.313"/>
<polygon fill="none" stroke="black" points="2070.93,-576.82 2068.03,-570.22 2073,-565 2075.91,-571.6 2070.93,-576.82"/>
</g>
<!-- H -->
<g id="node28" class="node"><title>H</title>
<polygon fill="#ffff00" stroke="blue" points="1910,-639 1860,-639 1860,-616 1910,-616 1910,-639"/>
<text text-anchor="middle" x="1885" y="-623.8" font-family="Times,serif" font-size="14.00">H</text>
</g>
<!-- OR&#45;&gt;H -->
<g id="edge28" class="edge"><title>OR&#45;&gt;H:n</title>
<path fill="none" stroke="black" d="M1641.31,-692.786C1702.52,-692.86 1855.44,-689.136 1881.27,-650.766"/>
<polygon fill="none" stroke="black" points="1881.37,-650.438 1879.37,-643.509 1885,-639 1887,-645.929 1881.37,-650.438"/>
</g>
<!-- E -->
<g id="node29" class="node"><title>E</title>
<polygon fill="#ffff00" stroke="blue" points="1505,-565 1455,-565 1455,-542 1505,-542 1505,-565"/>
<text text-anchor="middle" x="1480" y="-549.8" font-family="Times,serif" font-size="14.00">E</text>
</g>
<!-- OR&#45;&gt;E -->
<g id="edge29" class="edge"><title>OR&#45;&gt;E:n</title>
<path fill="none" stroke="black" d="M1603.3,-681.938C1591.01,-671.492 1572.07,-654.821 1557,-639 1534.79,-615.675 1535.54,-603.863 1511,-583 1503.51,-576.631 1493.46,-577.336 1486.86,-575.063"/>
<polygon fill="none" stroke="black" points="1486.76,-574.917 1480.07,-572.211 1480,-565 1486.68,-567.706 1486.76,-574.917"/>
</g>
<!-- OR&#45;&gt;R -->
<g id="edge30" class="edge"><title>OR&#45;&gt;R:n</title>
<path fill="none" stroke="black" d="M1641.24,-692.727C1761.43,-693.485 2270,-692.886 2270,-628.5 2270,-628.5 2270,-628.5 2270,-515.5 2270,-446.51 2301.22,-412.22 2255,-361 2243.91,-348.713 1977.45,-310.074 1963,-302 1955.04,-297.551 1957.18,-291.036 1949,-287 1933.23,-279.217 1810.16,-286.613 1773.98,-276.227"/>
<polygon fill="none" stroke="black" points="1773.72,-276.04 1766.51,-275.759 1764,-269 1771.21,-269.281 1773.72,-276.04"/>
</g>
<!-- D&#45;&gt;O -->
<g id="edge59" class="edge"><title>D&#45;&gt;O:n</title>
<path fill="none" stroke="blue" stroke-dasharray="5,2" d="M1370.59,-383.893C1372.75,-375.436 1376.72,-366.383 1384,-361 1410.52,-341.384 1659.04,-372.665 1702.52,-350.872"/>
<polygon fill="blue" stroke="blue" points="1367.1,-383.492 1368.7,-393.966 1373.98,-384.783 1367.1,-383.492"/>
<polygon fill="blue" stroke="blue" points="1705.35,-352.946 1709,-343 1699.94,-348.499 1705.35,-352.946"/>
<text text-anchor="middle" x="1411" y="-364.8" font-family="Times,serif" font-size="14.00"> Excludes</text>
</g>
<!-- C&#45;&gt;G -->
<g id="edge43" class="edge"><title>C&#45;&gt;G:n</title>
<path fill="none" stroke="blue" stroke-dasharray="5,2" d="M1538.19,-279.174C1537.51,-303.937 1533.41,-345.846 1515,-376 1504.4,-393.363 1453.58,-416.553 1445,-435 1425.09,-477.822 1515.68,-431.796 1546,-468 1552.71,-476.007 1553.24,-483.969 1546,-491.5 1541.67,-496.01 1534.3,-499.282 1528.68,-499.301"/>
<polygon fill="blue" stroke="blue" points="1541.69,-279.145 1538.3,-269.108 1534.69,-279.069 1541.69,-279.145"/>
<polygon fill="blue" stroke="blue" points="1530.81,-496.51 1521,-492.5 1526.17,-501.75 1530.81,-496.51"/>
<text text-anchor="middle" x="1550" y="-364.8" font-family="Times,serif" font-size="14.00"> Excludes</text>
</g>
<!-- C&#45;&gt;J -->
<g id="edge74" class="edge"><title>C&#45;&gt;J:n</title>
<path fill="none" stroke="blue" stroke-dasharray="5,2" d="M1520.05,-237.513C1515.03,-229.89 1511.92,-221.023 1516,-213 1542.87,-160.198 1722.68,-114.89 1742.27,-57.1497"/>
<polygon fill="blue" stroke="blue" points="1517.6,-240.055 1526.52,-245.766 1523.11,-235.737 1517.6,-240.055"/>
<polygon fill="blue" stroke="blue" points="1745.77,-57.4459 1744,-47 1738.87,-56.2697 1745.77,-57.4459"/>
<text text-anchor="middle" x="1653" y="-142.8" font-family="Times,serif" font-size="14.00"> Excludes</text>
</g>
<!-- C&#45;&gt;V -->
<g id="edge88" class="edge"><title>C&#45;&gt;V:n</title>
<path fill="none" stroke="blue" stroke-dasharray="5,2" d="M1523.75,-237.274C1519.54,-229.136 1517.38,-219.951 1523,-213 1544.19,-186.788 1593.43,-222.585 1604.68,-205.065"/>
<polygon fill="blue" stroke="blue" points="1520.82,-239.193 1529.07,-245.842 1526.77,-235.5 1520.82,-239.193"/>
<polygon fill="blue" stroke="blue" points="1608.17,-205.53 1607,-195 1601.35,-203.96 1608.17,-205.53"/>
<text text-anchor="middle" x="1550" y="-216.8" font-family="Times,serif" font-size="14.00"> Excludes</text>
</g>
<!-- Y&#45;&gt;O -->
<g id="edge60" class="edge"><title>Y&#45;&gt;O:n</title>
<path fill="none" stroke="blue" stroke-dasharray="5,2" d="M2045.8,-404.027C2001.42,-402.518 1923.28,-396.808 1860,-376 1846.96,-371.712 1846.01,-365.391 1833,-361 1810.12,-353.276 1733.67,-366.351 1713.77,-351.802"/>
<polygon fill="blue" stroke="blue" points="2045.7,-407.525 2055.8,-404.314 2045.9,-400.528 2045.7,-407.525"/>
<polygon fill="blue" stroke="blue" points="1716.84,-350.124 1709,-343 1710.69,-353.46 1716.84,-350.124"/>
<text text-anchor="middle" x="1887" y="-364.8" font-family="Times,serif" font-size="14.00"> Excludes</text>
</g>
<!-- Y&#45;&gt;J -->
<g id="edge75" class="edge"><title>Y&#45;&gt;J:n</title>
<path fill="none" stroke="blue" stroke-dasharray="5,2" d="M2086.67,-383.696C2087.56,-375.863 2086.89,-367.329 2082,-361 2062.62,-335.92 2041.02,-357.811 2013,-343 1988.49,-330.046 1978.9,-326.537 1966,-302 1956.95,-284.774 1961,-277.961 1961,-258.5 1961,-258.5 1961,-258.5 1961,-108.5 1961,-39.5133 1878.46,-83.4947 1812,-65 1785.88,-57.7318 1753.93,-73.0434 1745.9,-56.851"/>
<polygon fill="blue" stroke="blue" points="2083.21,-383.186 2084.74,-393.67 2090.08,-384.52 2083.21,-383.186"/>
<polygon fill="blue" stroke="blue" points="1749.33,-56.1574 1744,-47 1742.45,-57.4816 1749.33,-56.1574"/>
<text text-anchor="middle" x="1988" y="-216.8" font-family="Times,serif" font-size="14.00"> Excludes</text>
</g>
<!-- Y&#45;&gt;V -->
<g id="edge89" class="edge"><title>Y&#45;&gt;V:n</title>
<path fill="none" stroke="blue" stroke-dasharray="5,2" d="M2083.1,-383.394C2082.74,-375.389 2080.75,-366.812 2075,-361 2055.88,-341.676 1980.51,-349.002 1954,-343 1919.99,-335.302 1912.53,-329.574 1879,-320 1848.94,-311.415 1840.45,-312.505 1811,-302 1795.83,-296.586 1792.88,-293.165 1778,-287 1756.95,-278.281 1746.6,-284.611 1730,-269 1710.15,-250.325 1726.43,-229.846 1705,-213 1690.52,-201.613 1632.29,-212.042 1613.14,-203.113"/>
<polygon fill="blue" stroke="blue" points="2079.6,-383.543 2082.8,-393.643 2086.59,-383.751 2079.6,-383.543"/>
<polygon fill="blue" stroke="blue" points="1615.83,-200.862 1607,-195 1610.24,-205.086 1615.83,-200.862"/>
<text text-anchor="middle" x="1838" y="-290.8" font-family="Times,serif" font-size="14.00"> Excludes</text>
</g>
<!-- Z&#45;&gt;G -->
<g id="edge44" class="edge"><title>Z&#45;&gt;G:n</title>
<path fill="none" stroke="blue" stroke-dasharray="5,2" d="M1738.86,-542.895C1737.56,-542.585 1736.27,-542.286 1735,-542 1691.37,-532.178 1679.16,-535.725 1636,-524 1617.28,-518.913 1613.57,-514.635 1595,-509 1582.1,-505.083 1542.77,-506.726 1527.32,-498.99"/>
<polygon fill="blue" stroke="blue" points="1738.35,-546.375 1748.9,-545.413 1740.05,-539.585 1738.35,-546.375"/>
<polygon fill="blue" stroke="blue" points="1529.95,-496.671 1521,-491 1524.46,-501.014 1529.95,-496.671"/>
<text text-anchor="middle" x="1663" y="-512.8" font-family="Times,serif" font-size="14.00"> Excludes</text>
</g>
<!-- Z&#45;&gt;O -->
<g id="edge61" class="edge"><title>Z&#45;&gt;O:n</title>
<path fill="none" stroke="blue" stroke-dasharray="5,2" d="M1739.55,-539.681C1724.26,-533.659 1709.19,-527.129 1707,-524 1669.23,-470.115 1706.57,-441.652 1711,-376 1711.45,-369.348 1711.37,-367.656 1711,-361 1710.82,-357.735 1710.46,-355.481 1710.09,-353.415"/>
<polygon fill="blue" stroke="blue" points="1738.4,-542.987 1748.99,-543.329 1740.92,-536.458 1738.4,-542.987"/>
<polygon fill="blue" stroke="blue" points="1713.52,-352.583 1709,-343 1706.56,-353.309 1713.52,-352.583"/>
<text text-anchor="middle" x="1726" y="-438.8" font-family="Times,serif" font-size="14.00"> Excludes</text>
</g>
<!-- Z&#45;&gt;V -->
<g id="edge90" class="edge"><title>Z&#45;&gt;V:n</title>
<path fill="none" stroke="blue" stroke-dasharray="5,2" d="M1739.33,-540.226C1721.77,-533.813 1703.42,-526.741 1700,-524 1693.75,-518.992 1696.22,-514.052 1690,-509 1635.36,-464.611 1582.43,-508.318 1543,-450 1527.54,-427.143 1562.97,-424.286 1581,-376 1608.21,-303.138 1607.15,-278.395 1607.01,-205.166"/>
<polygon fill="blue" stroke="blue" points="1738.32,-543.58 1748.91,-543.689 1740.7,-536.997 1738.32,-543.58"/>
<polygon fill="blue" stroke="blue" points="1610.51,-204.996 1607,-195 1603.51,-205.004 1610.51,-204.996"/>
<text text-anchor="middle" x="1614" y="-364.8" font-family="Times,serif" font-size="14.00"> Excludes</text>
</g>
<!-- L&#45;&gt;X -->
<g id="edge40" class="edge"><title>L&#45;&gt;X:n</title>
<path fill="none" stroke="red" d="M1718.83,-113.129C1681.05,-117.297 1607.56,-126.276 1546,-139 1353.41,-178.808 1289.87,-173.887 1129,-287 1099.16,-307.98 1100.55,-324.688 1069,-343 1045.66,-356.55 1027.01,-339.27 1011,-361 988.939,-390.945 1022.24,-498.168 1049,-524 1075.84,-549.915 1107.62,-512.925 1131,-542 1137.55,-550.139 1138.24,-557.969 1131,-565.5 1126.67,-570.01 1119.3,-573.282 1113.68,-573.301"/>
<polygon fill="red" stroke="red" points="1115.81,-570.51 1106,-566.5 1111.17,-575.75 1115.81,-570.51"/>
<text text-anchor="middle" x="1121.5" y="-327.8" font-family="Times,serif" font-size="14.00">Requires</text>
</g>
<!-- L&#45;&gt;G -->
<g id="edge45" class="edge"><title>L&#45;&gt;G:n</title>
<path fill="none" stroke="blue" stroke-dasharray="5,2" d="M1778.4,-125.365C1786.13,-129.331 1794.08,-133.939 1801,-139 1838.04,-166.085 1849.28,-173.721 1873,-213 1894.51,-248.611 1877.96,-268.044 1902,-302 1926.91,-337.189 1945.24,-334.181 1979,-361 2009.65,-385.354 2011.81,-399.837 2047,-417 2080.15,-433.167 2104.92,-406.233 2128,-435 2132.17,-440.2 2132.6,-445.172 2128,-450 2113.92,-464.784 1781.35,-466.39 1761,-468 1665.17,-475.58 1641.86,-484.353 1546,-491.5 1540.98,-491.875 1535.37,-494.398 1530.74,-496.012"/>
<polygon fill="blue" stroke="blue" points="1779.69,-122.101 1769.17,-120.858 1776.62,-128.391 1779.69,-122.101"/>
<polygon fill="blue" stroke="blue" points="1531.59,-492.598 1521,-492.5 1529.22,-499.183 1531.59,-492.598"/>
<text text-anchor="middle" x="1929" y="-290.8" font-family="Times,serif" font-size="14.00"> Excludes</text>
</g>
<!-- L&#45;&gt;O -->
<g id="edge62" class="edge"><title>L&#45;&gt;O:n</title>
<path fill="none" stroke="blue" stroke-dasharray="5,2" d="M1778.05,-124.879C1783.55,-128.68 1788.57,-133.345 1792,-139 1832.98,-206.523 1808.64,-238.004 1798,-269 1794.71,-278.586 1789.93,-278.778 1784,-287 1764.39,-314.203 1764.59,-329.769 1734,-343.5 1728.93,-345.777 1722.68,-348.807 1717.7,-349.878"/>
<polygon fill="blue" stroke="blue" points="1779.53,-121.688 1769.14,-119.598 1775.96,-127.709 1779.53,-121.688"/>
<polygon fill="blue" stroke="blue" points="1719.35,-346.783 1709,-344.5 1715.66,-352.736 1719.35,-346.783"/>
<text text-anchor="middle" x="1842" y="-216.8" font-family="Times,serif" font-size="14.00"> Excludes</text>
</g>
<!-- L&#45;&gt;J -->
<g id="edge76" class="edge"><title>L&#45;&gt;J:n</title>
<path fill="none" stroke="blue" stroke-dasharray="5,2" d="M1744,-87.3795C1744,-78.4796 1744,-67.7712 1744,-57.3069"/>
<polygon fill="blue" stroke="blue" points="1740.5,-87.6129 1744,-97.6129 1747.5,-87.6129 1740.5,-87.6129"/>
<polygon fill="blue" stroke="blue" points="1747.5,-57 1744,-47 1740.5,-57 1747.5,-57"/>
<text text-anchor="middle" x="1771" y="-68.8" font-family="Times,serif" font-size="14.00"> Excludes</text>
</g>
<!-- L&#45;&gt;D -->
<g id="edge39" class="edge"><title>L&#45;&gt;D:n</title>
<path fill="none" stroke="red" d="M1718.83,-113.676C1688.89,-117.827 1637.61,-126.123 1595,-139 1486.45,-171.809 1364.3,-226.845 1347,-246 1316.48,-279.797 1349.72,-314.752 1314,-343 1281.08,-369.035 1154.23,-329.942 1126,-361 1121.52,-365.934 1121.45,-371.13 1126,-376 1166.61,-419.441 1352.39,-350.559 1393,-394 1400.13,-401.63 1400.24,-409.969 1393,-417.5 1388.67,-422.01 1381.3,-425.282 1375.68,-425.301"/>
<polygon fill="red" stroke="red" points="1377.81,-422.51 1368,-418.5 1373.17,-427.75 1377.81,-422.51"/>
<text text-anchor="middle" x="1371.5" y="-253.8" font-family="Times,serif" font-size="14.00">Requires</text>
</g>
<!-- U&#45;&gt;G -->
<g id="edge47" class="edge"><title>U&#45;&gt;G:n</title>
<path fill="none" stroke="blue" stroke-dasharray="5,2" d="M2105.85,-541.991C2061.3,-531.934 2047.5,-535.717 2007,-524 1989.95,-519.069 1987.34,-512.744 1970,-509 1947.65,-504.175 1589.5,-514.033 1529.5,-496.535"/>
<polygon fill="blue" stroke="blue" points="2105.31,-545.46 2115.84,-544.358 2106.92,-538.648 2105.31,-545.46"/>
<polygon fill="blue" stroke="blue" points="1531.29,-493.526 1521,-491 1527.47,-499.391 1531.29,-493.526"/>
<text text-anchor="middle" x="2034" y="-512.8" font-family="Times,serif" font-size="14.00"> Excludes</text>
</g>
<!-- U&#45;&gt;O -->
<g id="edge64" class="edge"><title>U&#45;&gt;O:n</title>
<path fill="none" stroke="blue" stroke-dasharray="5,2" d="M2110.12,-536.517C2093.43,-526.043 2074.37,-510.646 2065,-491 2057.13,-474.51 2066.49,-468.209 2068,-450 2068.55,-443.356 2072.07,-440.279 2068,-435 2057.06,-420.808 1929.61,-397.313 1912,-394 1877.7,-387.549 1785.77,-394.205 1756,-376 1749.16,-371.82 1752.04,-366.27 1746,-361 1735.88,-352.167 1720.67,-356.462 1713.3,-352.125"/>
<polygon fill="blue" stroke="blue" points="2108.68,-539.734 2119.06,-541.826 2112.25,-533.713 2108.68,-539.734"/>
<polygon fill="blue" stroke="blue" points="1716.43,-350.551 1709,-343 1710.1,-353.538 1716.43,-350.551"/>
<text text-anchor="middle" x="2097" y="-438.8" font-family="Times,serif" font-size="14.00"> Excludes</text>
</g>
<!-- U&#45;&gt;J -->
<g id="edge78" class="edge"><title>U&#45;&gt;J:n</title>
<path fill="none" stroke="blue" stroke-dasharray="5,2" d="M2169.55,-536.366C2175.25,-532.622 2181,-528.426 2186,-524 2240.33,-475.883 2242.36,-447.466 2255,-376 2256.16,-369.435 2258.98,-366.349 2255,-361 2238.38,-338.664 2211.62,-365.336 2195,-343 2188.9,-334.799 2192.83,-329.99 2195,-320 2201.37,-290.65 2223,-288.533 2223,-258.5 2223,-258.5 2223,-258.5 2223,-108.5 2223,-88.0495 2224.42,-77.1925 2208,-65 2188.99,-50.8815 1813.88,-69.2541 1752.47,-52.4082"/>
<polygon fill="blue" stroke="blue" points="2167.41,-533.578 2160.78,-541.845 2171.12,-539.515 2167.41,-533.578"/>
<polygon fill="blue" stroke="blue" points="1754.31,-49.4312 1744,-47 1750.55,-55.3313 1754.31,-49.4312"/>
<text text-anchor="middle" x="2240" y="-290.8" font-family="Times,serif" font-size="14.00"> Excludes</text>
</g>
<!-- U&#45;&gt;V -->
<g id="edge91" class="edge"><title>U&#45;&gt;V:n</title>
<path fill="none" stroke="blue" stroke-dasharray="5,2" d="M2163.79,-535.13C2167.74,-531.651 2171.64,-527.869 2175,-524 2200.38,-494.75 2210.37,-487.238 2221,-450 2230.97,-415.077 2193.01,-371.762 2187,-361 2182.31,-352.606 2177.79,-352.202 2175,-343 2172.04,-333.216 2170.96,-329.39 2175,-320 2179.6,-309.314 2189.4,-312.686 2194,-302 2196.63,-295.876 2198.15,-292.217 2194,-287 2193.29,-286.105 1874.13,-213.168 1873,-213 1860.01,-211.075 1660.91,-210.057 1615.97,-199.524"/>
<polygon fill="blue" stroke="blue" points="2161.25,-532.69 2155.8,-541.777 2165.73,-538.07 2161.25,-532.69"/>
<polygon fill="blue" stroke="blue" points="1617.5,-196.38 1607,-195 1614.35,-202.629 1617.5,-196.38"/>
<text text-anchor="middle" x="2224" y="-364.8" font-family="Times,serif" font-size="14.00"> Excludes</text>
</g>
<!-- M&#45;&gt;G -->
<g id="edge48" class="edge"><title>M&#45;&gt;G:n</title>
<path fill="none" stroke="blue" stroke-dasharray="5,2" d="M1274.64,-532.078C1273.09,-523.942 1273.35,-515.085 1279,-509 1295.34,-491.401 1474.53,-512.26 1513.53,-497.985"/>
<polygon fill="blue" stroke="blue" points="1271.27,-533.024 1277.31,-541.735 1278.02,-531.164 1271.27,-533.024"/>
<polygon fill="blue" stroke="blue" points="1516.09,-500.388 1521,-491 1511.31,-495.277 1516.09,-500.388"/>
<text text-anchor="middle" x="1306" y="-512.8" font-family="Times,serif" font-size="14.00"> Excludes</text>
</g>
<!-- M&#45;&gt;O -->
<g id="edge65" class="edge"><title>M&#45;&gt;O:n</title>
<path fill="none" stroke="blue" stroke-dasharray="5,2" d="M1246.86,-542.898C1245.56,-542.588 1244.27,-542.287 1243,-542 1221.4,-537.118 1159.17,-541.012 1145,-524 1140.73,-518.878 1140.88,-514.242 1145,-509 1165.92,-482.387 1194.79,-514.656 1219,-491 1237.43,-472.992 1214.42,-451.754 1234,-435 1262.53,-410.585 1364.97,-423.202 1402,-417 1482.49,-403.518 1506.57,-409.481 1581,-376 1591.46,-371.295 1591.41,-365.397 1602,-361 1620.88,-353.164 1684.63,-363.004 1703.62,-351.498"/>
<polygon fill="blue" stroke="blue" points="1246.35,-546.378 1256.9,-545.42 1248.05,-539.589 1246.35,-546.378"/>
<polygon fill="blue" stroke="blue" points="1706.61,-353.322 1709,-343 1700.69,-349.578 1706.61,-353.322"/>
<text text-anchor="middle" x="1261" y="-438.8" font-family="Times,serif" font-size="14.00"> Excludes</text>
</g>
<!-- M&#45;&gt;J -->
<g id="edge79" class="edge"><title>M&#45;&gt;J:n</title>
<path fill="none" stroke="blue" stroke-dasharray="5,2" d="M1246.64,-546.531C1200.82,-538.736 1126.45,-525.862 1124,-524 1089.02,-497.428 1101.29,-473.966 1081,-435 1067.13,-408.35 1055.58,-405.074 1048,-376 1046.32,-369.549 1043.72,-366.107 1048,-361 1077.59,-325.734 1120.2,-378.09 1150,-343 1174.31,-314.37 1151,-296.058 1151,-258.5 1151,-258.5 1151,-258.5 1151,-108.5 1151,29.7474 1321.47,-79.0342 1459,-65 1473.06,-63.5656 1688.14,-62.9926 1735.02,-51.6766"/>
<polygon fill="blue" stroke="blue" points="1246.34,-550.029 1256.78,-548.252 1247.51,-543.128 1246.34,-550.029"/>
<polygon fill="blue" stroke="blue" points="1736.75,-54.724 1744,-47 1733.51,-48.5157 1736.75,-54.724"/>
<text text-anchor="middle" x="1187" y="-290.8" font-family="Times,serif" font-size="14.00"> Excludes</text>
</g>
<!-- M&#45;&gt;V -->
<g id="edge92" class="edge"><title>M&#45;&gt;V:n</title>
<path fill="none" stroke="blue" stroke-dasharray="5,2" d="M1246.83,-546.052C1204.81,-538.275 1139.9,-525.994 1138,-524 1097.76,-481.686 1157.54,-437.865 1119,-394 1099.5,-371.803 1072.84,-399.553 1055,-376 1050.97,-370.686 1050.53,-365.944 1055,-361 1081.82,-331.351 1196.29,-356.279 1234,-343 1265.51,-331.904 1281.07,-331.367 1297,-302 1308.87,-280.118 1284.87,-268.265 1296,-246 1306.93,-224.136 1317.08,-221.506 1340,-213 1365.04,-203.704 1560.61,-220.583 1600.07,-202.544"/>
<polygon fill="blue" stroke="blue" points="1246.23,-549.502 1256.7,-547.875 1247.5,-542.618 1246.23,-549.502"/>
<polygon fill="blue" stroke="blue" points="1602.81,-204.733 1607,-195 1597.66,-199.998 1602.81,-204.733"/>
<text text-anchor="middle" x="1082" y="-364.8" font-family="Times,serif" font-size="14.00"> Excludes</text>
</g>
<!-- I&#45;&gt;G -->
<g id="edge49" class="edge"><title>I&#45;&gt;G:n</title>
<path fill="none" stroke="blue" stroke-dasharray="5,2" d="M1432.04,-279.431C1433.97,-300.128 1436.74,-332.715 1438,-361 1438.06,-362.235 1438.2,-449.061 1439,-450 1470.35,-486.644 1514.86,-431.181 1546,-468 1552.74,-475.974 1553.24,-483.969 1546,-491.5 1541.67,-496.01 1534.3,-499.282 1528.68,-499.301"/>
<polygon fill="blue" stroke="blue" points="1435.51,-278.882 1431.08,-269.258 1428.54,-279.545 1435.51,-278.882"/>
<polygon fill="blue" stroke="blue" points="1530.81,-496.51 1521,-492.5 1526.17,-501.75 1530.81,-496.51"/>
<text text-anchor="middle" x="1466" y="-364.8" font-family="Times,serif" font-size="14.00"> Excludes</text>
</g>
<!-- I&#45;&gt;J -->
<g id="edge80" class="edge"><title>I&#45;&gt;J:n</title>
<path fill="none" stroke="blue" stroke-dasharray="5,2" d="M1395.06,-246.168C1339.09,-227.885 1239.42,-187.183 1279,-139 1310.41,-100.768 1693.2,-99.6572 1739.44,-55.9938"/>
<polygon fill="blue" stroke="blue" points="1394.04,-249.516 1404.64,-249.215 1396.17,-242.846 1394.04,-249.516"/>
<polygon fill="blue" stroke="blue" points="1742.6,-57.5016 1744,-47 1736.35,-54.3349 1742.6,-57.5016"/>
<text text-anchor="middle" x="1306" y="-142.8" font-family="Times,serif" font-size="14.00"> Excludes</text>
</g>
<!-- I&#45;&gt;V -->
<g id="edge93" class="edge"><title>I&#45;&gt;V:n</title>
<path fill="none" stroke="blue" stroke-dasharray="5,2" d="M1423.29,-235.87C1422.02,-227.819 1422.5,-219.082 1428,-213 1452.2,-186.246 1578.47,-225.67 1602.9,-204.253"/>
<polygon fill="blue" stroke="blue" points="1419.94,-236.887 1425.7,-245.777 1426.74,-235.233 1419.94,-236.887"/>
<polygon fill="blue" stroke="blue" points="1606.15,-205.561 1607,-195 1599.75,-202.728 1606.15,-205.561"/>
<text text-anchor="middle" x="1455" y="-216.8" font-family="Times,serif" font-size="14.00"> Excludes</text>
</g>
<!-- N&#45;&gt;G -->
<g id="edge50" class="edge"><title>N&#45;&gt;G:n</title>
<path fill="none" stroke="blue" stroke-dasharray="5,2" d="M1581.17,-541.623C1558.55,-534.428 1532.91,-525.97 1531,-524 1522.99,-515.754 1521.37,-509.935 1521.06,-501.076"/>
<polygon fill="blue" stroke="blue" points="1580.33,-545.03 1590.92,-544.709 1582.44,-538.356 1580.33,-545.03"/>
<polygon fill="blue" stroke="blue" points="1524.56,-500.979 1521,-491 1517.56,-501.021 1524.56,-500.979"/>
<text text-anchor="middle" x="1558" y="-512.8" font-family="Times,serif" font-size="14.00"> Excludes</text>
</g>
<!-- N&#45;&gt;O -->
<g id="edge66" class="edge"><title>N&#45;&gt;O:n</title>
<path fill="none" stroke="blue" stroke-dasharray="5,2" d="M1609.3,-532.365C1606.49,-524.851 1602.97,-516.362 1599,-509 1588.42,-489.35 1585.03,-484.499 1570,-468 1561.72,-458.913 1554.14,-461.168 1549,-450 1546.21,-443.943 1544.74,-440.126 1549,-435 1577.03,-401.285 1606.15,-435.291 1646,-417 1659.22,-410.934 1688.54,-387.825 1697,-376 1703.74,-366.581 1707.09,-361.562 1708.36,-353.22"/>
<polygon fill="blue" stroke="blue" points="1606,-533.549 1612.64,-541.81 1612.6,-531.215 1606,-533.549"/>
<polygon fill="blue" stroke="blue" points="1711.87,-353.198 1709,-343 1704.88,-352.763 1711.87,-353.198"/>
<text text-anchor="middle" x="1576" y="-438.8" font-family="Times,serif" font-size="14.00"> Excludes</text>
</g>
<!-- N&#45;&gt;V -->
<g id="edge94" class="edge"><title>N&#45;&gt;V:n</title>
<path fill="none" stroke="blue" stroke-dasharray="5,2" d="M1581.02,-541.92C1551.7,-534.318 1541.52,-536.804 1518,-524 1509.15,-519.182 1510.12,-513.278 1501,-509 1453.76,-486.85 1435.18,-505.264 1385,-491 1339.98,-478.204 1319.87,-484.278 1288,-450 1270.1,-430.751 1287.15,-413.006 1269,-394 1253.84,-378.124 1235.38,-394.133 1223,-376 1219.24,-370.494 1218.55,-365.96 1223,-361 1247.94,-333.228 1355.7,-357.724 1390,-343 1425.35,-327.825 1426.18,-311.304 1456,-287 1466.06,-278.799 1470.2,-278.539 1479,-269 1499.23,-247.078 1491.23,-229.624 1516,-213 1546.76,-192.358 1595.7,-227.557 1605.33,-205.02"/>
<polygon fill="blue" stroke="blue" points="1580.2,-545.324 1590.77,-544.631 1582.07,-538.58 1580.2,-545.324"/>
<polygon fill="blue" stroke="blue" points="1608.8,-205.44 1607,-195 1601.9,-204.287 1608.8,-205.44"/>
<text text-anchor="middle" x="1250" y="-364.8" font-family="Times,serif" font-size="14.00"> Excludes</text>
</g>
<!-- P&#45;&gt;G -->
<g id="edge51" class="edge"><title>P&#45;&gt;G:n</title>
<path fill="none" stroke="blue" stroke-dasharray="5,2" d="M1881.72,-550.15C1843.09,-546.902 1779.62,-539.575 1727,-524 1711.55,-519.428 1709.55,-513.222 1694,-509 1677.9,-504.628 1560.67,-508.793 1528.91,-497.58"/>
<polygon fill="blue" stroke="blue" points="1881.68,-553.658 1891.93,-550.961 1882.24,-546.68 1881.68,-553.658"/>
<polygon fill="blue" stroke="blue" points="1530.93,-494.702 1521,-491 1526.45,-500.084 1530.93,-494.702"/>
<text text-anchor="middle" x="1754" y="-512.8" font-family="Times,serif" font-size="14.00"> Excludes</text>
</g>
<!-- P&#45;&gt;O -->
<g id="edge67" class="edge"><title>P&#45;&gt;O:n</title>
<path fill="none" stroke="blue" stroke-dasharray="5,2" d="M1937.02,-534.414C1943.42,-526.433 1947.58,-517.057 1942,-509 1938.32,-503.68 1839.07,-470.235 1833,-468 1810.84,-459.842 1801.52,-464.655 1783,-450 1764.49,-435.352 1739.33,-379.763 1725,-361 1721.35,-356.215 1716.74,-354.504 1713.41,-352.018"/>
<polygon fill="blue" stroke="blue" points="1934.37,-532.118 1930.13,-541.828 1939.5,-536.88 1934.37,-532.118"/>
<polygon fill="blue" stroke="blue" points="1716.54,-350.446 1709,-343 1710.25,-353.521 1716.54,-350.446"/>
<text text-anchor="middle" x="1810" y="-438.8" font-family="Times,serif" font-size="14.00"> Excludes</text>
</g>
<!-- P&#45;&gt;J -->
<g id="edge81" class="edge"><title>P&#45;&gt;J:n</title>
<path fill="none" stroke="blue" stroke-dasharray="5,2" d="M1952.42,-545.598C1958.61,-544.396 1964.99,-543.159 1971,-542 2012.77,-533.94 2026.51,-542.099 2065,-524 2086.19,-514.038 2131.9,-471.967 2140,-450 2142.31,-443.745 2141.8,-441.418 2140,-435 2134.23,-414.452 2127.7,-411.156 2115,-394 2108.63,-385.396 2105.54,-384.473 2099,-376 2094.1,-369.657 2094.85,-366.47 2089,-361 2069.73,-342.991 1999.23,-324.822 1986,-302 1965.07,-265.886 2024.5,-253.868 2016,-213 2004.65,-158.435 2005.69,-137.124 1966,-98 1938.9,-71.2886 1923.77,-74.7989 1887,-65 1859.68,-57.7186 1769.15,-74.2267 1748.31,-56.1593"/>
<polygon fill="blue" stroke="blue" points="1951.42,-542.227 1942.27,-547.571 1952.76,-549.098 1951.42,-542.227"/>
<polygon fill="blue" stroke="blue" points="1751.42,-54.561 1744,-47 1745.09,-57.539 1751.42,-54.561"/>
<text text-anchor="middle" x="2013" y="-290.8" font-family="Times,serif" font-size="14.00"> Excludes</text>
</g>
<!-- P&#45;&gt;V -->
<g id="edge95" class="edge"><title>P&#45;&gt;V:n</title>
<path fill="none" stroke="blue" stroke-dasharray="5,2" d="M1941.57,-534.875C1944.58,-531.615 1947.22,-527.971 1949,-524 1951.73,-517.917 1952.24,-514.826 1949,-509 1941.63,-495.743 1928.18,-503.773 1920,-491 1906.47,-469.881 1930.27,-453.191 1913,-435 1881.61,-401.931 1851.72,-439.39 1812,-417 1790.88,-405.092 1790.22,-395.644 1776,-376 1759.06,-352.598 1765.36,-338.294 1743,-320 1724.07,-304.512 1710.92,-316.195 1691,-302 1680.37,-294.427 1625.49,-231.451 1610.69,-204.649"/>
<polygon fill="blue" stroke="blue" points="1939.08,-532.407 1934.1,-541.756 1943.83,-537.556 1939.08,-532.407"/>
<polygon fill="blue" stroke="blue" points="1613.84,-203.093 1607,-195 1607.3,-205.591 1613.84,-203.093"/>
<text text-anchor="middle" x="1803" y="-364.8" font-family="Times,serif" font-size="14.00"> Excludes</text>
</g>
<!-- Q&#45;&gt;G -->
<g id="edge52" class="edge"><title>Q&#45;&gt;G:n</title>
<path fill="none" stroke="blue" stroke-dasharray="5,2" d="M1512.9,-542.13C1484.1,-535.991 1469,-544.155 1454,-524 1450.02,-518.651 1449.94,-514.29 1454,-509 1469.98,-488.164 1507.33,-512.121 1518.07,-500.652"/>
<polygon fill="blue" stroke="blue" points="1512.2,-545.562 1522.76,-544.679 1513.95,-538.785 1512.2,-545.562"/>
<polygon fill="blue" stroke="blue" points="1521.44,-501.586 1521,-491 1514.74,-499.549 1521.44,-501.586"/>
<text text-anchor="middle" x="1481" y="-512.8" font-family="Times,serif" font-size="14.00"> Excludes</text>
</g>
<!-- Q&#45;&gt;O -->
<g id="edge68" class="edge"><title>Q&#45;&gt;O:n</title>
<path fill="none" stroke="blue" stroke-dasharray="5,2" d="M1579.42,-535.755C1583.27,-532.381 1586.66,-528.47 1589,-524 1592.09,-518.092 1591.63,-515.124 1589,-509 1584.4,-498.314 1577.45,-499.933 1570,-491 1562.18,-481.628 1564.86,-475.186 1555,-468 1530.42,-450.098 1507.46,-474.163 1489,-450 1484.95,-444.702 1484.69,-440.087 1489,-435 1504.73,-416.435 1573.77,-424.237 1597,-417 1619.97,-409.844 1623.97,-403.669 1646,-394 1665.35,-385.508 1674.09,-389.906 1690,-376 1691.07,-375.065 1699.28,-361.444 1704.55,-351.965"/>
<polygon fill="blue" stroke="blue" points="1577.03,-533.171 1571.08,-541.936 1581.2,-538.797 1577.03,-533.171"/>
<polygon fill="blue" stroke="blue" points="1707.69,-353.514 1709,-343 1701.42,-350.402 1707.69,-353.514"/>
<text text-anchor="middle" x="1516" y="-438.8" font-family="Times,serif" font-size="14.00"> Excludes</text>
</g>
<!-- Q&#45;&gt;V -->
<g id="edge96" class="edge"><title>Q&#45;&gt;V:n</title>
<path fill="none" stroke="blue" stroke-dasharray="5,2" d="M1513.12,-541.881C1482.68,-533.619 1473.23,-533.966 1447,-524 1433.06,-518.706 1431.19,-513.569 1417,-509 1330.81,-481.249 1269.79,-526.908 1222,-450 1218.48,-444.337 1218.85,-440.878 1222,-435 1228.81,-422.284 1242.19,-429.716 1249,-417 1253.82,-407.987 1255.45,-401.927 1249,-394 1224.07,-363.381 1186.93,-406.619 1162,-376 1157.79,-370.83 1157.57,-365.984 1162,-361 1184.59,-335.574 1281.39,-352.664 1314,-343 1331.82,-337.72 1450.3,-281.555 1464,-269 1485.47,-249.33 1473.88,-229.306 1498,-213 1515.24,-201.346 1581.57,-214.156 1601.38,-203.377"/>
<polygon fill="blue" stroke="blue" points="1512.21,-545.261 1522.78,-544.598 1514.1,-538.522 1512.21,-545.261"/>
<polygon fill="blue" stroke="blue" points="1604.34,-205.255 1607,-195 1598.52,-201.356 1604.34,-205.255"/>
<text text-anchor="middle" x="1189" y="-364.8" font-family="Times,serif" font-size="14.00"> Excludes</text>
</g>
<!-- F&#45;&gt;G -->
<g id="edge53" class="edge"><title>F&#45;&gt;G:n</title>
<path fill="none" stroke="blue" stroke-dasharray="5,2" d="M1969.64,-545.256C1963.44,-544.092 1957.04,-542.956 1951,-542 1885.99,-531.712 1865.83,-546.562 1804,-524 1792.54,-519.817 1792.57,-512.88 1781,-509 1756.39,-500.747 1566.95,-516.098 1527.99,-498.501"/>
<polygon fill="blue" stroke="blue" points="1969.31,-548.756 1979.79,-547.218 1970.64,-541.883 1969.31,-548.756"/>
<polygon fill="blue" stroke="blue" points="1530.38,-495.93 1521,-491 1525.26,-500.702 1530.38,-495.93"/>
<text text-anchor="middle" x="1831" y="-512.8" font-family="Times,serif" font-size="14.00"> Excludes</text>
</g>
<!-- F&#45;&gt;O -->
<g id="edge69" class="edge"><title>F&#45;&gt;O:n</title>
<path fill="none" stroke="blue" stroke-dasharray="5,2" d="M1983.13,-535.351C1979.46,-531.85 1975.91,-528.003 1973,-524 1947.62,-489.056 1968.32,-461.209 1934,-435 1890.44,-401.737 1863.71,-435.183 1812,-417 1777.99,-405.039 1768.23,-400.743 1742,-376 1736.17,-370.502 1737.45,-366.877 1732,-361 1726.49,-355.049 1718.88,-354.576 1713.95,-351.889"/>
<polygon fill="blue" stroke="blue" points="1980.85,-538.001 1990.66,-541.992 1985.48,-532.752 1980.85,-538.001"/>
<polygon fill="blue" stroke="blue" points="1716.92,-350.033 1709,-343 1710.81,-353.439 1716.92,-350.033"/>
<text text-anchor="middle" x="1976" y="-438.8" font-family="Times,serif" font-size="14.00"> Excludes</text>
</g>
<!-- F&#45;&gt;J -->
<g id="edge82" class="edge"><title>F&#45;&gt;J:n</title>
<path fill="none" stroke="blue" stroke-dasharray="5,2" d="M2039.76,-541.641C2065.68,-531.988 2100.38,-515.556 2123,-491 2160.19,-450.636 2159.76,-430.263 2168,-376 2169,-369.409 2171.44,-366.711 2168,-361 2159.18,-346.352 2148.96,-351.277 2134,-343 2102.11,-325.361 2081.58,-333.346 2063,-302 2053.14,-285.364 2062,-277.838 2062,-258.5 2062,-258.5 2062,-258.5 2062,-108.5 2062,-42.494 1984.7,-78.0868 1920,-65 1903.29,-61.6202 1783.21,-65.3487 1751.6,-53.5793"/>
<polygon fill="blue" stroke="blue" points="2038.55,-538.359 2030.3,-545.012 2040.9,-544.953 2038.55,-538.359"/>
<polygon fill="blue" stroke="blue" points="1753.85,-50.896 1744,-47 1749.27,-56.1898 1753.85,-50.896"/>
<text text-anchor="middle" x="2090" y="-290.8" font-family="Times,serif" font-size="14.00"> Excludes</text>
</g>
<!-- F&#45;&gt;V -->
<g id="edge97" class="edge"><title>F&#45;&gt;V:n</title>
<path fill="none" stroke="blue" stroke-dasharray="5,2" d="M2038.71,-538.093C2044.55,-534.267 2050.01,-529.601 2054,-524 2068.72,-503.341 2047.62,-486.476 2065,-468 2086.71,-444.914 2114.62,-475.08 2134,-450 2138.08,-444.724 2138.21,-440.17 2134,-435 2109.07,-404.381 2082.62,-434.049 2047,-417 2011.69,-400.095 2014.53,-377.446 1979,-361 1938.02,-342.031 1922.62,-354.677 1879,-343 1849.8,-335.184 1844.22,-327.741 1815,-320 1770.08,-308.098 1746.8,-332.804 1712,-302 1681.05,-274.6 1715.2,-241.222 1685,-213 1662.25,-191.746 1619.59,-221.144 1609.29,-204.992"/>
<polygon fill="blue" stroke="blue" points="2036.94,-535.075 2030.03,-543.105 2040.44,-541.138 2036.94,-535.075"/>
<polygon fill="blue" stroke="blue" points="1612.64,-203.968 1607,-195 1605.82,-205.529 1612.64,-203.968"/>
<text text-anchor="middle" x="2029" y="-364.8" font-family="Times,serif" font-size="14.00"> Excludes</text>
</g>
<!-- F&#45;&gt;Y -->
<g id="edge37" class="edge"><title>F&#45;&gt;Y:n</title>
<path fill="none" stroke="red" d="M2030.17,-542.942C2044.06,-537.185 2059.4,-529.859 2064,-524 2079.73,-503.985 2057.66,-485.653 2076,-468 2109.48,-435.771 2149.1,-485.577 2179,-450 2183.29,-444.896 2183.27,-440.122 2179,-435 2153.31,-404.165 2093.7,-450.805 2082.75,-426.861"/>
<polygon fill="red" stroke="red" points="2086.19,-426.237 2081,-417 2079.3,-427.457 2086.19,-426.237"/>
<text text-anchor="middle" x="2100.5" y="-475.8" font-family="Times,serif" font-size="14.00">Requires</text>
</g>
<!-- T&#45;&gt;G -->
<g id="edge54" class="edge"><title>T&#45;&gt;G:n</title>
<path fill="none" stroke="blue" stroke-dasharray="5,2" d="M1350.33,-605.686C1357.07,-575.398 1370.87,-521.425 1386,-509 1406.37,-492.267 1493.69,-513.993 1515.86,-499.867"/>
<polygon fill="blue" stroke="blue" points="1346.87,-605.139 1348.18,-615.652 1353.71,-606.617 1346.87,-605.139"/>
<polygon fill="blue" stroke="blue" points="1519.02,-501.408 1521,-491 1512.96,-497.899 1519.02,-501.408"/>
<text text-anchor="middle" x="1395" y="-549.8" font-family="Times,serif" font-size="14.00"> Excludes</text>
</g>
<!-- T&#45;&gt;O -->
<g id="edge70" class="edge"><title>T&#45;&gt;O:n</title>
<path fill="none" stroke="blue" stroke-dasharray="5,2" d="M1345.17,-605.626C1345.27,-580.031 1349.18,-536.653 1372,-509 1409.5,-463.554 1429.4,-461.545 1482,-435 1506.22,-422.777 1570.88,-401.352 1597,-394 1634.59,-383.419 1650.65,-397.874 1683,-376 1689.64,-371.512 1688.1,-367.343 1693,-361 1696.68,-356.234 1701.28,-354.521 1704.6,-352.029"/>
<polygon fill="blue" stroke="blue" points="1341.68,-605.768 1345.33,-615.712 1348.67,-605.658 1341.68,-605.768"/>
<polygon fill="blue" stroke="blue" points="1707.77,-353.523 1709,-343 1701.48,-350.459 1707.77,-353.523"/>
<text text-anchor="middle" x="1444" y="-475.8" font-family="Times,serif" font-size="14.00"> Excludes</text>
</g>
<!-- T&#45;&gt;J -->
<g id="edge83" class="edge"><title>T&#45;&gt;J:n</title>
<path fill="none" stroke="blue" stroke-dasharray="5,2" d="M1310.55,-627.105C1241.8,-626.172 1090.59,-613.432 1016,-524 950.566,-445.543 991,-397.662 991,-295.5 991,-295.5 991,-295.5 991,-108.5 991,-71.1131 1027.12,-75.5099 1063,-65 1079.88,-60.0545 1653.98,-65.1025 1734.62,-50.6311"/>
<polygon fill="blue" stroke="blue" points="1310.83,-630.606 1320.85,-627.163 1310.87,-623.607 1310.83,-630.606"/>
<polygon fill="blue" stroke="blue" points="1735.94,-53.8752 1744,-47 1733.41,-47.3475 1735.94,-53.8752"/>
<text text-anchor="middle" x="1018" y="-327.8" font-family="Times,serif" font-size="14.00"> Excludes</text>
</g>
<!-- T&#45;&gt;V -->
<g id="edge98" class="edge"><title>T&#45;&gt;V:n</title>
<path fill="none" stroke="blue" stroke-dasharray="5,2" d="M1344.92,-605.511C1342.66,-585.608 1335.91,-556.635 1316,-542 1286.82,-520.547 1178.16,-550.99 1154,-524 1115.44,-480.916 1190.39,-442.555 1159,-394 1148.41,-377.629 1129.59,-392.371 1119,-376 1115.38,-370.402 1114.58,-365.994 1119,-361 1140.66,-336.511 1235.8,-357.704 1265,-343 1287.46,-331.688 1289.7,-322.688 1304,-302 1319.71,-279.271 1310.6,-264.634 1331,-246 1361.84,-217.83 1378.3,-222.405 1419,-213 1436.81,-208.884 1566.25,-214.203 1599.32,-201.773"/>
<polygon fill="blue" stroke="blue" points="1341.46,-606.075 1345.78,-615.747 1348.43,-605.488 1341.46,-606.075"/>
<polygon fill="blue" stroke="blue" points="1601.82,-204.24 1607,-195 1597.19,-198.99 1601.82,-204.24"/>
<text text-anchor="middle" x="1194" y="-401.8" font-family="Times,serif" font-size="14.00"> Excludes</text>
</g>
<!-- T&#45;&gt;M -->
<g id="edge41" class="edge"><title>T&#45;&gt;M:n</title>
<path fill="none" stroke="red" d="M1320.71,-621.044C1307.9,-616.92 1293.33,-609.862 1285,-598 1278.78,-589.149 1280.08,-583.443 1281.21,-575.204"/>
<polygon fill="red" stroke="red" points="1284.71,-575.241 1282,-565 1277.74,-574.699 1284.71,-575.241"/>
<text text-anchor="middle" x="1309.5" y="-586.8" font-family="Times,serif" font-size="14.00">Requires</text>
</g>
<!-- T&#45;&gt;P -->
<g id="edge42" class="edge"><title>T&#45;&gt;P:n</title>
<path fill="none" stroke="red" d="M1371.27,-624.451C1472.28,-616.189 1844.59,-584.996 1907.84,-569.059"/>
<polygon fill="red" stroke="red" points="1909.28,-572.251 1917,-565 1906.44,-565.851 1909.28,-572.251"/>
<text text-anchor="middle" x="1832.5" y="-586.8" font-family="Times,serif" font-size="14.00">Requires</text>
</g>
<!-- S&#45;&gt;G -->
<g id="edge55" class="edge"><title>S&#45;&gt;G:n</title>
<path fill="none" stroke="blue" stroke-dasharray="5,2" d="M2037.98,-542.063C1983.36,-530.325 1967.19,-534.335 1916,-524 1889.9,-518.731 1884.31,-513.064 1858,-509 1841.32,-506.424 1581.47,-509.094 1529.87,-495.966"/>
<polygon fill="blue" stroke="blue" points="2037.34,-545.506 2047.87,-544.264 2038.87,-538.674 2037.34,-545.506"/>
<polygon fill="blue" stroke="blue" points="1531.44,-492.832 1521,-491 1528.02,-498.939 1531.44,-492.832"/>
<text text-anchor="middle" x="1943" y="-512.8" font-family="Times,serif" font-size="14.00"> Excludes</text>
</g>
<!-- S&#45;&gt;O -->
<g id="edge71" class="edge"><title>S&#45;&gt;O:n</title>
<path fill="none" stroke="blue" stroke-dasharray="5,2" d="M2065.21,-532.681C2060.99,-524.265 2054.97,-515.025 2047,-509 2022.4,-490.407 1998.76,-515.468 1980,-491 1973.78,-482.888 1975.18,-477.013 1980,-468 1986.81,-455.284 2000.19,-462.716 2007,-450 2010.15,-444.122 2011.2,-440.179 2007,-435 1982.69,-404.999 1957.08,-433.146 1922,-417 1906.74,-409.975 1907.54,-400.382 1892,-394 1832.74,-369.667 1803.48,-409.7 1749,-376 1742.19,-371.785 1744.8,-366.529 1739,-361 1731.26,-353.623 1719.98,-355.231 1713.69,-351.904"/>
<polygon fill="blue" stroke="blue" points="2062.08,-534.247 2069.36,-541.942 2068.47,-531.385 2062.08,-534.247"/>
<polygon fill="blue" stroke="blue" points="1716.76,-350.215 1709,-343 1710.57,-353.479 1716.76,-350.215"/>
<text text-anchor="middle" x="2037" y="-438.8" font-family="Times,serif" font-size="14.00"> Excludes</text>
</g>
<!-- S&#45;&gt;J -->
<g id="edge84" class="edge"><title>S&#45;&gt;J:n</title>
<path fill="none" stroke="blue" stroke-dasharray="5,2" d="M2098.58,-536.151C2103.6,-532.436 2108.65,-528.305 2113,-524 2140.52,-496.751 2144.66,-485.972 2159,-450 2173.83,-412.805 2182.49,-399.9 2173,-361 2165.22,-329.136 2139,-328.299 2139,-295.5 2139,-295.5 2139,-295.5 2139,-108.5 2139,-40.3661 2059.03,-77.2034 1992,-65 1967.69,-60.5735 1788.42,-71.7705 1750.88,-54.4057"/>
<polygon fill="blue" stroke="blue" points="2096.46,-533.361 2090.29,-541.971 2100.49,-539.09 2096.46,-533.361"/>
<polygon fill="blue" stroke="blue" points="1753.37,-51.9423 1744,-47 1748.24,-56.7077 1753.37,-51.9423"/>
<text text-anchor="middle" x="2166" y="-290.8" font-family="Times,serif" font-size="14.00"> Excludes</text>
</g>
<!-- S&#45;&gt;V -->
<g id="edge99" class="edge"><title>S&#45;&gt;V:n</title>
<path fill="none" stroke="blue" stroke-dasharray="5,2" d="M2089.96,-534.284C2107.56,-516.045 2136.46,-487.902 2165,-468 2179.35,-457.994 2190.89,-464.932 2200,-450 2203.47,-444.309 2203.47,-440.691 2200,-435 2190.89,-420.068 2180,-425.993 2165,-417 2127.46,-394.5 2123.41,-380.039 2084,-361 2002.85,-321.795 1968.38,-346.488 1890,-302 1888.4,-301.092 1793.68,-213.745 1792,-213 1775.55,-205.711 1647.38,-213.134 1614.61,-201.517"/>
<polygon fill="blue" stroke="blue" points="2087.07,-532.245 2082.71,-541.902 2092.14,-537.071 2087.07,-532.245"/>
<polygon fill="blue" stroke="blue" points="1616.87,-198.846 1607,-195 1612.32,-204.163 1616.87,-198.846"/>
<text text-anchor="middle" x="2137" y="-364.8" font-family="Times,serif" font-size="14.00"> Excludes</text>
</g>
<!-- H&#45;&gt;G -->
<g id="edge56" class="edge"><title>H&#45;&gt;G:n</title>
<path fill="none" stroke="blue" stroke-dasharray="5,2" d="M1849.74,-618.653C1809.13,-608.927 1740.93,-590.465 1686,-565 1668.77,-557.014 1667.16,-550.128 1650,-542 1626.76,-530.989 1615.48,-539.556 1595,-524 1588.62,-519.154 1591.48,-513.711 1585,-509 1564.83,-494.343 1533.14,-512.641 1523.72,-500.968"/>
<polygon fill="blue" stroke="blue" points="1849.16,-622.112 1859.7,-620.994 1850.76,-615.298 1849.16,-622.112"/>
<polygon fill="blue" stroke="blue" points="1527.01,-499.725 1521,-491 1520.26,-501.569 1527.01,-499.725"/>
<text text-anchor="middle" x="1713" y="-549.8" font-family="Times,serif" font-size="14.00"> Excludes</text>
</g>
<!-- H&#45;&gt;O -->
<g id="edge72" class="edge"><title>H&#45;&gt;O:n</title>
<path fill="none" stroke="blue" stroke-dasharray="5,2" d="M1878.2,-606.245C1873.35,-587.766 1869.77,-560.586 1883,-542 1897.19,-522.078 1920.81,-543.922 1935,-524 1938.87,-518.569 1939.44,-513.971 1935,-509 1911.16,-482.323 1802.69,-513.662 1775,-491 1754.77,-474.442 1769.6,-457.907 1757,-435 1751.98,-425.876 1747.51,-425.839 1742,-417 1741.94,-416.907 1722.03,-372.328 1713.17,-352.415"/>
<polygon fill="blue" stroke="blue" points="1874.89,-607.394 1881.08,-615.988 1881.6,-605.406 1874.89,-607.394"/>
<polygon fill="blue" stroke="blue" points="1716.25,-350.725 1709,-343 1709.85,-353.561 1716.25,-350.725"/>
<text text-anchor="middle" x="1802" y="-475.8" font-family="Times,serif" font-size="14.00"> Excludes</text>
</g>
<!-- H&#45;&gt;J -->
<g id="edge85" class="edge"><title>H&#45;&gt;J:n</title>
<path fill="none" stroke="blue" stroke-dasharray="5,2" d="M1920.23,-626.891C1978.06,-625.915 2094.68,-617.015 2175,-565 2209.17,-542.869 2209.06,-526.499 2229,-491 2258.14,-439.12 2290.32,-412.779 2261,-361 2253.34,-347.469 2238.66,-356.531 2231,-343 2225.96,-334.105 2225.45,-328.584 2231,-320 2241.59,-303.629 2260.41,-318.371 2271,-302 2274.62,-296.402 2273.61,-293.135 2271,-287 2254.58,-248.384 2203,-263.462 2203,-221.5 2203,-221.5 2203,-221.5 2203,-108.5 2203,-45.0389 2129.41,-76.5249 2067,-65 2051.12,-62.0676 1803.05,-64.382 1752.83,-51.8487"/>
<polygon fill="blue" stroke="blue" points="1920.11,-623.391 1910.14,-626.989 1920.18,-630.391 1920.11,-623.391"/>
<polygon fill="blue" stroke="blue" points="1754.45,-48.7468 1744,-47 1751.08,-54.8822 1754.45,-48.7468"/>
<text text-anchor="middle" x="2258" y="-327.8" font-family="Times,serif" font-size="14.00"> Excludes</text>
</g>
<!-- H&#45;&gt;V -->
<g id="edge100" class="edge"><title>H&#45;&gt;V:n</title>
<path fill="none" stroke="blue" stroke-dasharray="5,2" d="M1919.82,-619.296C1931.6,-615.076 1943.63,-608.431 1951,-598 1973.87,-565.648 1964.89,-547.607 1956,-509 1951.9,-491.179 1931.7,-449.057 1920,-435 1891.74,-401.041 1870.49,-407.972 1840,-376 1834.47,-370.202 1835.88,-366.445 1830,-361 1802.7,-335.71 1791.22,-334.625 1757,-320 1731.79,-309.225 1720,-318.36 1698,-302 1691.57,-297.219 1692.74,-293.461 1688,-287 1674.17,-268.138 1670.06,-263.901 1655,-246 1642.43,-231.058 1639.55,-227.062 1626,-213 1621.21,-208.026 1615.41,-206.714 1611.49,-204.033"/>
<polygon fill="blue" stroke="blue" points="1918.61,-616.006 1910.09,-622.301 1920.68,-622.695 1918.61,-616.006"/>
<polygon fill="blue" stroke="blue" points="1614.58,-202.399 1607,-195 1608.31,-205.513 1614.58,-202.399"/>
<text text-anchor="middle" x="1929" y="-401.8" font-family="Times,serif" font-size="14.00"> Excludes</text>
</g>
<!-- H&#45;&gt;P -->
<g id="edge38" class="edge"><title>H&#45;&gt;P:n</title>
<path fill="none" stroke="red" d="M1886.59,-615.848C1888.32,-606.627 1891.72,-593.205 1898,-583 1901.52,-577.272 1907.32,-576.039 1911.59,-573.77"/>
<polygon fill="red" stroke="red" points="1914.73,-575.348 1917,-565 1908.77,-571.673 1914.73,-575.348"/>
<text text-anchor="middle" x="1922.5" y="-586.8" font-family="Times,serif" font-size="14.00">Requires</text>
</g>
<!-- E&#45;&gt;G -->
<g id="edge57" class="edge"><title>E&#45;&gt;G:n</title>
<path fill="none" stroke="blue" stroke-dasharray="5,2" d="M1445.15,-543.176C1422.39,-536.735 1396.29,-528.54 1393,-524 1389.09,-518.602 1388.63,-514.032 1393,-509 1409.34,-490.2 1493.6,-512.071 1515.69,-499.48"/>
<polygon fill="blue" stroke="blue" points="1444.38,-546.594 1454.95,-545.902 1446.26,-539.85 1444.38,-546.594"/>
<polygon fill="blue" stroke="blue" points="1518.66,-501.333 1521,-491 1512.73,-497.619 1518.66,-501.333"/>
<text text-anchor="middle" x="1420" y="-512.8" font-family="Times,serif" font-size="14.00"> Excludes</text>
</g>
<!-- E&#45;&gt;O -->
<g id="edge73" class="edge"><title>E&#45;&gt;O:n</title>
<path fill="none" stroke="blue" stroke-dasharray="5,2" d="M1514.98,-542.115C1549.57,-534.68 1564.06,-543.191 1589,-524 1624.62,-496.593 1605.73,-467.274 1637,-435 1648.09,-423.559 1655.69,-427.119 1668,-417 1686.73,-401.599 1693.77,-397.987 1704,-376 1708.6,-366.123 1709.14,-360.956 1709.1,-353.033"/>
<polygon fill="blue" stroke="blue" points="1514.07,-538.733 1505.2,-544.522 1515.75,-545.53 1514.07,-538.733"/>
<polygon fill="blue" stroke="blue" points="1712.6,-352.964 1709,-343 1705.6,-353.035 1712.6,-352.964"/>
<text text-anchor="middle" x="1664" y="-438.8" font-family="Times,serif" font-size="14.00"> Excludes</text>
</g>
<!-- E&#45;&gt;J -->
<g id="edge86" class="edge"><title>E&#45;&gt;J:n</title>
<path fill="none" stroke="blue" stroke-dasharray="5,2" d="M1444.6,-545.508C1438.41,-544.316 1432.02,-543.106 1426,-542 1379.86,-533.523 1361.31,-549.593 1322,-524 1315.29,-519.629 1318.6,-513.538 1312,-509 1281.96,-488.36 1264.11,-508.239 1232,-491 1166.92,-456.058 1140.99,-443.943 1112,-376 1109.38,-369.868 1107.84,-366.211 1112,-361 1134.46,-332.85 1161.82,-364.096 1191,-343 1226.55,-317.302 1242,-302.366 1242,-258.5 1242,-258.5 1242,-258.5 1242,-108.5 1242,-82.5428 1670.44,-76.0379 1735.71,-53.0441"/>
<polygon fill="blue" stroke="blue" points="1444.26,-549.008 1454.75,-547.478 1445.6,-542.136 1444.26,-549.008"/>
<polygon fill="blue" stroke="blue" points="1737.98,-55.718 1744,-47 1733.86,-50.0607 1737.98,-55.718"/>
<text text-anchor="middle" x="1266" y="-290.8" font-family="Times,serif" font-size="14.00"> Excludes</text>
</g>
<!-- E&#45;&gt;V -->
<g id="edge101" class="edge"><title>E&#45;&gt;V:n</title>
<path fill="none" stroke="blue" stroke-dasharray="5,2" d="M1444.79,-544.149C1368.41,-525.14 1196.35,-477.032 1222,-435 1231.11,-420.068 1243.83,-428.517 1257,-417 1279.83,-397.03 1270.27,-377.065 1296,-361 1340.25,-333.366 1361.3,-355.292 1412,-343 1468,-329.423 1485.14,-330.883 1535,-302 1554.07,-290.955 1558.8,-286.646 1572,-269 1576.4,-263.11 1596.57,-224.309 1604.13,-204.863"/>
<polygon fill="blue" stroke="blue" points="1444.35,-547.646 1454.9,-546.634 1446.02,-540.848 1444.35,-547.646"/>
<polygon fill="blue" stroke="blue" points="1607.56,-205.58 1607,-195 1600.84,-203.623 1607.56,-205.58"/>
<text text-anchor="middle" x="1323" y="-364.8" font-family="Times,serif" font-size="14.00"> Excludes</text>
</g>
<!-- R&#45;&gt;G -->
<g id="edge58" class="edge"><title>R&#45;&gt;G:n</title>
<path fill="none" stroke="blue" stroke-dasharray="5,2" d="M1799.02,-268.52C1824.68,-275.959 1855.48,-285.127 1858,-287 1864.43,-291.776 1863.31,-295.503 1868,-302 1887.46,-328.963 1900.5,-330.613 1914,-361 1935.08,-408.457 1933.05,-443.283 1927,-450 1914.06,-464.355 1773.21,-465.915 1754,-468 1661.51,-478.036 1638.76,-484.414 1546,-491.5 1540.98,-491.884 1535.37,-494.408 1530.74,-496.02"/>
<polygon fill="blue" stroke="blue" points="1799.73,-265.081 1789.15,-265.669 1797.78,-271.806 1799.73,-265.081"/>
<polygon fill="blue" stroke="blue" points="1531.59,-492.606 1521,-492.5 1529.22,-499.189 1531.59,-492.606"/>
<text text-anchor="middle" x="1948" y="-364.8" font-family="Times,serif" font-size="14.00"> Excludes</text>
</g>
<!-- R&#45;&gt;J -->
<g id="edge87" class="edge"><title>R&#45;&gt;J:n</title>
<path fill="none" stroke="blue" stroke-dasharray="5,2" d="M1788.25,-238.996C1791.35,-235.698 1794.1,-232.01 1796,-228 1827,-162.469 1845,-123.365 1802,-65 1788.87,-47.1743 1758.25,-64.6438 1747.67,-56.5987"/>
<polygon fill="blue" stroke="blue" points="1785.65,-236.634 1780.61,-245.954 1790.36,-241.809 1785.65,-236.634"/>
<polygon fill="blue" stroke="blue" points="1750.84,-55.0887 1744,-47 1744.31,-57.5904 1750.84,-55.0887"/>
<text text-anchor="middle" x="1855" y="-142.8" font-family="Times,serif" font-size="14.00"> Excludes</text>
</g>
<!-- R&#45;&gt;V -->
<g id="edge102" class="edge"><title>R&#45;&gt;V:n</title>
<path fill="none" stroke="blue" stroke-dasharray="5,2" d="M1748.12,-238.183C1739.28,-229.175 1727.54,-218.991 1715,-213 1696.39,-204.111 1631.73,-214.841 1612.46,-203.497"/>
<polygon fill="blue" stroke="blue" points="1745.71,-240.732 1755.09,-245.662 1750.83,-235.96 1745.71,-240.732"/>
<polygon fill="blue" stroke="blue" points="1615.35,-201.521 1607,-195 1609.46,-205.305 1615.35,-201.521"/>
<text text-anchor="middle" x="1765" y="-216.8" font-family="Times,serif" font-size="14.00"> Excludes</text>
</g>
<!-- Abstract -->
<g id="node31" class="node"><title>Abstract</title>
<polygon fill="#ffff00" stroke="red" points="941,-779 879,-779 879,-756 941,-756 941,-779"/>
<text text-anchor="middle" x="910" y="-763.8" font-family="Times,serif" font-size="14.00">Abstract</text>
</g>
<!-- Concrete -->
<g id="node32" class="node"><title>Concrete</title>
<polygon fill="#ffff00" stroke="blue" points="860.5,-779 795.5,-779 795.5,-756 860.5,-756 860.5,-779"/>
<text text-anchor="middle" x="828" y="-763.8" font-family="Times,serif" font-size="14.00">Concrete</text>
</g>
<!--  &#160;&#160;&#160;&#160;&#160;&#160;&#160;&#160;&#160;&#160;&#160;&#160;&#160;&#160;&#160; -->
<g id="node33" class="node"><title> &#160;&#160;&#160;&#160;&#160;&#160;&#160;&#160;&#160;&#160;&#160;&#160;&#160;&#160;&#160;</title>
<polygon fill="#ffff00" stroke="blue" points="777.5,-779 700.5,-779 700.5,-756 777.5,-756 777.5,-779"/>
<text text-anchor="middle" x="739" y="-763.8" font-family="Times,serif" font-size="14.00"> &#160;&#160;&#160;&#160;&#160;&#160;&#160;&#160;&#160;&#160;&#160;&#160;&#160;&#160;&#160;</text>
</g>
<!-- Mandatory -->
<g id="node34" class="node"><title>Mandatory</title>
<polygon fill="#ffff00" stroke="blue" points="777.5,-705 700.5,-705 700.5,-682 777.5,-682 777.5,-705"/>
<text text-anchor="middle" x="739" y="-689.8" font-family="Times,serif" font-size="14.00">Mandatory</text>
</g>
<!--  &#160;&#160;&#160;&#160;&#160;&#160;&#160;&#160;&#160;&#160;&#160;&#160;&#160;&#160;&#160;&#45;&gt;Mandatory -->
<g id="edge103" class="edge"><title> &#160;&#160;&#160;&#160;&#160;&#160;&#160;&#160;&#160;&#160;&#160;&#160;&#160;&#160;&#160;&#45;&gt;Mandatory:n</title>
<path fill="none" stroke="black" d="M739,-755.613C739,-745.146 739,-728.656 739,-713.046"/>
<ellipse fill="black" stroke="black" cx="739" cy="-709" rx="4" ry="4"/>
</g>
<!--  &#160;&#160;&#160;&#160;&#160;&#160;&#160;&#160;&#160;&#160;&#160;&#160; -->
<g id="node35" class="node"><title> &#160;&#160;&#160;&#160;&#160;&#160;&#160;&#160;&#160;&#160;&#160;&#160;</title>
<polygon fill="#ffff00" stroke="blue" points="682.5,-779 617.5,-779 617.5,-756 682.5,-756 682.5,-779"/>
<text text-anchor="middle" x="650" y="-763.8" font-family="Times,serif" font-size="14.00"> &#160;&#160;&#160;&#160;&#160;&#160;&#160;&#160;&#160;&#160;&#160;&#160;</text>
</g>
<!-- Optional -->
<g id="node36" class="node"><title>Optional</title>
<polygon fill="#ffff00" stroke="blue" points="682,-705 618,-705 618,-682 682,-682 682,-705"/>
<text text-anchor="middle" x="650" y="-689.8" font-family="Times,serif" font-size="14.00">Optional</text>
</g>
<!--  &#160;&#160;&#160;&#160;&#160;&#160;&#160;&#160;&#160;&#160;&#160;&#160;&#45;&gt;Optional -->
<g id="edge104" class="edge"><title> &#160;&#160;&#160;&#160;&#160;&#160;&#160;&#160;&#160;&#160;&#160;&#160;&#45;&gt;Optional:n</title>
<path fill="none" stroke="black" d="M650,-755.613C650,-745.146 650,-728.656 650,-713.046"/>
<ellipse fill="none" stroke="black" cx="650" cy="-709" rx="4" ry="4"/>
</g>
<!-- F1  -->
<g id="node37" class="node"><title>F1 </title>
<polygon fill="#ffff00" stroke="blue" points="564,-779 514,-779 514,-756 564,-756 564,-779"/>
<text text-anchor="middle" x="539" y="-763.8" font-family="Times,serif" font-size="14.00">F1 </text>
</g>
<!-- F2  -->
<g id="node38" class="node"><title>F2 </title>
<polygon fill="#ffff00" stroke="blue" points="564,-705 514,-705 514,-682 564,-682 564,-705"/>
<text text-anchor="middle" x="539" y="-689.8" font-family="Times,serif" font-size="14.00">F2 </text>
</g>
<!-- F1 &#45;&gt;F2  -->
<g id="edge105" class="edge"><title>F1 &#45;&gt;F2 </title>
<path fill="none" stroke="blue" stroke-dasharray="5,2" d="M539,-745.735C539,-736.2 539,-724.917 539,-715.369"/>
<polygon fill="blue" stroke="blue" points="535.5,-745.876 539,-755.876 542.5,-745.876 535.5,-745.876"/>
<polygon fill="blue" stroke="blue" points="542.5,-715.167 539,-705.167 535.5,-715.167 542.5,-715.167"/>
<text text-anchor="middle" x="566" y="-726.8" font-family="Times,serif" font-size="14.00"> Excludes</text>
</g>
<!-- F1 -->
<g id="node39" class="node"><title>F1</title>
<polygon fill="#ffff00" stroke="blue" points="496,-779 446,-779 446,-756 496,-756 496,-779"/>
<text text-anchor="middle" x="471" y="-763.8" font-family="Times,serif" font-size="14.00">F1</text>
</g>
<!-- F2 -->
<g id="node40" class="node"><title>F2</title>
<polygon fill="#ffff00" stroke="blue" points="496,-705 446,-705 446,-682 496,-682 496,-705"/>
<text text-anchor="middle" x="471" y="-689.8" font-family="Times,serif" font-size="14.00">F2</text>
</g>
<!-- F1&#45;&gt;F2 -->
<g id="edge106" class="edge"><title>F1&#45;&gt;F2</title>
<path fill="none" stroke="red" d="M471,-755.876C471,-745.241 471,-728.595 471,-715.32"/>
<polygon fill="red" stroke="red" points="474.5,-715.167 471,-705.167 467.5,-715.167 474.5,-715.167"/>
<text text-anchor="middle" x="497" y="-726.8" font-family="Times,serif" font-size="14.00"> Requires</text>
</g>
<!-- Or -->
<g id="node41" class="node"><title>Or</title>
<polygon fill="#ffff00" stroke="blue" points="388,-779 338,-779 338,-756 388,-756 388,-779"/>
<text text-anchor="middle" x="363" y="-763.8" font-family="Times,serif" font-size="14.00">Or</text>
</g>
<!--  &#160;&#160; -->
<g id="node42" class="node"><title> &#160;&#160;</title>
<polygon fill="#ffff00" stroke="blue" points="354,-705 304,-705 304,-682 354,-682 354,-705"/>
<text text-anchor="middle" x="329" y="-689.8" font-family="Times,serif" font-size="14.00"> &#160;&#160;</text>
</g>
<!-- Or&#45;&gt; &#160;&#160; -->
<g id="edge107" class="edge"><title>Or&#45;&gt; &#160;&#160;:n</title>
<path fill="none" stroke="black" d="M352.614,-755.708C344.646,-746.491 334.382,-732.314 330.541,-716.934"/>
<polygon fill="none" stroke="black" points="330.537,-716.901 325.801,-711.463 329,-705 333.735,-710.438 330.537,-716.901"/>
</g>
<!--  &#160;&#160;&#160;&#160; -->
<g id="node43" class="node"><title> &#160;&#160;&#160;&#160;</title>
<polygon fill="#ffff00" stroke="blue" points="422,-705 372,-705 372,-682 422,-682 422,-705"/>
<text text-anchor="middle" x="397" y="-689.8" font-family="Times,serif" font-size="14.00"> &#160;&#160;&#160;&#160;</text>
</g>
<!-- Or&#45;&gt; &#160;&#160;&#160;&#160; -->
<g id="edge108" class="edge"><title>Or&#45;&gt; &#160;&#160;&#160;&#160;:n</title>
<path fill="none" stroke="black" d="M373.386,-755.708C381.354,-746.491 391.618,-732.314 395.459,-716.934"/>
<polygon fill="none" stroke="black" points="395.463,-716.901 392.265,-710.438 397,-705 400.199,-711.463 395.463,-716.901"/>
</g>
<!-- Xor -->
<g id="node44" class="node"><title>Xor</title>
<polygon fill="#ffff00" stroke="blue" points="245,-779 195,-779 195,-756 245,-756 245,-779"/>
<text text-anchor="middle" x="220" y="-763.8" font-family="Times,serif" font-size="14.00">Xor</text>
</g>
<!--  &#160;&#160;&#160;&#160;&#160; -->
<g id="node45" class="node"><title> &#160;&#160;&#160;&#160;&#160;</title>
<polygon fill="#ffff00" stroke="blue" points="218,-705 168,-705 168,-682 218,-682 218,-705"/>
<text text-anchor="middle" x="193" y="-689.8" font-family="Times,serif" font-size="14.00"> &#160;&#160;&#160;&#160;&#160;</text>
</g>
<!-- Xor&#45;&gt; &#160;&#160;&#160;&#160;&#160; -->
<g id="edge109" class="edge"><title>Xor&#45;&gt; &#160;&#160;&#160;&#160;&#160;:n</title>
<path fill="none" stroke="black" d="M212.045,-755.79C206.57,-747.674 199.621,-735.75 195.813,-722.876"/>
<polygon fill="black" stroke="black" points="196.457,-704.456 194.555,-714.878 189.543,-705.544 196.457,-704.456"/>
<ellipse fill="none" stroke="black" cx="195.176" cy="-718.83" rx="4" ry="4"/>
</g>
<!--  &#160;&#160;&#160;&#160;&#160;&#160; -->
<g id="node46" class="node"><title> &#160;&#160;&#160;&#160;&#160;&#160;</title>
<polygon fill="#ffff00" stroke="blue" points="286,-705 236,-705 236,-682 286,-682 286,-705"/>
<text text-anchor="middle" x="261" y="-689.8" font-family="Times,serif" font-size="14.00"> &#160;&#160;&#160;&#160;&#160;&#160;</text>
</g>
<!-- Xor&#45;&gt; &#160;&#160;&#160;&#160;&#160;&#160; -->
<g id="edge110" class="edge"><title>Xor&#45;&gt; &#160;&#160;&#160;&#160;&#160;&#160;:n</title>
<path fill="none" stroke="black" d="M232.973,-755.703C241.418,-747.771 251.844,-736.077 257.289,-722.696"/>
<polygon fill="black" stroke="black" points="264.425,-705.718 258.948,-714.787 257.575,-704.282 264.425,-705.718"/>
<ellipse fill="none" stroke="black" cx="258.127" cy="-718.702" rx="4" ry="4"/>
</g>
<!-- And -->
<g id="node47" class="node"><title>And</title>
<polygon fill="#ffff00" stroke="blue" points="99,-779 49,-779 49,-756 99,-756 99,-779"/>
<text text-anchor="middle" x="74" y="-763.8" font-family="Times,serif" font-size="14.00">And</text>
</g>
<!--  &#160;&#160;&#160;&#160;&#160;&#160;&#160; -->
<g id="node48" class="node"><title> &#160;&#160;&#160;&#160;&#160;&#160;&#160;</title>
<polygon fill="#ffff00" stroke="blue" points="82,-705 32,-705 32,-682 82,-682 82,-705"/>
<text text-anchor="middle" x="57" y="-689.8" font-family="Times,serif" font-size="14.00"> &#160;&#160;&#160;&#160;&#160;&#160;&#160;</text>
</g>
<!-- And&#45;&gt; &#160;&#160;&#160;&#160;&#160;&#160;&#160; -->
<g id="edge111" class="edge"><title>And&#45;&gt; &#160;&#160;&#160;&#160;&#160;&#160;&#160;:n</title>
<path fill="none" stroke="black" d="M69.174,-755.859C65.0511,-745.957 59.5003,-730.451 57.6386,-715.047"/>
<polygon fill="black" stroke="black" points="53.0081,-705.254 60.9919,-704.746 61.4995,-712.73 53.5156,-713.238 53.0081,-705.254"/>
<polyline fill="none" stroke="black" points="57.5075,-712.984 57.6344,-714.98 "/>
</g>
<!--  &#160;&#160;&#160;&#160;&#160;&#160;&#160;&#160; -->
<g id="node49" class="node"><title> &#160;&#160;&#160;&#160;&#160;&#160;&#160;&#160;</title>
<polygon fill="#ffff00" stroke="blue" points="150,-705 100,-705 100,-682 150,-682 150,-705"/>
<text text-anchor="middle" x="125" y="-689.8" font-family="Times,serif" font-size="14.00"> &#160;&#160;&#160;&#160;&#160;&#160;&#160;&#160;</text>
</g>
<!-- And&#45;&gt; &#160;&#160;&#160;&#160;&#160;&#160;&#160;&#160; -->
<g id="edge112" class="edge"><title>And&#45;&gt; &#160;&#160;&#160;&#160;&#160;&#160;&#160;&#160;:n</title>
<path fill="none" stroke="black" d="M90.6993,-755.998C103.249,-746.892 119.04,-732.448 123.669,-714.993"/>
<polygon fill="black" stroke="black" points="121.035,-704.472 128.965,-705.528 127.908,-713.458 119.978,-712.402 121.035,-704.472"/>
<polyline fill="none" stroke="black" points="123.943,-712.93 123.679,-714.912 "/>
</g>
</g>
</svg>
