<?xml version="1.0" encoding="UTF-8" standalone="no"?>
<!DOCTYPE svg PUBLIC "-//W3C//DTD SVG 1.1//EN"
 "http://www.w3.org/Graphics/SVG/1.1/DTD/svg11.dtd">
<!-- Generated by graphviz version 2.28.0 (20110507.0327)
 -->
<!-- Title: G Pages: 1 -->
<svg width="2765pt" height="886pt"
 viewBox="0.00 0.00 2765.00 886.00" xmlns="http://www.w3.org/2000/svg" xmlns:xlink="http://www.w3.org/1999/xlink">
<g id="graph1" class="graph" transform="scale(1 1) rotate(0) translate(4 882)">
<title>G</title>
<polygon fill="#f7f7f7" stroke="#f7f7f7" points="-4,5 -4,-882 2762,-882 2762,5 -4,5"/>
<g id="graph2" class="cluster"><title>cluster_1</title>
<polygon fill="#f7f7f7" stroke="black" points="8,-8 8,-870 2742,-870 2742,-8 8,-8"/>
</g>
<g id="graph3" class="cluster"><title>cluster_2</title>
<polygon fill="#f7f7f7" stroke="#00cd00" points="975,-16 975,-831 2734,-831 2734,-16 975,-16"/>
<text text-anchor="middle" x="1854.5" y="-815.8" font-family="Times New Roman,serif" font-size="14.00">Feature Model</text>
</g>
<g id="graph4" class="cluster"><title>cluster_3</title>
<polygon fill="#f7f7f7" stroke="red" points="16,-684 16,-862 967,-862 967,-684 16,-684"/>
<text text-anchor="middle" x="491.5" y="-846.8" font-family="Times New Roman,serif" font-size="14.00">Legend:</text>
</g>
<g id="graph5" class="cluster"><title>cluster_4</title>
<polygon fill="#f7f7f7" stroke="blue" points="612,-692 612,-831 959,-831 959,-692 612,-692"/>
<text text-anchor="middle" x="785.5" y="-815.8" font-family="Times New Roman,serif" font-size="14.00">Features:</text>
</g>
<g id="graph6" class="cluster"><title>cluster_5</title>
<polygon fill="#f7f7f7" stroke="blue" points="438,-692 438,-831 604,-831 604,-692 438,-692"/>
<text text-anchor="middle" x="521" y="-815.8" font-family="Times New Roman,serif" font-size="14.00">Cross&#45;tree Constraints:</text>
</g>
<g id="graph7" class="cluster"><title>cluster_6</title>
<polygon fill="#f7f7f7" stroke="blue" points="24,-692 24,-831 430,-831 430,-692 24,-692"/>
<text text-anchor="middle" x="227" y="-815.8" font-family="Times New Roman,serif" font-size="14.00">Group of Features:</text>
</g>
<!-- Matrix -->
<g id="node3" class="node"><title>Matrix</title>
<polygon fill="#ffff00" stroke="red" points="1589.25,-799.5 1536.75,-799.5 1536.75,-776.5 1589.25,-776.5 1589.25,-799.5"/>
<text text-anchor="middle" x="1563" y="-784.3" font-family="Times New Roman,serif" font-size="14.00">Matrix</text>
</g>
<!-- Base -->
<g id="node5" class="node"><title>Base</title>
<polygon fill="#ffff00" stroke="red" points="1417,-723.5 1367,-723.5 1367,-700.5 1417,-700.5 1417,-723.5"/>
<text text-anchor="middle" x="1392" y="-708.3" font-family="Times New Roman,serif" font-size="14.00">Base</text>
</g>
<!-- Matrix&#45;&gt;Base -->
<g id="edge4" class="edge"><title>Matrix&#45;&gt;Base:n</title>
<path fill="none" stroke="black" d="M1536.66,-782.915C1493,-775.465 1408.98,-757.998 1394.24,-731.96"/>
<ellipse fill="black" stroke="black" cx="1393.08" cy="-727.851" rx="4.00001" ry="4.00001"/>
</g>
<!-- AND_1 -->
<g id="node11" class="node"><title>AND_1</title>
<polygon fill="#ffff00" stroke="red" points="1510,-723.5 1450,-723.5 1450,-700.5 1510,-700.5 1510,-723.5"/>
<text text-anchor="middle" x="1480" y="-708.3" font-family="Times New Roman,serif" font-size="14.00">AND_1</text>
</g>
<!-- Matrix&#45;&gt;AND_1 -->
<g id="edge10" class="edge"><title>Matrix&#45;&gt;AND_1:n</title>
<path fill="none" stroke="black" d="M1536.74,-779.278C1514.8,-771.193 1486.26,-756.258 1480.89,-732.152"/>
<ellipse fill="none" stroke="black" cx="1480.43" cy="-727.976" rx="4.00001" ry="4.00001"/>
</g>
<!-- AND_2 -->
<g id="node17" class="node"><title>AND_2</title>
<polygon fill="#ffff00" stroke="red" points="1593,-723.5 1533,-723.5 1533,-700.5 1593,-700.5 1593,-723.5"/>
<text text-anchor="middle" x="1563" y="-708.3" font-family="Times New Roman,serif" font-size="14.00">AND_2</text>
</g>
<!-- Matrix&#45;&gt;AND_2 -->
<g id="edge16" class="edge"><title>Matrix&#45;&gt;AND_2:n</title>
<path fill="none" stroke="black" d="M1563,-776.299C1563,-765.625 1563,-748.53 1563,-732.343"/>
<ellipse fill="none" stroke="black" cx="1563" cy="-728" rx="4" ry="4"/>
</g>
<!-- XOR -->
<g id="node22" class="node"><title>XOR</title>
<polygon fill="#ffff00" stroke="red" points="2572,-579.5 2522,-579.5 2522,-556.5 2572,-556.5 2572,-579.5"/>
<text text-anchor="middle" x="2547" y="-564.3" font-family="Times New Roman,serif" font-size="14.00">XOR</text>
</g>
<!-- Matrix&#45;&gt;XOR -->
<g id="edge22" class="edge"><title>Matrix&#45;&gt;XOR:n</title>
<path fill="none" stroke="black" d="M1589.32,-787.232C1743.66,-787.916 2525.21,-781.802 2546.55,-588.161"/>
<ellipse fill="black" stroke="black" cx="2546.78" cy="-583.994" rx="4" ry="4"/>
</g>
<!-- OR -->
<g id="node35" class="node"><title>OR</title>
<polygon fill="#ffff00" stroke="red" points="1890,-723.5 1840,-723.5 1840,-700.5 1890,-700.5 1890,-723.5"/>
<text text-anchor="middle" x="1865" y="-708.3" font-family="Times New Roman,serif" font-size="14.00">OR</text>
</g>
<!-- Matrix&#45;&gt;OR -->
<g id="edge36" class="edge"><title>Matrix&#45;&gt;OR:n</title>
<path fill="none" stroke="black" d="M1589.27,-787.072C1659.02,-786.598 1844.79,-780.745 1863.48,-732.169"/>
<ellipse fill="none" stroke="black" cx="1864.27" cy="-727.932" rx="4.00001" ry="4.00001"/>
</g>
<!-- A -->
<g id="node7" class="node"><title>A</title>
<polygon fill="#ffff00" stroke="blue" points="1349,-655.5 1299,-655.5 1299,-632.5 1349,-632.5 1349,-655.5"/>
<text text-anchor="middle" x="1324" y="-640.3" font-family="Times New Roman,serif" font-size="14.00">A</text>
</g>
<!-- Base&#45;&gt;A -->
<g id="edge6" class="edge"><title>Base&#45;&gt;A:n</title>
<path fill="none" stroke="black" d="M1366.68,-702.235C1350.37,-695.071 1331.2,-683.295 1325.61,-666.109"/>
<polygon fill="black" stroke="black" points="1320.05,-656.627 1327.95,-655.373 1329.21,-663.274 1321.3,-664.528 1320.05,-656.627"/>
<polyline fill="none" stroke="black" points="1325.25,-663.901 1325.57,-665.876 "/>
</g>
<!-- B -->
<g id="node9" class="node"><title>B</title>
<polygon fill="#ffff00" stroke="blue" points="1417,-655.5 1367,-655.5 1367,-632.5 1417,-632.5 1417,-655.5"/>
<text text-anchor="middle" x="1392" y="-640.3" font-family="Times New Roman,serif" font-size="14.00">B</text>
</g>
<!-- Base&#45;&gt;B -->
<g id="edge8" class="edge"><title>Base&#45;&gt;B:n</title>
<path fill="none" stroke="black" d="M1392,-700.456C1392,-691.72 1392,-678.722 1392,-666.028"/>
<polygon fill="black" stroke="black" points="1388,-656 1396,-656 1396,-664 1388,-664 1388,-656"/>
<polyline fill="none" stroke="black" points="1392,-664 1392,-666 "/>
</g>
<!-- K -->
<g id="node13" class="node"><title>K</title>
<polygon fill="#ffff00" stroke="blue" points="1505,-655.5 1455,-655.5 1455,-632.5 1505,-632.5 1505,-655.5"/>
<text text-anchor="middle" x="1480" y="-640.3" font-family="Times New Roman,serif" font-size="14.00">K</text>
</g>
<!-- AND_1&#45;&gt;K -->
<g id="edge12" class="edge"><title>AND_1&#45;&gt;K:n</title>
<path fill="none" stroke="black" d="M1480,-700.456C1480,-691.72 1480,-678.722 1480,-666.028"/>
<polygon fill="black" stroke="black" points="1476,-656 1484,-656 1484,-664 1476,-664 1476,-656"/>
<polyline fill="none" stroke="black" points="1480,-664 1480,-666 "/>
</g>
<!-- X -->
<g id="node15" class="node"><title>X</title>
<polygon fill="#ffff00" stroke="blue" points="1768,-503.5 1718,-503.5 1718,-480.5 1768,-480.5 1768,-503.5"/>
<text text-anchor="middle" x="1743" y="-488.3" font-family="Times New Roman,serif" font-size="14.00">X</text>
</g>
<!-- AND_1&#45;&gt;X -->
<g id="edge14" class="edge"><title>AND_1&#45;&gt;X:n</title>
<path fill="none" stroke="black" d="M1469.02,-700.369C1454.03,-684.548 1430.71,-654.282 1446,-632 1511.77,-536.186 1594.74,-604.56 1690,-538 1697.75,-532.588 1696.43,-527.659 1704,-522 1715.47,-513.424 1731.67,-518.326 1739.06,-513.258"/>
<polygon fill="black" stroke="black" points="1739.32,-502.432 1746.68,-505.568 1743.54,-512.928 1736.18,-509.792 1739.32,-502.432"/>
<polyline fill="none" stroke="black" points="1739.86,-511.36 1739.08,-513.2 "/>
</g>
<g id="node24" class="node"><title></title>
<polygon fill="#ffff00" stroke="blue" points="2082,-427 2032,-427 2032,-405 2082,-405 2082,-427"/>
</g>
<!-- X&#45;&gt; -->
<g id="edge82" class="edge"><title>X&#45;&gt;:n</title>
<path fill="none" stroke="red" d="M1768.49,-490.068C1837.15,-487.347 2022.28,-478.539 2044,-462 2053.85,-454.496 2056.24,-448.036 2056.82,-438.159"/>
<polygon fill="red" stroke="red" points="2060.32,-438.062 2057,-428 2053.32,-437.935 2060.32,-438.062"/>
<text text-anchor="middle" x="2081" y="-450.3" font-family="Times New Roman,serif" font-size="14.00">Requires</text>
</g>
<!-- Z -->
<g id="node43" class="node"><title>Z</title>
<polygon fill="#ffff00" stroke="blue" points="1526,-427.5 1476,-427.5 1476,-404.5 1526,-404.5 1526,-427.5"/>
<text text-anchor="middle" x="1501" y="-412.3" font-family="Times New Roman,serif" font-size="14.00">Z</text>
</g>
<!-- X&#45;&gt;Z -->
<g id="edge84" class="edge"><title>X&#45;&gt;Z:n</title>
<path fill="none" stroke="red" d="M1726.27,-480.429C1705.69,-467.46 1673.06,-447.047 1670,-446 1654.57,-440.729 1539.83,-445.217 1508.75,-434.394"/>
<polygon fill="red" stroke="red" points="1510.94,-431.666 1501,-428 1506.49,-437.064 1510.94,-431.666"/>
<text text-anchor="middle" x="1721" y="-450.3" font-family="Times New Roman,serif" font-size="14.00">Requires</text>
</g>
<!-- R -->
<g id="node67" class="node"><title>R</title>
<polygon fill="#ffff00" stroke="blue" points="2059,-123.5 2009,-123.5 2009,-100.5 2059,-100.5 2059,-123.5"/>
<text text-anchor="middle" x="2034" y="-108.3" font-family="Times New Roman,serif" font-size="14.00">R</text>
</g>
<!-- X&#45;&gt;R -->
<g id="edge80" class="edge"><title>X&#45;&gt;R:n</title>
<path fill="none" stroke="red" d="M1746.7,-480.207C1749.3,-470.813 1751.56,-457.014 1747,-446 1732.57,-411.158 1708.89,-416.71 1687,-386 1661.42,-350.111 1631.01,-333.771 1650,-294 1702.09,-184.898 1978.62,-155.713 2026.83,-131.066"/>
<polygon fill="red" stroke="red" points="2029.33,-133.512 2034,-124 2024.42,-128.526 2029.33,-133.512"/>
<text text-anchor="middle" x="1675" y="-298.3" font-family="Times New Roman,serif" font-size="14.00">Requires</text>
</g>
<!-- AND_2&#45;&gt;X -->
<g id="edge20" class="edge"><title>AND_2&#45;&gt;X:n</title>
<path fill="none" stroke="black" d="M1553.04,-700.354C1538.92,-683.968 1516.64,-652.338 1534,-632 1567.01,-593.315 1603.01,-639.52 1647,-614 1692.39,-587.668 1684.05,-559.26 1721,-522 1726.56,-516.393 1733.76,-515.699 1738.38,-512.882"/>
<polygon fill="black" stroke="black" points="1739.45,-502.156 1746.55,-505.844 1742.86,-512.943 1735.76,-509.254 1739.45,-502.156"/>
<polyline fill="none" stroke="black" points="1739.31,-511.099 1738.39,-512.874 "/>
</g>
<!-- L -->
<g id="node19" class="node"><title>L</title>
<polygon fill="#ffff00" stroke="blue" points="1593,-655.5 1543,-655.5 1543,-632.5 1593,-632.5 1593,-655.5"/>
<text text-anchor="middle" x="1568" y="-640.3" font-family="Times New Roman,serif" font-size="14.00">L</text>
</g>
<!-- AND_2&#45;&gt;L -->
<g id="edge18" class="edge"><title>AND_2&#45;&gt;L:n</title>
<path fill="none" stroke="black" d="M1564.53,-700.482C1565.69,-691.762 1567.18,-678.779 1567.76,-666.059"/>
<polygon fill="black" stroke="black" points="1564,-655.903 1572,-656.097 1571.81,-664.094 1563.81,-663.901 1564,-655.903"/>
<polyline fill="none" stroke="black" points="1567.81,-663.998 1567.76,-665.997 "/>
</g>
<!-- XOR&#45;&gt;X -->
<g id="edge34" class="edge"><title>XOR&#45;&gt;X:n</title>
<path fill="none" stroke="black" d="M2521.69,-565.12C2476.92,-561.55 2380.92,-552.793 2301,-538 2272.59,-532.742 2266.6,-526.104 2238,-522 2213.82,-518.53 1842.51,-528.721 1759.41,-511.805"/>
<polygon fill="black" stroke="black" points="1744.5,-500.839 1752.03,-508.295 1741.5,-507.161 1744.5,-500.839"/>
<ellipse fill="none" stroke="black" cx="1755.64" cy="-510.012" rx="4.00001" ry="4.00001"/>
</g>
<!-- XOR&#45;&gt; -->
<g id="edge24" class="edge"><title>XOR&#45;&gt;:n</title>
<path fill="none" stroke="black" d="M2521.72,-560.096C2483.45,-549.406 2408.71,-527.604 2347,-504 2288.66,-481.688 2279.23,-462.542 2219,-446 2205.12,-442.187 2110.94,-444.506 2072.89,-436.52"/>
<polygon fill="black" stroke="black" points="2058.65,-424.915 2065.81,-432.725 2055.35,-431.085 2058.65,-424.915"/>
<ellipse fill="none" stroke="black" cx="2069.34" cy="-434.615" rx="4.00001" ry="4.00001"/>
</g>
<!-- G -->
<g id="node26" class="node"><title>G</title>
<polygon fill="#ffff00" stroke="blue" points="2022,-351.5 1972,-351.5 1972,-328.5 2022,-328.5 2022,-351.5"/>
<text text-anchor="middle" x="1997" y="-336.3" font-family="Times New Roman,serif" font-size="14.00">G</text>
</g>
<!-- XOR&#45;&gt;G -->
<g id="edge26" class="edge"><title>XOR&#45;&gt;G:n</title>
<path fill="none" stroke="black" d="M2534.85,-556.492C2514.07,-538.903 2469.88,-503.154 2428,-480 2348.04,-435.799 2325.61,-426.255 2237,-404 2168.45,-386.784 2143.53,-414.822 2079,-386 2069.23,-381.635 2070.39,-375.135 2061,-370 2043.78,-360.586 2021.21,-368.767 2007.99,-366.674"/>
<polygon fill="black" stroke="black" points="1999.8,-349.902 2002.99,-360.005 1994.2,-354.098 1999.8,-349.902"/>
<ellipse fill="none" stroke="black" cx="2005.39" cy="-363.207" rx="4.00001" ry="4.00001"/>
</g>
<!-- O -->
<g id="node28" class="node"><title>O</title>
<polygon fill="#ffff00" stroke="blue" points="2024,-199.5 1974,-199.5 1974,-176.5 2024,-176.5 2024,-199.5"/>
<text text-anchor="middle" x="1999" y="-184.3" font-family="Times New Roman,serif" font-size="14.00">O</text>
</g>
<!-- XOR&#45;&gt;O -->
<g id="edge28" class="edge"><title>XOR&#45;&gt;O:n</title>
<path fill="none" stroke="black" d="M2547.4,-556.335C2547.78,-534.448 2546.44,-483.376 2528,-446 2497.87,-384.931 2457.25,-397.96 2407,-352 2350.14,-299.998 2365.98,-252.331 2297,-218 2271.54,-205.328 2070.66,-225.54 2013.89,-210.652"/>
<polygon fill="black" stroke="black" points="2001.04,-197.153 2007.13,-205.817 1996.96,-202.847 2001.04,-197.153"/>
<ellipse fill="none" stroke="black" cx="2010.39" cy="-208.144" rx="4.00001" ry="4.00001"/>
</g>
<!-- J -->
<g id="node30" class="node"><title>J</title>
<polygon fill="#ffff00" stroke="blue" points="2512,-47.5 2462,-47.5 2462,-24.5 2512,-24.5 2512,-47.5"/>
<text text-anchor="middle" x="2487" y="-32.3" font-family="Times New Roman,serif" font-size="14.00">J</text>
</g>
<!-- XOR&#45;&gt;J -->
<g id="edge30" class="edge"><title>XOR&#45;&gt;J:n</title>
<path fill="none" stroke="black" d="M2557.2,-556.353C2561.41,-551.229 2565.82,-544.741 2568,-538 2586.36,-481.345 2573.65,-463.287 2568,-404 2566.38,-387.042 2546.71,-340.752 2558,-328 2601.94,-278.398 2662.06,-359.602 2706,-310 2710.72,-304.677 2707.14,-301.019 2706,-294 2704.65,-285.676 2702.57,-284.032 2700,-276 2693.07,-254.306 2685,-249.775 2685,-227 2685,-227 2685,-227 2685,-111 2685,-87.4444 2676.96,-78.5093 2657,-66 2630.59,-49.4509 2533.12,-73.5035 2498.94,-61.7119"/>
<polygon fill="black" stroke="black" points="2489.64,-45.7019 2493.57,-55.5425 2484.36,-50.2981 2489.64,-45.7019"/>
<ellipse fill="none" stroke="black" cx="2496.19" cy="-58.5595" rx="4.00001" ry="4.00001"/>
</g>
<!-- V -->
<g id="node32" class="node"><title>V</title>
<polygon fill="#ffff00" stroke="blue" points="1738,-47.5 1688,-47.5 1688,-24.5 1738,-24.5 1738,-47.5"/>
<text text-anchor="middle" x="1713" y="-32.3" font-family="Times New Roman,serif" font-size="14.00">V</text>
</g>
<!-- XOR&#45;&gt;V -->
<g id="edge32" class="edge"><title>XOR&#45;&gt;V:n</title>
<path fill="none" stroke="black" d="M2548.83,-556.294C2549.68,-550.837 2550.58,-544.085 2551,-538 2551.49,-530.906 2551.02,-529.111 2551,-522 2550.87,-478.889 2521.53,-360.37 2550,-328 2591.44,-280.896 2648.56,-357.104 2690,-310 2694.7,-304.661 2692.07,-300.803 2690,-294 2675.37,-245.883 2653.42,-242.792 2627,-200 2591.03,-141.744 2609.79,-101.094 2551,-66 2532.75,-55.103 1849.16,-68.5105 1730.48,-53.1988"/>
<polygon fill="black" stroke="black" points="1714,-44.6453 1722.58,-50.8512 1712,-51.3547 1714,-44.6453"/>
<ellipse fill="none" stroke="black" cx="1726.42" cy="-51.9917" rx="4.00001" ry="4.00001"/>
</g>
<!-- D -->
<g id="node37" class="node"><title>D</title>
<polygon fill="#ffff00" stroke="blue" points="2059,-275.5 2009,-275.5 2009,-252.5 2059,-252.5 2059,-275.5"/>
<text text-anchor="middle" x="2034" y="-260.3" font-family="Times New Roman,serif" font-size="14.00">D</text>
</g>
<!-- G&#45;&gt;D -->
<g id="edge70" class="edge"><title>G&#45;&gt;D:n</title>
<path fill="none" stroke="red" d="M2022.3,-330.529C2037.82,-324.762 2055.55,-316.945 2060,-310 2063.84,-304.012 2063.3,-300.299 2060,-294 2055.82,-286.025 2046.33,-286.649 2040.04,-284.432"/>
<polygon fill="red" stroke="red" points="2042.67,-282.09 2034,-276 2036.98,-286.167 2042.67,-282.09"/>
<text text-anchor="middle" x="2088" y="-298.3" font-family="Times New Roman,serif" font-size="14.00">Requires</text>
</g>
<!-- Y -->
<g id="node41" class="node"><title>Y</title>
<polygon fill="#ffff00" stroke="blue" points="1840,-275.5 1790,-275.5 1790,-252.5 1840,-252.5 1840,-275.5"/>
<text text-anchor="middle" x="1815" y="-260.3" font-family="Times New Roman,serif" font-size="14.00">Y</text>
</g>
<!-- G&#45;&gt;Y -->
<g id="edge72" class="edge"><title>G&#45;&gt;Y:n</title>
<path fill="none" stroke="red" d="M1971.86,-339.862C1939.04,-339.826 1880.99,-335.681 1840,-310 1827.46,-302.142 1819.14,-297.194 1816.19,-286.241"/>
<polygon fill="red" stroke="red" points="1819.63,-285.528 1815,-276 1812.68,-286.338 1819.63,-285.528"/>
<text text-anchor="middle" x="1865" y="-298.3" font-family="Times New Roman,serif" font-size="14.00">Requires</text>
</g>
<!-- C -->
<g id="node39" class="node"><title>C</title>
<polygon fill="#ffff00" stroke="blue" points="2177,-123.5 2127,-123.5 2127,-100.5 2177,-100.5 2177,-123.5"/>
<text text-anchor="middle" x="2152" y="-108.3" font-family="Times New Roman,serif" font-size="14.00">C</text>
</g>
<!-- O&#45;&gt;C -->
<g id="edge74" class="edge"><title>O&#45;&gt;C:n</title>
<path fill="none" stroke="red" d="M2024.28,-176.426C2036.19,-171.218 2050.51,-164.641 2063,-158 2074.98,-151.632 2076.58,-147.47 2089,-142 2111.69,-132.002 2141.42,-147.096 2149.75,-133.815"/>
<polygon fill="red" stroke="red" points="2153.17,-134.53 2152,-124 2146.35,-132.964 2153.17,-134.53"/>
<text text-anchor="middle" x="2114" y="-146.3" font-family="Times New Roman,serif" font-size="14.00">Requires</text>
</g>
<!-- I -->
<g id="node49" class="node"><title>I</title>
<polygon fill="#ffff00" stroke="blue" points="2316,-123.5 2266,-123.5 2266,-100.5 2316,-100.5 2316,-123.5"/>
<text text-anchor="middle" x="2291" y="-108.3" font-family="Times New Roman,serif" font-size="14.00">I</text>
</g>
<!-- O&#45;&gt;I -->
<g id="edge76" class="edge"><title>O&#45;&gt;I:n</title>
<path fill="none" stroke="red" d="M2024.15,-182.24C2085.71,-170.515 2241.84,-140.312 2281.65,-128.145"/>
<polygon fill="red" stroke="red" points="2283.28,-131.252 2291,-124 2280.44,-124.853 2283.28,-131.252"/>
<text text-anchor="middle" x="2245" y="-146.3" font-family="Times New Roman,serif" font-size="14.00">Requires</text>
</g>
<!-- O&#45;&gt;R -->
<g id="edge78" class="edge"><title>O&#45;&gt;R:n</title>
<path fill="none" stroke="red" d="M1999.27,-176.162C1999.98,-166.485 2002.22,-152.291 2009,-142 2013.83,-134.676 2022.73,-134.968 2028.5,-132.524"/>
<polygon fill="red" stroke="red" points="2031.52,-134.301 2034,-124 2025.64,-130.508 2031.52,-134.301"/>
<text text-anchor="middle" x="2034" y="-146.3" font-family="Times New Roman,serif" font-size="14.00">Requires</text>
</g>
<!-- OR&#45;&gt;D -->
<g id="edge38" class="edge"><title>OR&#45;&gt;D:n</title>
<path fill="none" stroke="black" d="M1865,-700.254C1865,-687.192 1865,-664.479 1865,-645 1865,-645 1865,-645 1865,-491 1865,-451.223 1860.47,-434.501 1886,-404 1898.77,-388.74 1911.97,-399.04 1927,-386 1949.92,-366.12 1938.07,-345.29 1963,-328 1996.52,-304.754 2027.14,-341.546 2053,-310 2057.51,-304.501 2055.81,-300.532 2053,-294 2050.7,-288.657 2045.95,-287.065 2041.78,-285.355"/>
<polygon fill="none" stroke="black" points="2041.67,-285.228 2034.76,-283.171 2034,-276 2040.91,-278.057 2041.67,-285.228"/>
</g>
<!-- OR&#45;&gt;C -->
<g id="edge40" class="edge"><title>OR&#45;&gt;C:n</title>
<path fill="none" stroke="black" d="M1890.01,-704.363C1946.68,-687.742 2083.46,-638.288 2129,-538 2155.6,-479.424 2055.49,-539.085 2026,-504 2019.14,-495.834 2019.23,-488.242 2026,-480 2052.17,-448.144 2090.83,-493.856 2117,-462 2121.51,-456.505 2118.14,-453.019 2117,-446 2113.98,-427.387 2100.02,-419.328 2111,-404 2125.49,-383.778 2142.56,-398.615 2164,-386 2197.09,-366.533 2195.98,-349.176 2228,-328 2243.92,-317.469 2256.71,-326.081 2267,-310 2270.83,-304.01 2268.47,-300.959 2267,-294 2266.63,-292.247 2216.08,-177.428 2215,-176 2206.27,-164.466 2171.45,-149.821 2157.66,-135.162"/>
<polygon fill="none" stroke="black" points="2157.43,-134.702 2151.15,-131.16 2152,-124 2158.28,-127.542 2157.43,-134.702"/>
</g>
<!-- OR&#45;&gt;Y -->
<g id="edge42" class="edge"><title>OR&#45;&gt;Y:n</title>
<path fill="none" stroke="black" d="M1839.6,-701.737C1814.57,-692.071 1775.72,-675.601 1745,-656 1711.51,-634.632 1712.24,-616.33 1677,-598 1653.38,-585.713 1461.3,-559.053 1445,-538 1440.65,-532.377 1441.11,-527.952 1445,-522 1481.37,-466.362 1531.7,-505.455 1582,-462 1588.35,-456.518 1586.42,-452.264 1592,-446 1627.95,-405.612 1642.16,-400.213 1687,-370 1698.3,-362.384 1784.16,-319.433 1794,-310 1796.08,-308.008 1804.29,-296.17 1809.81,-286.882"/>
<polygon fill="none" stroke="black" points="1809.83,-286.831 1808.81,-279.693 1815,-276 1816.03,-283.138 1809.83,-286.831"/>
</g>
<!-- OR&#45;&gt;Z -->
<g id="edge44" class="edge"><title>OR&#45;&gt;Z:n</title>
<path fill="none" stroke="black" d="M1839.97,-707.39C1803.88,-701.943 1735.27,-690.68 1678,-676 1650.36,-668.916 1639.46,-673.594 1617,-656 1607.1,-648.243 1612.71,-638.597 1602,-632 1564.95,-609.175 1450.16,-619.53 1407,-614 1314.52,-602.152 1260.35,-651.068 1200,-580 1146.29,-516.75 1253.16,-477.313 1330,-446 1344.93,-439.917 1456.4,-444.886 1490.87,-435.111"/>
<polygon fill="none" stroke="black" points="1491.18,-434.896 1493.79,-428.175 1501,-428 1498.39,-434.722 1491.18,-434.896"/>
</g>
<!-- U -->
<g id="node45" class="node"><title>U</title>
<polygon fill="#ffff00" stroke="blue" points="1327,-579.5 1277,-579.5 1277,-556.5 1327,-556.5 1327,-579.5"/>
<text text-anchor="middle" x="1302" y="-564.3" font-family="Times New Roman,serif" font-size="14.00">U</text>
</g>
<!-- OR&#45;&gt;U -->
<g id="edge46" class="edge"><title>OR&#45;&gt;U:n</title>
<path fill="none" stroke="black" d="M1839.84,-709.404C1805.5,-706.449 1742.64,-698.238 1694,-676 1680.74,-669.939 1677.43,-667.123 1668,-656 1649.1,-633.701 1661.66,-613.694 1637,-598 1608.62,-579.939 1358.69,-610.167 1310.15,-588.857"/>
<polygon fill="none" stroke="black" points="1310.12,-588.831 1303.12,-587.124 1302,-580 1309.01,-581.707 1310.12,-588.831"/>
</g>
<!-- M -->
<g id="node47" class="node"><title>M</title>
<polygon fill="#ffff00" stroke="blue" points="2386,-579.5 2336,-579.5 2336,-556.5 2386,-556.5 2386,-579.5"/>
<text text-anchor="middle" x="2361" y="-564.3" font-family="Times New Roman,serif" font-size="14.00">M</text>
</g>
<!-- OR&#45;&gt;M -->
<g id="edge48" class="edge"><title>OR&#45;&gt;M:n</title>
<path fill="none" stroke="black" d="M1890.22,-709.653C1943.47,-706.483 2071.08,-697.167 2176,-676 2206.88,-669.77 2214.12,-665.982 2244,-656 2294.42,-639.155 2322.61,-655.371 2356,-614 2362.67,-605.736 2362.48,-599.91 2361.75,-591.994"/>
<polygon fill="none" stroke="black" points="2361.75,-591.977 2357.38,-586.237 2361,-580 2365.37,-585.739 2361.75,-591.977"/>
</g>
<!-- OR&#45;&gt;I -->
<g id="edge50" class="edge"><title>OR&#45;&gt;I:n</title>
<path fill="none" stroke="black" d="M1890.41,-703.148C1912.75,-696.189 1946.11,-685.662 1975,-676 2000.46,-667.484 2008.61,-669.181 2032,-656 2076.15,-631.12 2082.76,-617.364 2117,-580 2188.31,-502.175 2229.75,-488.731 2254,-386 2255.63,-379.079 2256.72,-376.57 2254,-370 2249.67,-359.547 2240.33,-362.453 2236,-352 2231.92,-342.145 2229.09,-336.124 2236,-328 2268.39,-289.937 2314.61,-348.063 2347,-310 2351.61,-304.584 2347.93,-301.049 2347,-294 2342.4,-259.318 2322.13,-173.046 2306,-142 2303.9,-137.957 2300.77,-136 2297.91,-134.205"/>
<polygon fill="none" stroke="black" points="2297.73,-133.938 2291.05,-131.211 2291,-124 2297.68,-126.727 2297.73,-133.938"/>
</g>
<!-- N -->
<g id="node51" class="node"><title>N</title>
<polygon fill="#ffff00" stroke="blue" points="1395,-579.5 1345,-579.5 1345,-556.5 1395,-556.5 1395,-579.5"/>
<text text-anchor="middle" x="1370" y="-564.3" font-family="Times New Roman,serif" font-size="14.00">N</text>
</g>
<!-- OR&#45;&gt;N -->
<g id="edge52" class="edge"><title>OR&#45;&gt;N:n</title>
<path fill="none" stroke="black" d="M1839.77,-710.202C1806.11,-708.154 1745.58,-700.972 1701,-676 1690.3,-670.008 1688.97,-666.086 1682,-656 1677.93,-650.113 1659.94,-601.994 1654,-598 1630.69,-582.316 1424.52,-605.263 1378.91,-588.376"/>
<polygon fill="none" stroke="black" points="1378.74,-588.22 1371.63,-587.024 1370,-580 1377.11,-581.196 1378.74,-588.22"/>
</g>
<!-- P -->
<g id="node53" class="node"><title>P</title>
<polygon fill="#ffff00" stroke="blue" points="2267,-579.5 2217,-579.5 2217,-556.5 2267,-556.5 2267,-579.5"/>
<text text-anchor="middle" x="2242" y="-564.3" font-family="Times New Roman,serif" font-size="14.00">P</text>
</g>
<!-- OR&#45;&gt;P -->
<g id="edge54" class="edge"><title>OR&#45;&gt;P:n</title>
<path fill="none" stroke="black" d="M1890.15,-709.682C1962.18,-705.519 2167.68,-690.807 2224,-656 2246.46,-642.121 2255.9,-638.389 2266,-614 2268.72,-607.43 2269.18,-604.36 2266,-598 2262.74,-591.478 2255.87,-590.694 2250.31,-589.142"/>
<polygon fill="none" stroke="black" points="2250.07,-588.88 2243.08,-587.13 2242,-580 2249,-581.75 2250.07,-588.88"/>
</g>
<!-- Q -->
<g id="node55" class="node"><title>Q</title>
<polygon fill="#ffff00" stroke="blue" points="2045,-579.5 1995,-579.5 1995,-556.5 2045,-556.5 2045,-579.5"/>
<text text-anchor="middle" x="2020" y="-564.3" font-family="Times New Roman,serif" font-size="14.00">Q</text>
</g>
<!-- OR&#45;&gt;Q -->
<g id="edge56" class="edge"><title>OR&#45;&gt;Q:n</title>
<path fill="none" stroke="black" d="M1890.25,-702.843C1931.42,-687.884 2009.43,-651.997 2019.03,-592.265"/>
<polygon fill="none" stroke="black" points="2019.05,-591.962 2015.54,-585.664 2020,-580 2023.51,-586.298 2019.05,-591.962"/>
</g>
<!-- F -->
<g id="node57" class="node"><title>F</title>
<polygon fill="#ffff00" stroke="blue" points="1259,-579.5 1209,-579.5 1209,-556.5 1259,-556.5 1259,-579.5"/>
<text text-anchor="middle" x="1234" y="-564.3" font-family="Times New Roman,serif" font-size="14.00">F</text>
</g>
<!-- OR&#45;&gt;F -->
<g id="edge58" class="edge"><title>OR&#45;&gt;F:n</title>
<path fill="none" stroke="black" d="M1839.92,-708.894C1804.57,-705.309 1738.57,-696.328 1686,-676 1670,-669.815 1667.47,-665.203 1653,-656 1636.77,-645.681 1634.9,-639.03 1617,-632 1529,-597.435 1500.73,-610.453 1407,-598 1390.76,-595.842 1277.75,-598.295 1243.69,-587.322"/>
<polygon fill="none" stroke="black" points="1243.57,-587.234 1236.38,-586.808 1234,-580 1241.2,-580.425 1243.57,-587.234"/>
</g>
<!-- T -->
<g id="node59" class="node"><title>T</title>
<polygon fill="#ffff00" stroke="blue" points="2448,-655.5 2398,-655.5 2398,-632.5 2448,-632.5 2448,-655.5"/>
<text text-anchor="middle" x="2423" y="-640.3" font-family="Times New Roman,serif" font-size="14.00">T</text>
</g>
<!-- OR&#45;&gt;T -->
<g id="edge60" class="edge"><title>OR&#45;&gt;T:n</title>
<path fill="none" stroke="black" d="M1890.06,-711.197C1991,-711.691 2364.89,-710.517 2416.96,-666.693"/>
<polygon fill="none" stroke="black" points="2417.1,-666.45 2416.57,-659.258 2423,-656 2423.53,-663.191 2417.1,-666.45"/>
</g>
<!-- S -->
<g id="node61" class="node"><title>S</title>
<polygon fill="#ffff00" stroke="blue" points="1755,-579.5 1705,-579.5 1705,-556.5 1755,-556.5 1755,-579.5"/>
<text text-anchor="middle" x="1730" y="-564.3" font-family="Times New Roman,serif" font-size="14.00">S</text>
</g>
<!-- OR&#45;&gt;S -->
<g id="edge62" class="edge"><title>OR&#45;&gt;S:n</title>
<path fill="none" stroke="black" d="M1839.92,-700.45C1803.55,-683.401 1739.54,-646.156 1730.96,-592.156"/>
<polygon fill="none" stroke="black" points="1730.95,-591.963 1726.49,-586.297 1730,-580 1734.46,-585.666 1730.95,-591.963"/>
</g>
<!-- H -->
<g id="node63" class="node"><title>H</title>
<polygon fill="#ffff00" stroke="blue" points="2215,-655.5 2165,-655.5 2165,-632.5 2215,-632.5 2215,-655.5"/>
<text text-anchor="middle" x="2190" y="-640.3" font-family="Times New Roman,serif" font-size="14.00">H</text>
</g>
<!-- OR&#45;&gt;H -->
<g id="edge64" class="edge"><title>OR&#45;&gt;H:n</title>
<path fill="none" stroke="black" d="M1890.23,-709.391C1958.24,-704.756 2142.89,-690.113 2182.47,-665.513"/>
<polygon fill="none" stroke="black" points="2182.55,-665.408 2183.14,-658.221 2190,-656 2189.41,-663.187 2182.55,-665.408"/>
</g>
<!-- E -->
<g id="node65" class="node"><title>E</title>
<polygon fill="#ffff00" stroke="blue" points="1463,-579.5 1413,-579.5 1413,-556.5 1463,-556.5 1463,-579.5"/>
<text text-anchor="middle" x="1438" y="-564.3" font-family="Times New Roman,serif" font-size="14.00">E</text>
</g>
<!-- OR&#45;&gt;E -->
<g id="edge66" class="edge"><title>OR&#45;&gt;E:n</title>
<path fill="none" stroke="black" d="M1839.95,-711.563C1806.42,-711.061 1746.59,-705.629 1707,-676 1675.31,-652.281 1697.26,-619.469 1664,-598 1645.56,-586.099 1487.76,-600.388 1447.38,-587.619"/>
<polygon fill="none" stroke="black" points="1447.31,-587.566 1440.13,-586.888 1438,-580 1445.18,-580.678 1447.31,-587.566"/>
</g>
<!-- OR&#45;&gt;R -->
<g id="edge68" class="edge"><title>OR&#45;&gt;R:n</title>
<path fill="none" stroke="black" d="M1878.05,-700.46C1902,-680.164 1952.26,-632.953 1971,-580 1974.56,-569.944 1977.8,-564.221 1971,-556 1943.9,-523.215 1904.1,-570.785 1877,-538 1872.47,-532.519 1873.98,-528.44 1877,-522 1894.67,-484.278 1917.43,-489.174 1949,-462 1957.11,-455.017 1958.71,-452.772 1967,-446 1991.09,-426.315 1996.63,-420.506 2023,-404 2037.83,-394.719 2043.75,-396.149 2058,-386 2137.63,-329.28 2178.57,-323.894 2217,-234 2238.17,-184.469 2179.74,-161.183 2143,-142 2125.15,-132.679 2063.24,-143.058 2041.56,-133.537"/>
<polygon fill="none" stroke="black" points="2041.46,-133.402 2034.59,-131.187 2034,-124 2040.86,-126.215 2041.46,-133.402"/>
</g>
<!-- D&#45;&gt;X -->
<g id="edge202" class="edge"><title>D&#45;&gt;X:n</title>
<path fill="none" stroke="blue" stroke-dasharray="5,2" d="M2046.49,-284.788C2050.19,-293.331 2051.87,-302.959 2046,-310 2017.66,-344.025 1989.7,-313.096 1948,-328 1904.7,-343.477 1801.28,-406.341 1778,-446 1764.76,-468.559 1787.67,-486.751 1768,-504 1763.43,-508.01 1756.38,-511.259 1750.93,-511.561"/>
<polygon fill="blue" stroke="blue" points="2049.51,-283.017 2041.76,-275.799 2043.32,-286.278 2049.51,-283.017"/>
<polygon fill="blue" stroke="blue" points="1752.94,-508.677 1743,-505 1748.47,-514.071 1752.94,-508.677"/>
<text text-anchor="middle" x="1895.5" y="-374.3" font-family="Times New Roman,serif" font-size="14.00"> Excludes</text>
</g>
<!-- D&#45;&gt;O -->
<g id="edge122" class="edge"><title>D&#45;&gt;O:n</title>
<path fill="none" stroke="blue" stroke-dasharray="5,2" d="M1999.23,-254.982C1988.31,-250.649 1977.43,-244.038 1971,-234 1967.16,-228.012 1967.59,-224.242 1971,-218 1975.65,-209.479 1986.26,-210.761 1993,-208.468"/>
<polygon fill="blue" stroke="blue" points="1998.14,-258.308 2008.73,-258.233 2000.41,-251.685 1998.14,-258.308"/>
<polygon fill="blue" stroke="blue" points="1996.07,-210.183 1999,-200 1990.36,-206.135 1996.07,-210.183"/>
<text text-anchor="middle" x="1998.5" y="-222.3" font-family="Times New Roman,serif" font-size="14.00"> Excludes</text>
</g>
<!-- C&#45;&gt;X -->
<g id="edge204" class="edge"><title>C&#45;&gt;X:n</title>
<path fill="none" stroke="blue" stroke-dasharray="5,2" d="M2150.55,-133.987C2148.9,-142.523 2145.58,-151.815 2139,-158 2112.12,-183.248 2090.51,-158.585 2058,-176 2044.42,-183.274 2046.43,-192.456 2033,-200 2005.74,-215.313 1991.27,-201.056 1965,-218 1920.67,-246.592 1924.83,-270.38 1890,-310 1859.28,-344.945 1854.06,-356.6 1818,-386 1806.24,-395.585 1798.89,-392.497 1789,-404 1775.76,-419.4 1775.6,-426.218 1771,-446 1765.16,-471.143 1786.36,-485.855 1768,-504 1763.55,-508.397 1756.2,-511.682 1750.61,-511.736"/>
<polygon fill="blue" stroke="blue" points="2154.05,-134.234 2151.86,-123.867 2147.1,-133.335 2154.05,-134.234"/>
<polygon fill="blue" stroke="blue" points="1752.81,-509.005 1743,-505 1748.17,-514.248 1752.81,-509.005"/>
<text text-anchor="middle" x="1930.5" y="-298.3" font-family="Times New Roman,serif" font-size="14.00"> Excludes</text>
</g>
<!-- C&#45;&gt;G -->
<g id="edge94" class="edge"><title>C&#45;&gt;G:n</title>
<path fill="none" stroke="blue" stroke-dasharray="5,2" d="M2155.8,-133.675C2161.8,-173.268 2168.59,-260.267 2124,-310 2107.64,-328.25 2045.95,-346.763 2022,-352 2016.91,-353.114 2011.1,-355.846 2006.36,-357.29"/>
<polygon fill="blue" stroke="blue" points="2159.22,-132.92 2154.14,-123.626 2152.32,-134.064 2159.22,-132.92"/>
<polygon fill="blue" stroke="blue" points="2007.55,-353.985 1997,-353 2004.63,-360.349 2007.55,-353.985"/>
<text text-anchor="middle" x="2185.5" y="-222.3" font-family="Times New Roman,serif" font-size="14.00"> Excludes</text>
</g>
<!-- C&#45;&gt;J -->
<g id="edge148" class="edge"><title>C&#45;&gt;J:n</title>
<path fill="none" stroke="blue" stroke-dasharray="5,2" d="M2187.02,-104.729C2197.01,-103.058 2207.92,-101.346 2218,-100 2297.25,-89.422 2320.5,-105.253 2397,-82 2411.46,-77.6053 2413.03,-71.755 2427,-66 2448.72,-57.0538 2476.5,-70.2101 2484.65,-57.8165"/>
<polygon fill="blue" stroke="blue" points="2186.28,-101.304 2177.01,-106.438 2187.46,-108.204 2186.28,-101.304"/>
<polygon fill="blue" stroke="blue" points="2488.08,-58.5397 2487,-48 2481.27,-56.9126 2488.08,-58.5397"/>
<text text-anchor="middle" x="2454.5" y="-70.3" font-family="Times New Roman,serif" font-size="14.00"> Excludes</text>
</g>
<!-- C&#45;&gt;V -->
<g id="edge172" class="edge"><title>C&#45;&gt;V:n</title>
<path fill="none" stroke="blue" stroke-dasharray="5,2" d="M2116.35,-105.757C2101.44,-103.713 2083.91,-101.504 2068,-100 1999.74,-93.5447 1824.58,-105.014 1760,-82 1755.45,-80.3773 1731.29,-65.6892 1719.49,-55.7274"/>
<polygon fill="blue" stroke="blue" points="2116.3,-109.284 2126.69,-107.204 2117.27,-102.351 2116.3,-109.284"/>
<polygon fill="blue" stroke="blue" points="1722.11,-53.4066 1713,-48 1716.75,-57.9086 1722.11,-53.4066"/>
<text text-anchor="middle" x="1787.5" y="-70.3" font-family="Times New Roman,serif" font-size="14.00"> Excludes</text>
</g>
<!-- Y&#45;&gt;X -->
<g id="edge206" class="edge"><title>Y&#45;&gt;X:n</title>
<path fill="none" stroke="blue" stroke-dasharray="5,2" d="M1812.71,-285.871C1811.38,-293.665 1809.28,-302.45 1806,-310 1792.93,-340.094 1773.04,-338.765 1763,-370 1750.49,-408.931 1759.27,-421.383 1764,-462 1766.17,-480.625 1780.99,-490.479 1768,-504 1763.67,-508.51 1756.3,-511.782 1750.68,-511.801"/>
<polygon fill="blue" stroke="blue" points="1816.21,-286.137 1814.14,-275.746 1809.28,-285.16 1816.21,-286.137"/>
<polygon fill="blue" stroke="blue" points="1752.81,-509.01 1743,-505 1748.17,-514.25 1752.81,-509.01"/>
<text text-anchor="middle" x="1790.5" y="-374.3" font-family="Times New Roman,serif" font-size="14.00"> Excludes</text>
</g>
<!-- Y&#45;&gt;O -->
<g id="edge124" class="edge"><title>Y&#45;&gt;O:n</title>
<path fill="none" stroke="blue" stroke-dasharray="5,2" d="M1800.03,-243.666C1795.18,-234.967 1792.52,-225.086 1799,-218 1826.4,-188.021 1969.6,-234.668 1995.11,-209.647"/>
<polygon fill="blue" stroke="blue" points="1797.17,-245.696 1805.59,-252.136 1803.03,-241.855 1797.17,-245.696"/>
<polygon fill="blue" stroke="blue" points="1998.51,-210.583 1999,-200 1992.01,-207.966 1998.51,-210.583"/>
<text text-anchor="middle" x="1826.5" y="-222.3" font-family="Times New Roman,serif" font-size="14.00"> Excludes</text>
</g>
<!-- Y&#45;&gt;J -->
<g id="edge150" class="edge"><title>Y&#45;&gt;J:n</title>
<path fill="none" stroke="blue" stroke-dasharray="5,2" d="M1796.79,-244.542C1790.89,-236.307 1787.02,-226.553 1792,-218 1845.49,-126.157 1899.55,-134.743 2000,-100 2095.58,-66.9404 2124.47,-77.0306 2225,-66 2237.83,-64.5921 2433.05,-63.006 2477.88,-52.5542"/>
<polygon fill="blue" stroke="blue" points="1794.29,-247.01 1803.37,-252.46 1799.67,-242.533 1794.29,-247.01"/>
<polygon fill="blue" stroke="blue" points="2479.62,-55.5976 2487,-48 2476.49,-49.3344 2479.62,-55.5976"/>
<text text-anchor="middle" x="1896.5" y="-146.3" font-family="Times New Roman,serif" font-size="14.00"> Excludes</text>
</g>
<!-- Y&#45;&gt;V -->
<g id="edge174" class="edge"><title>Y&#45;&gt;V:n</title>
<path fill="none" stroke="blue" stroke-dasharray="5,2" d="M1779.72,-255.094C1763.72,-250.502 1745.07,-243.672 1730,-234 1690.84,-208.868 1675.22,-201.224 1658,-158 1648.36,-133.8 1636.06,-107.104 1668,-66 1678.22,-52.8442 1699.55,-62.1568 1708.69,-57.0856"/>
<polygon fill="blue" stroke="blue" points="1779.21,-258.582 1789.77,-257.796 1781.02,-251.822 1779.21,-258.582"/>
<polygon fill="blue" stroke="blue" points="1711.88,-58.5352 1713,-48 1705.55,-55.5356 1711.88,-58.5352"/>
<text text-anchor="middle" x="1685.5" y="-146.3" font-family="Times New Roman,serif" font-size="14.00"> Excludes</text>
</g>
<!-- Z&#45;&gt;G -->
<g id="edge96" class="edge"><title>Z&#45;&gt;G:n</title>
<path fill="none" stroke="blue" stroke-dasharray="5,2" d="M1498.86,-394.293C1499.15,-385.525 1501.28,-375.975 1508,-370 1526.69,-353.386 1924.81,-375.112 1988.45,-357.535"/>
<polygon fill="blue" stroke="blue" points="1495.36,-394.444 1499.23,-404.307 1502.35,-394.185 1495.36,-394.444"/>
<polygon fill="blue" stroke="blue" points="1990.51,-360.374 1997,-352 1986.7,-354.499 1990.51,-360.374"/>
<text text-anchor="middle" x="1535.5" y="-374.3" font-family="Times New Roman,serif" font-size="14.00"> Excludes</text>
</g>
<!-- Z&#45;&gt;O -->
<g id="edge126" class="edge"><title>Z&#45;&gt;O:n</title>
<path fill="none" stroke="blue" stroke-dasharray="5,2" d="M1492.78,-394.858C1490.7,-386.349 1490.42,-376.847 1496,-370 1520.93,-339.381 1544.94,-362.496 1583,-352 1637.88,-336.868 1658.89,-344.719 1704,-310 1743.07,-279.927 1723.39,-242.818 1766,-218 1785.94,-206.386 1954.45,-221.705 1991.72,-207.037"/>
<polygon fill="blue" stroke="blue" points="1489.49,-396.075 1495.92,-404.499 1496.15,-393.907 1489.49,-396.075"/>
<polygon fill="blue" stroke="blue" points="1994.24,-209.467 1999,-200 1989.38,-204.434 1994.24,-209.467"/>
<text text-anchor="middle" x="1747.5" y="-298.3" font-family="Times New Roman,serif" font-size="14.00"> Excludes</text>
</g>
<!-- Z&#45;&gt;V -->
<g id="edge176" class="edge"><title>Z&#45;&gt;V:n</title>
<path fill="none" stroke="blue" stroke-dasharray="5,2" d="M1465.83,-405.066C1464.54,-404.705 1463.26,-404.349 1462,-404 1430.2,-395.18 1376.02,-396.258 1396,-370 1456.6,-290.373 1552.4,-389.627 1613,-310 1628.92,-289.074 1591.22,-289.913 1575,-234 1561.97,-189.081 1558.47,-175.219 1610,-100 1623.97,-79.6117 1632.04,-77.3465 1654,-66 1674.36,-55.4781 1701.91,-69.1269 1710.4,-57.874"/>
<polygon fill="blue" stroke="blue" points="1465.26,-408.54 1475.83,-407.867 1467.15,-401.8 1465.26,-408.54"/>
<polygon fill="blue" stroke="blue" points="1713.84,-58.5616 1713,-48 1707.07,-56.7796 1713.84,-58.5616"/>
<text text-anchor="middle" x="1602.5" y="-222.3" font-family="Times New Roman,serif" font-size="14.00"> Excludes</text>
</g>
<!-- U&#45;&gt;X -->
<g id="edge208" class="edge"><title>U&#45;&gt;X:n</title>
<path fill="none" stroke="blue" stroke-dasharray="5,2" d="M1336.95,-554.679C1368.83,-544.026 1417.46,-529.235 1461,-522 1474.79,-519.708 1687.7,-519.673 1734.11,-508.603"/>
<polygon fill="blue" stroke="blue" points="1335.56,-551.453 1327.21,-557.977 1337.81,-558.083 1335.56,-551.453"/>
<polygon fill="blue" stroke="blue" points="1735.73,-511.707 1743,-504 1732.51,-505.491 1735.73,-511.707"/>
<text text-anchor="middle" x="1488.5" y="-526.3" font-family="Times New Roman,serif" font-size="14.00"> Excludes</text>
</g>
<!-- U&#45;&gt;G -->
<g id="edge98" class="edge"><title>U&#45;&gt;G:n</title>
<path fill="none" stroke="blue" stroke-dasharray="5,2" d="M1326.78,-550.525C1332.26,-546.596 1337.94,-542.292 1343,-538 1364.93,-519.404 1408.39,-459.085 1434,-446 1480.46,-422.26 1502.8,-450.236 1550,-428 1564.52,-421.157 1562.16,-410.117 1577,-404 1644.08,-376.355 1840.53,-422.909 1903,-386 1910.22,-381.734 1906.13,-374.815 1913,-370 1940.72,-350.56 1985.33,-381.463 1995.08,-362.094"/>
<polygon fill="blue" stroke="blue" points="1324.65,-547.743 1318.45,-556.335 1328.66,-553.484 1324.65,-547.743"/>
<polygon fill="blue" stroke="blue" points="1998.57,-362.478 1997,-352 1991.69,-361.169 1998.57,-362.478"/>
<text text-anchor="middle" x="1461.5" y="-450.3" font-family="Times New Roman,serif" font-size="14.00"> Excludes</text>
</g>
<!-- U&#45;&gt;O -->
<g id="edge128" class="edge"><title>U&#45;&gt;O:n</title>
<path fill="none" stroke="blue" stroke-dasharray="5,2" d="M1289.45,-547.296C1288.03,-544.281 1286.81,-541.129 1286,-538 1284.23,-531.114 1284.94,-529.031 1286,-522 1296.56,-452.082 1284.42,-421.38 1333,-370 1369.81,-331.069 1393.86,-340.35 1446,-328 1481.68,-319.549 1578.95,-329.499 1610,-310 1617.1,-305.54 1614.86,-300.626 1620,-294 1651.68,-253.169 1659.26,-235.187 1708,-218 1735.69,-208.236 1952.19,-227.992 1992.54,-207.67"/>
<polygon fill="blue" stroke="blue" points="1286.49,-549.182 1294.37,-556.262 1292.63,-545.812 1286.49,-549.182"/>
<polygon fill="blue" stroke="blue" points="1995.23,-209.902 1999,-200 1989.88,-205.392 1995.23,-209.902"/>
<text text-anchor="middle" x="1360.5" y="-374.3" font-family="Times New Roman,serif" font-size="14.00"> Excludes</text>
</g>
<!-- U&#45;&gt;J -->
<g id="edge152" class="edge"><title>U&#45;&gt;J:n</title>
<path fill="none" stroke="blue" stroke-dasharray="5,2" d="M1285.82,-548.074C1283.84,-544.885 1282.13,-541.476 1281,-538 1278.81,-531.235 1280.63,-529.101 1281,-522 1286.38,-419.552 1252.93,-374.126 1317,-294 1418.34,-167.25 1499.22,-204.462 1649,-142 1718.71,-112.929 1749.58,-129.875 1808,-82 1814.49,-76.6847 1810.72,-70.1634 1818,-66 1848.13,-48.7663 2405.1,-80.4285 2478.94,-54.4555"/>
<polygon fill="blue" stroke="blue" points="1283.11,-550.297 1291.8,-556.353 1288.78,-546.198 1283.11,-550.297"/>
<polygon fill="blue" stroke="blue" points="2481.38,-56.9832 2487,-48 2477.01,-51.5196 2481.38,-56.9832"/>
<text text-anchor="middle" x="1344.5" y="-298.3" font-family="Times New Roman,serif" font-size="14.00"> Excludes</text>
</g>
<!-- U&#45;&gt;V -->
<g id="edge178" class="edge"><title>U&#45;&gt;V:n</title>
<path fill="none" stroke="blue" stroke-dasharray="5,2" d="M1269.51,-551.123C1263.86,-547.368 1258.4,-542.982 1254,-538 1181.01,-455.31 1177.57,-418.169 1156,-310 1155.13,-305.635 1157,-273.388 1157,-265 1157,-265 1157,-265 1157,-111 1157,-66.2786 1203.68,-77.1131 1247,-66 1270.04,-60.09 1643.46,-71.6944 1704.57,-53.5969"/>
<polygon fill="blue" stroke="blue" points="1268.05,-554.327 1278.42,-556.498 1271.66,-548.334 1268.05,-554.327"/>
<polygon fill="blue" stroke="blue" points="1706.61,-56.4479 1713,-48 1702.73,-50.6166 1706.61,-56.4479"/>
<text text-anchor="middle" x="1183.5" y="-298.3" font-family="Times New Roman,serif" font-size="14.00"> Excludes</text>
</g>
<!-- M&#45;&gt;X -->
<g id="edge210" class="edge"><title>M&#45;&gt;X:n</title>
<path fill="none" stroke="blue" stroke-dasharray="5,2" d="M2325.78,-560.881C2268.4,-551.139 2151.09,-532.17 2051,-522 2035.75,-520.45 1801.33,-520.985 1752.05,-508.846"/>
<polygon fill="blue" stroke="blue" points="2325.33,-564.355 2335.78,-562.588 2326.51,-557.455 2325.33,-564.355"/>
<polygon fill="blue" stroke="blue" points="1753.47,-505.637 1743,-504 1750.16,-511.807 1753.47,-505.637"/>
<text text-anchor="middle" x="2206.5" y="-526.3" font-family="Times New Roman,serif" font-size="14.00"> Excludes</text>
</g>
<!-- M&#45;&gt;G -->
<g id="edge100" class="edge"><title>M&#45;&gt;G:n</title>
<path fill="none" stroke="blue" stroke-dasharray="5,2" d="M2326.28,-554.615C2313.73,-549.819 2299.56,-544.033 2287,-538 2250.03,-520.246 2165.58,-459.933 2127,-446 2082.88,-430.064 2053.21,-463.887 2023,-428 2016.13,-419.84 2018.54,-413.691 2023,-404 2028.14,-392.832 2038.86,-397.168 2044,-386 2046.97,-379.539 2048.03,-375.859 2044,-370 2034.1,-355.602 2010.98,-366.367 2001.34,-361.1"/>
<polygon fill="blue" stroke="blue" points="2325.35,-558.002 2335.94,-558.234 2327.81,-551.447 2325.35,-558.002"/>
<polygon fill="blue" stroke="blue" points="2004.46,-359.518 1997,-352 1998.15,-362.533 2004.46,-359.518"/>
<text text-anchor="middle" x="2186.5" y="-450.3" font-family="Times New Roman,serif" font-size="14.00"> Excludes</text>
</g>
<!-- M&#45;&gt;O -->
<g id="edge130" class="edge"><title>M&#45;&gt;O:n</title>
<path fill="none" stroke="blue" stroke-dasharray="5,2" d="M2341.68,-549.552C2328.67,-537.375 2311.51,-520.424 2298,-504 2246.33,-441.162 2238.81,-421.181 2196,-352 2180.39,-326.78 2179.72,-318.496 2163,-294 2149.46,-274.164 2148.43,-266.111 2129,-252 2110.9,-238.858 2102.21,-243.577 2082,-234 2069.05,-227.863 2067.1,-223.814 2054,-218 2034.53,-209.359 2009.59,-220.324 2001.59,-209.742"/>
<polygon fill="blue" stroke="blue" points="2339.44,-552.254 2349.16,-556.469 2344.19,-547.112 2339.44,-552.254"/>
<polygon fill="blue" stroke="blue" points="2004.95,-208.765 1999,-200 1998.19,-210.564 2004.95,-208.765"/>
<text text-anchor="middle" x="2243.5" y="-374.3" font-family="Times New Roman,serif" font-size="14.00"> Excludes</text>
</g>
<!-- M&#45;&gt;J -->
<g id="edge154" class="edge"><title>M&#45;&gt;J:n</title>
<path fill="none" stroke="blue" stroke-dasharray="5,2" d="M2396,-558.176C2410.15,-553.577 2426.14,-546.994 2439,-538 2455.28,-526.618 2456.86,-520.444 2468,-504 2489.41,-472.396 2497.01,-464.554 2508,-428 2520.86,-385.226 2487.6,-360.72 2518,-328 2549.63,-293.957 2589.6,-344.261 2621,-310 2657.71,-269.939 2673.06,-106.648 2637,-66 2617.33,-43.8293 2515.49,-72.9403 2491.89,-56.9689"/>
<polygon fill="blue" stroke="blue" points="2394.65,-554.928 2386.09,-561.18 2396.68,-561.627 2394.65,-554.928"/>
<polygon fill="blue" stroke="blue" points="2494.86,-55.1066 2487,-48 2488.71,-58.4558 2494.86,-55.1066"/>
<text text-anchor="middle" x="2658.5" y="-298.3" font-family="Times New Roman,serif" font-size="14.00"> Excludes</text>
</g>
<!-- M&#45;&gt;V -->
<g id="edge180" class="edge"><title>M&#45;&gt;V:n</title>
<path fill="none" stroke="blue" stroke-dasharray="5,2" d="M2372.58,-547.623C2379.11,-535.54 2386.62,-519.406 2390,-504 2392.28,-493.581 2391.3,-490.587 2390,-480 2387.09,-456.356 2379.91,-451.644 2377,-428 2373.85,-402.415 2373.15,-395.488 2377,-370 2379.92,-350.679 2376.37,-342.004 2390,-328 2407.35,-310.171 2422.54,-324.15 2443,-310 2464.3,-295.273 2480,-290.892 2480,-265 2480,-265 2480,-265 2480,-111 2480,-90.8769 2489.83,-79.5966 2475,-66 2445.67,-39.1208 1798.93,-84.2314 1720.72,-54.6827"/>
<polygon fill="blue" stroke="blue" points="2369.52,-545.926 2367.65,-556.355 2375.61,-549.369 2369.52,-545.926"/>
<polygon fill="blue" stroke="blue" points="1722.85,-51.899 1713,-48 1718.27,-57.1913 1722.85,-51.899"/>
<text text-anchor="middle" x="2493.5" y="-298.3" font-family="Times New Roman,serif" font-size="14.00"> Excludes</text>
</g>
<!-- I&#45;&gt;X -->
<g id="edge212" class="edge"><title>I&#45;&gt;X:n</title>
<path fill="none" stroke="blue" stroke-dasharray="5,2" d="M2297.83,-133.606C2304.9,-158.719 2312.86,-201.784 2297,-234 2266.92,-295.094 2214.96,-272.15 2176,-328 2168.24,-339.123 2167.43,-377.326 2157,-386 2110.8,-424.429 2062.56,-358.77 2023,-404 2015.98,-412.029 2019.54,-417.911 2023,-428 2026.29,-437.586 2033.71,-436.414 2037,-446 2039.31,-452.726 2041.62,-456.598 2037,-462 2027.16,-473.491 1783.05,-502.529 1768,-504 1762.81,-504.507 1756.99,-507.202 1752.28,-508.777"/>
<polygon fill="blue" stroke="blue" points="2301.09,-132.282 2294.84,-123.73 2294.39,-134.315 2301.09,-132.282"/>
<polygon fill="blue" stroke="blue" points="1753.58,-505.528 1743,-505 1750.94,-512.012 1753.58,-505.528"/>
<text text-anchor="middle" x="2241.5" y="-298.3" font-family="Times New Roman,serif" font-size="14.00"> Excludes</text>
</g>
<!-- I&#45;&gt;G -->
<g id="edge102" class="edge"><title>I&#45;&gt;G:n</title>
<path fill="none" stroke="blue" stroke-dasharray="5,2" d="M2284.7,-133.323C2281.89,-141.246 2278.25,-150.264 2274,-158 2229.92,-238.234 2212.96,-262.023 2135,-310 2084.71,-340.946 2028.77,-356.167 2006.7,-356.359"/>
<polygon fill="blue" stroke="blue" points="2288.05,-134.331 2287.89,-123.737 2281.41,-132.118 2288.05,-134.331"/>
<polygon fill="blue" stroke="blue" points="2007.59,-352.964 1997,-353 2005.3,-359.579 2007.59,-352.964"/>
<text text-anchor="middle" x="2265.5" y="-222.3" font-family="Times New Roman,serif" font-size="14.00"> Excludes</text>
</g>
<!-- I&#45;&gt;J -->
<g id="edge156" class="edge"><title>I&#45;&gt;J:n</title>
<path fill="none" stroke="blue" stroke-dasharray="5,2" d="M2326.63,-111.118C2377.86,-110.442 2468.43,-105.804 2489,-82 2496.42,-73.4103 2491.59,-67.0948 2488.7,-58.0879"/>
<polygon fill="blue" stroke="blue" points="2326.31,-107.621 2316.34,-111.208 2326.37,-114.62 2326.31,-107.621"/>
<polygon fill="blue" stroke="blue" points="2492.12,-57.2772 2487,-48 2485.21,-58.4434 2492.12,-57.2772"/>
<text text-anchor="middle" x="2519.5" y="-70.3" font-family="Times New Roman,serif" font-size="14.00"> Excludes</text>
</g>
<!-- I&#45;&gt;V -->
<g id="edge182" class="edge"><title>I&#45;&gt;V:n</title>
<path fill="none" stroke="blue" stroke-dasharray="5,2" d="M2255.92,-106.857C2235.53,-104.567 2209.34,-101.825 2186,-100 2108.8,-93.9638 1911.26,-107.074 1838,-82 1826.22,-77.968 1826.51,-70.7485 1815,-66 1797.13,-58.6286 1737.33,-67.1775 1718.64,-56.4702"/>
<polygon fill="blue" stroke="blue" points="2255.67,-110.352 2266,-108.006 2256.46,-103.397 2255.67,-110.352"/>
<polygon fill="blue" stroke="blue" points="1721.45,-54.3867 1713,-48 1715.63,-58.2644 1721.45,-54.3867"/>
<text text-anchor="middle" x="1865.5" y="-70.3" font-family="Times New Roman,serif" font-size="14.00"> Excludes</text>
</g>
<!-- N&#45;&gt;X -->
<g id="edge214" class="edge"><title>N&#45;&gt;X:n</title>
<path fill="none" stroke="blue" stroke-dasharray="5,2" d="M1405.18,-556.12C1456.86,-545.453 1474.6,-556.735 1520,-538 1531.18,-533.388 1530.68,-526.248 1542,-522 1560.37,-515.106 1700.48,-523.663 1735.22,-510.888"/>
<polygon fill="blue" stroke="blue" points="1404.11,-552.773 1395.12,-558.379 1405.65,-559.602 1404.11,-552.773"/>
<polygon fill="blue" stroke="blue" points="1737.84,-513.251 1743,-504 1733.19,-508.011 1737.84,-513.251"/>
<text text-anchor="middle" x="1569.5" y="-526.3" font-family="Times New Roman,serif" font-size="14.00"> Excludes</text>
</g>
<!-- N&#45;&gt;G -->
<g id="edge104" class="edge"><title>N&#45;&gt;G:n</title>
<path fill="none" stroke="blue" stroke-dasharray="5,2" d="M1383.58,-547.945C1398.15,-528.653 1422.88,-499.027 1450,-480 1466.96,-468.1 1474.12,-470.523 1493,-462 1507.86,-455.295 1510.65,-451.489 1526,-446 1601.31,-419.062 1622.04,-416.801 1701,-404 1747.02,-396.54 1870.24,-410.328 1910,-386 1917.15,-381.624 1913.18,-374.879 1920,-370 1945.01,-352.109 1985.21,-378.654 1994.86,-362.025"/>
<polygon fill="blue" stroke="blue" points="1380.58,-546.125 1377.46,-556.25 1386.21,-550.281 1380.58,-546.125"/>
<polygon fill="blue" stroke="blue" points="1998.34,-362.51 1997,-352 1991.49,-361.051 1998.34,-362.51"/>
<text text-anchor="middle" x="1553.5" y="-450.3" font-family="Times New Roman,serif" font-size="14.00"> Excludes</text>
</g>
<!-- N&#45;&gt;O -->
<g id="edge132" class="edge"><title>N&#45;&gt;O:n</title>
<path fill="none" stroke="blue" stroke-dasharray="5,2" d="M1366.58,-546.367C1364.99,-538.601 1362.82,-529.773 1360,-522 1347.57,-487.704 1305.53,-473.927 1329,-446 1358.9,-410.423 1401.8,-463.317 1432,-428 1448.76,-408.406 1417.63,-390.698 1433,-370 1485.04,-299.926 1542.61,-350.366 1620,-310 1630.4,-304.574 1631.61,-301.039 1641,-294 1686.52,-259.871 1690.62,-237.672 1744,-218 1767.84,-209.214 1953.08,-224.472 1991.88,-207.457"/>
<polygon fill="blue" stroke="blue" points="1363.18,-547.222 1368.44,-556.416 1370.06,-545.946 1363.18,-547.222"/>
<polygon fill="blue" stroke="blue" points="1994.63,-209.651 1999,-200 1989.56,-204.818 1994.63,-209.651"/>
<text text-anchor="middle" x="1460.5" y="-374.3" font-family="Times New Roman,serif" font-size="14.00"> Excludes</text>
</g>
<!-- N&#45;&gt;V -->
<g id="edge184" class="edge"><title>N&#45;&gt;V:n</title>
<path fill="none" stroke="blue" stroke-dasharray="5,2" d="M1363.4,-546.633C1360.15,-538.474 1355.69,-529.299 1350,-522 1342.02,-511.765 1335.02,-514.208 1327,-504 1324.25,-500.493 1246.21,-324.848 1243,-310 1238.77,-290.448 1242,-285.005 1242,-265 1242,-265 1242,-265 1242,-111 1242,-33.2718 1334.26,-78.3746 1411,-66 1425.84,-63.6064 1655.79,-64.5409 1704.13,-52.734"/>
<polygon fill="blue" stroke="blue" points="1360.17,-547.995 1366.86,-556.205 1366.75,-545.611 1360.17,-547.995"/>
<polygon fill="blue" stroke="blue" points="1705.82,-55.7949 1713,-48 1702.53,-49.6187 1705.82,-55.7949"/>
<text text-anchor="middle" x="1270.5" y="-298.3" font-family="Times New Roman,serif" font-size="14.00"> Excludes</text>
</g>
<!-- P&#45;&gt;X -->
<g id="edge216" class="edge"><title>P&#45;&gt;X:n</title>
<path fill="none" stroke="blue" stroke-dasharray="5,2" d="M2206.51,-564.29C2158.5,-560.289 2070.3,-551.753 1996,-538 1967.59,-532.742 1961.46,-526.933 1933,-522 1914.8,-518.846 1784.13,-523.619 1750.75,-510.886"/>
<polygon fill="blue" stroke="blue" points="2206.44,-567.796 2216.69,-565.12 2207.01,-560.819 2206.44,-567.796"/>
<polygon fill="blue" stroke="blue" points="1752.8,-508.025 1743,-504 1748.15,-513.258 1752.8,-508.025"/>
<text text-anchor="middle" x="2023.5" y="-526.3" font-family="Times New Roman,serif" font-size="14.00"> Excludes</text>
</g>
<!-- P&#45;&gt;G -->
<g id="edge106" class="edge"><title>P&#45;&gt;G:n</title>
<path fill="none" stroke="blue" stroke-dasharray="5,2" d="M2220.56,-550.223C2191.02,-527.44 2138.97,-488.567 2117,-480 2061.84,-458.491 2028.35,-502.334 1985,-462 1954.62,-433.728 1949.11,-406.427 1969,-370 1973.65,-361.479 1984.26,-362.761 1991,-360.468"/>
<polygon fill="blue" stroke="blue" points="2218.55,-553.094 2228.6,-556.454 2222.84,-547.561 2218.55,-553.094"/>
<polygon fill="blue" stroke="blue" points="1994.07,-362.183 1997,-352 1988.36,-358.135 1994.07,-362.183"/>
<text text-anchor="middle" x="2012.5" y="-450.3" font-family="Times New Roman,serif" font-size="14.00"> Excludes</text>
</g>
<!-- P&#45;&gt;O -->
<g id="edge134" class="edge"><title>P&#45;&gt;O:n</title>
<path fill="none" stroke="blue" stroke-dasharray="5,2" d="M2245.41,-546.335C2248.58,-521.451 2250.95,-478.899 2237,-446 2226.93,-422.269 2219.44,-416.679 2197,-404 2164.89,-385.861 2139.08,-414.767 2116,-386 2087.99,-351.081 2176.67,-334.214 2157,-294 2143.64,-266.687 2129.43,-267.029 2103,-252 2083.92,-241.148 2073.9,-248.018 2057,-234 2050.55,-228.645 2053.49,-223.309 2047,-218 2033.08,-206.619 2011.24,-216.177 2002.65,-209.523"/>
<polygon fill="blue" stroke="blue" points="2241.92,-546.03 2243.96,-556.427 2248.85,-547.03 2241.92,-546.03"/>
<polygon fill="blue" stroke="blue" points="2005.85,-208.086 1999,-200 1999.31,-210.59 2005.85,-208.086"/>
<text text-anchor="middle" x="2143.5" y="-374.3" font-family="Times New Roman,serif" font-size="14.00"> Excludes</text>
</g>
<!-- P&#45;&gt;J -->
<g id="edge158" class="edge"><title>P&#45;&gt;J:n</title>
<path fill="none" stroke="blue" stroke-dasharray="5,2" d="M2261.37,-549.835C2271.07,-541.344 2283.05,-531.01 2294,-522 2304.02,-513.75 2308.68,-513.965 2317,-504 2341.46,-474.698 2339.57,-461.961 2357,-428 2358.42,-425.237 2404.48,-329.812 2407,-328 2454.02,-294.228 2490.85,-346.235 2536,-310 2621.76,-241.169 2646.72,-151.04 2577,-66 2553.87,-37.7809 2500.1,-78.2855 2489.02,-57.9447"/>
<polygon fill="blue" stroke="blue" points="2259.03,-547.232 2253.84,-556.464 2263.66,-552.489 2259.03,-547.232"/>
<polygon fill="blue" stroke="blue" points="2492.42,-57.103 2487,-48 2485.56,-58.4966 2492.42,-57.103"/>
<text text-anchor="middle" x="2580.5" y="-298.3" font-family="Times New Roman,serif" font-size="14.00"> Excludes</text>
</g>
<!-- P&#45;&gt;V -->
<g id="edge186" class="edge"><title>P&#45;&gt;V:n</title>
<path fill="none" stroke="blue" stroke-dasharray="5,2" d="M2254.24,-547.551C2259.33,-539.574 2265.37,-530.286 2271,-522 2289.45,-494.87 2298.29,-490.804 2314,-462 2344.66,-405.772 2340.88,-386.475 2367,-328 2370.65,-319.834 2373.95,-318.705 2376,-310 2391.52,-244.26 2536.09,-344.22 2364,-100 2352.3,-83.3988 2337.42,-95.2155 2322,-82 2315.63,-76.5431 2319.27,-70.1749 2312,-66 2285.16,-50.5906 1790.5,-77.0509 1721.07,-54.0958"/>
<polygon fill="blue" stroke="blue" points="2251.17,-545.855 2248.77,-556.173 2257.08,-549.605 2251.17,-545.855"/>
<polygon fill="blue" stroke="blue" points="1723.09,-51.2349 1713,-48 1718.87,-56.8204 1723.09,-51.2349"/>
<text text-anchor="middle" x="2411.5" y="-298.3" font-family="Times New Roman,serif" font-size="14.00"> Excludes</text>
</g>
<!-- Q&#45;&gt;X -->
<g id="edge218" class="edge"><title>Q&#45;&gt;X:n</title>
<path fill="none" stroke="blue" stroke-dasharray="5,2" d="M1985.07,-559.964C1921.08,-546.973 1788.3,-519.512 1752.22,-508.151"/>
<polygon fill="blue" stroke="blue" points="1984.43,-563.406 1994.93,-561.962 1985.82,-556.546 1984.43,-563.406"/>
<polygon fill="blue" stroke="blue" points="1753.56,-504.914 1743,-504 1750.68,-511.297 1753.56,-504.914"/>
<text text-anchor="middle" x="1901.5" y="-526.3" font-family="Times New Roman,serif" font-size="14.00"> Excludes</text>
</g>
<!-- Q&#45;&gt;G -->
<g id="edge108" class="edge"><title>Q&#45;&gt;G:n</title>
<path fill="none" stroke="blue" stroke-dasharray="5,2" d="M1985.95,-551.886C1953.51,-535.256 1907.15,-505.049 1890,-462 1880.01,-436.927 1889.38,-423.537 1908,-404 1920.62,-390.763 1931.4,-398.229 1945,-386 1951.23,-380.392 1948.63,-375.457 1955,-370 1966.57,-360.088 1984.41,-366.343 1992.61,-361.522"/>
<polygon fill="blue" stroke="blue" points="1984.6,-555.119 1995.11,-556.413 1987.7,-548.844 1984.6,-555.119"/>
<polygon fill="blue" stroke="blue" points="1995.99,-362.546 1997,-352 1989.63,-359.613 1995.99,-362.546"/>
<text text-anchor="middle" x="1917.5" y="-450.3" font-family="Times New Roman,serif" font-size="14.00"> Excludes</text>
</g>
<!-- Q&#45;&gt;O -->
<g id="edge136" class="edge"><title>Q&#45;&gt;O:n</title>
<path fill="none" stroke="blue" stroke-dasharray="5,2" d="M1985.67,-554.125C1979.02,-550.009 1972.91,-544.719 1969,-538 1965.42,-531.853 1966.1,-528.491 1969,-522 1980.44,-496.429 1990.89,-492.418 2016,-480 2054.13,-461.145 2082.9,-494.785 2110,-462 2114.53,-456.519 2114.49,-451.514 2110,-446 2085.07,-415.381 2050.04,-456.774 2023,-428 2005.25,-409.115 2007.53,-394.122 2017,-370 2019.33,-364.072 2050.59,-331.354 2056,-328 2080.03,-313.113 2100.08,-332.64 2117,-310 2121.26,-304.304 2120.18,-300.36 2117,-294 2111.04,-282.074 2103.16,-284.633 2093,-276 2081.26,-266.028 2080.09,-261.543 2068,-252 2056.39,-242.834 2051.2,-243.662 2040,-234 2032.84,-227.829 2033.1,-224.23 2026,-218 2018.88,-211.759 2009.48,-212.169 2003.86,-209.112"/>
<polygon fill="blue" stroke="blue" points="1984.45,-557.438 1994.92,-559.034 1987.73,-551.255 1984.45,-557.438"/>
<polygon fill="blue" stroke="blue" points="2006.79,-207.179 1999,-200 2000.61,-210.471 2006.79,-207.179"/>
<text text-anchor="middle" x="2044.5" y="-374.3" font-family="Times New Roman,serif" font-size="14.00"> Excludes</text>
</g>
<!-- Q&#45;&gt;V -->
<g id="edge188" class="edge"><title>Q&#45;&gt;V:n</title>
<path fill="none" stroke="blue" stroke-dasharray="5,2" d="M2036.05,-548.339C2038.78,-544.959 2041.53,-541.42 2044,-538 2048.91,-531.199 2047.21,-526.92 2054,-522 2081.06,-502.395 2103.43,-527.687 2127,-504 2145.71,-485.203 2122.96,-465.433 2141,-446 2158.79,-426.842 2174,-440.423 2197,-428 2223.14,-413.882 2236.19,-412.806 2249,-386 2252.07,-379.584 2251.19,-376.766 2249,-370 2245.96,-360.61 2239.04,-361.39 2236,-352 2232.72,-341.851 2230.3,-337.013 2236,-328 2245.99,-312.209 2260.74,-323.17 2274,-310 2312.5,-271.754 2314.92,-252.906 2327,-200 2336.9,-156.662 2355.84,-132.012 2325,-100 2319.53,-94.3248 1801.85,-62.0361 1723.02,-50.4241"/>
<polygon fill="blue" stroke="blue" points="2033.17,-546.329 2029.47,-556.256 2038.55,-550.804 2033.17,-546.329"/>
<polygon fill="blue" stroke="blue" points="1723.54,-46.9505 1713,-48 1721.9,-53.7541 1723.54,-46.9505"/>
<text text-anchor="middle" x="2315.5" y="-298.3" font-family="Times New Roman,serif" font-size="14.00"> Excludes</text>
</g>
<!-- F&#45;&gt;X -->
<g id="edge220" class="edge"><title>F&#45;&gt;X:n</title>
<path fill="none" stroke="blue" stroke-dasharray="5,2" d="M1261.29,-551.617C1281.3,-541.185 1309.48,-528.205 1336,-522 1356.06,-517.307 1676.76,-524.995 1734.22,-509.35"/>
<polygon fill="blue" stroke="blue" points="1259.61,-548.545 1252.44,-556.344 1262.91,-554.72 1259.61,-548.545"/>
<polygon fill="blue" stroke="blue" points="1736.28,-512.192 1743,-504 1732.64,-506.214 1736.28,-512.192"/>
<text text-anchor="middle" x="1363.5" y="-526.3" font-family="Times New Roman,serif" font-size="14.00"> Excludes</text>
</g>
<!-- F&#45;&gt;G -->
<g id="edge110" class="edge"><title>F&#45;&gt;G:n</title>
<path fill="none" stroke="blue" stroke-dasharray="5,2" d="M1249.61,-548.601C1276.17,-517.798 1329.72,-457.978 1355,-446 1427.65,-411.571 1466.71,-470.429 1535,-428 1545.68,-421.362 1539.65,-411.141 1550,-404 1583.94,-380.594 1603.41,-402.931 1641,-386 1651.7,-381.181 1650.99,-374.05 1662,-370 1677.75,-364.208 1936.72,-369.363 1988.16,-356.843"/>
<polygon fill="blue" stroke="blue" points="1246.73,-546.584 1242.88,-556.455 1252.04,-551.138 1246.73,-546.584"/>
<polygon fill="blue" stroke="blue" points="1989.91,-359.874 1997,-352 1986.55,-353.735 1989.91,-359.874"/>
<text text-anchor="middle" x="1382.5" y="-450.3" font-family="Times New Roman,serif" font-size="14.00"> Excludes</text>
</g>
<!-- F&#45;&gt;O -->
<g id="edge138" class="edge"><title>F&#45;&gt;O:n</title>
<path fill="none" stroke="blue" stroke-dasharray="5,2" d="M1229.52,-546.397C1217.58,-489.026 1188.22,-329.336 1223,-294 1281.9,-234.17 1513.5,-249.543 1596,-234 1629.07,-227.77 1636.65,-222.489 1670,-218 1686.3,-215.806 1938.88,-217.801 1990.01,-204.953"/>
<polygon fill="blue" stroke="blue" points="1226.15,-547.384 1231.65,-556.439 1233,-545.931 1226.15,-547.384"/>
<polygon fill="blue" stroke="blue" points="1991.93,-207.892 1999,-200 1988.55,-201.762 1991.93,-207.892"/>
<text text-anchor="middle" x="1234.5" y="-374.3" font-family="Times New Roman,serif" font-size="14.00"> Excludes</text>
</g>
<!-- F&#45;&gt;J -->
<g id="edge160" class="edge"><title>F&#45;&gt;J:n</title>
<path fill="none" stroke="blue" stroke-dasharray="5,2" d="M1212.66,-549.582C1160.66,-505.019 1036,-384.037 1097,-294 1173.63,-180.884 1534.12,-93.2699 1668,-66 1688.88,-61.7465 2388.98,-69.6309 2477.77,-51.9576"/>
<polygon fill="blue" stroke="blue" points="1210.72,-552.527 1220.62,-556.296 1215.23,-547.175 1210.72,-552.527"/>
<polygon fill="blue" stroke="blue" points="2479.19,-55.1581 2487,-48 2476.43,-48.7247 2479.19,-55.1581"/>
<text text-anchor="middle" x="1124.5" y="-298.3" font-family="Times New Roman,serif" font-size="14.00"> Excludes</text>
</g>
<!-- F&#45;&gt;V -->
<g id="edge190" class="edge"><title>F&#45;&gt;V:n</title>
<path fill="none" stroke="blue" stroke-dasharray="5,2" d="M1198.38,-563.174C1133.11,-555.167 1001,-533.908 1001,-493 1001,-493 1001,-493 1001,-111 1001,-34.1304 1091.97,-77.3438 1168,-66 1181.78,-63.9437 1631.42,-63.2564 1703.34,-51.3676"/>
<polygon fill="blue" stroke="blue" points="1198.28,-566.686 1208.62,-564.389 1199.1,-559.735 1198.28,-566.686"/>
<polygon fill="blue" stroke="blue" points="1704.71,-54.597 1713,-48 1702.41,-47.9871 1704.71,-54.597"/>
<text text-anchor="middle" x="1028.5" y="-298.3" font-family="Times New Roman,serif" font-size="14.00"> Excludes</text>
</g>
<!-- F&#45;&gt;Y -->
<g id="edge86" class="edge"><title>F&#45;&gt;Y:n</title>
<path fill="none" stroke="red" d="M1238.04,-556.489C1241.93,-547.032 1248.33,-532.977 1256,-522 1282.83,-483.611 1291.03,-473.419 1329,-446 1364.13,-420.629 1376.81,-420.216 1417,-404 1440.46,-394.534 1448.17,-396.902 1471,-386 1482.9,-380.315 1483.79,-375.005 1496,-370 1614.96,-321.223 1665.13,-369.701 1779,-310 1782.54,-308.144 1799.94,-293.941 1809.19,-284.202"/>
<polygon fill="red" stroke="red" points="1812.08,-286.184 1815,-276 1806.36,-282.138 1812.08,-286.184"/>
<text text-anchor="middle" x="1442" y="-412.3" font-family="Times New Roman,serif" font-size="14.00">Requires</text>
</g>
<!-- T&#45;&gt;X -->
<g id="edge222" class="edge"><title>T&#45;&gt;X:n</title>
<path fill="none" stroke="blue" stroke-dasharray="5,2" d="M2387.75,-642.477C2357.02,-640.557 2312.29,-634.117 2279,-614 2271.16,-609.261 2274.16,-602.158 2266,-598 2199.57,-564.165 2003.29,-598.21 1931,-580 1906.71,-573.881 1903.62,-564.336 1880,-556 1848.08,-544.737 1833.44,-557.815 1806,-538 1799.2,-533.091 1802.57,-527.206 1796,-522 1780.15,-509.451 1755.07,-521.834 1746.22,-513.575"/>
<polygon fill="blue" stroke="blue" points="2387.83,-645.985 2397.99,-642.982 2388.18,-638.993 2387.83,-645.985"/>
<polygon fill="blue" stroke="blue" points="1749.5,-512.363 1743,-504 1742.87,-514.594 1749.5,-512.363"/>
<text text-anchor="middle" x="1958.5" y="-564.3" font-family="Times New Roman,serif" font-size="14.00"> Excludes</text>
</g>
<!-- T&#45;&gt;G -->
<g id="edge112" class="edge"><title>T&#45;&gt;G:n</title>
<path fill="none" stroke="blue" stroke-dasharray="5,2" d="M2429.7,-622.531C2431.25,-614.688 2431.75,-605.764 2429,-598 2420.98,-575.36 2412.2,-572.762 2395,-556 2375.14,-536.643 2222.62,-414.625 2197,-404 2140.68,-380.642 2112.27,-418.999 2061,-386 2053.95,-381.461 2057.59,-375.188 2051,-370 2034.85,-357.285 2009.3,-370.05 2000.28,-361.714"/>
<polygon fill="blue" stroke="blue" points="2426.28,-621.786 2427.15,-632.345 2433.06,-623.552 2426.28,-621.786"/>
<polygon fill="blue" stroke="blue" points="2003.52,-360.355 1997,-352 1996.88,-362.594 2003.52,-360.355"/>
<text text-anchor="middle" x="2358.5" y="-488.3" font-family="Times New Roman,serif" font-size="14.00"> Excludes</text>
</g>
<!-- T&#45;&gt;O -->
<g id="edge140" class="edge"><title>T&#45;&gt;O:n</title>
<path fill="none" stroke="blue" stroke-dasharray="5,2" d="M2433.71,-622.975C2449.39,-590.696 2474.03,-526.121 2448,-480 2441.24,-468.018 2242.76,-363.982 2236,-352 2230.76,-342.711 2229.06,-336.1 2236,-328 2270.96,-287.202 2384.04,-337.125 2352,-294 2296.91,-219.848 2230.65,-284.036 2153,-234 2145.06,-228.882 2147.34,-222.446 2139,-218 2114.67,-205.027 2024.96,-225.184 2003.59,-208.96"/>
<polygon fill="blue" stroke="blue" points="2430.41,-621.753 2429.02,-632.256 2436.66,-624.915 2430.41,-621.753"/>
<polygon fill="blue" stroke="blue" points="2006.68,-207.303 1999,-200 2000.45,-210.496 2006.68,-207.303"/>
<text text-anchor="middle" x="2389.5" y="-412.3" font-family="Times New Roman,serif" font-size="14.00"> Excludes</text>
</g>
<!-- T&#45;&gt;J -->
<g id="edge162" class="edge"><title>T&#45;&gt;J:n</title>
<path fill="none" stroke="blue" stroke-dasharray="5,2" d="M2458.25,-643.472C2510.65,-642.122 2603,-630.956 2603,-569 2603,-569 2603,-569 2603,-453 2603,-397.301 2557.71,-370.251 2594,-328 2628.57,-287.758 2677.43,-350.242 2712,-310 2716.63,-304.606 2712.37,-301.101 2712,-294 2710.44,-264.101 2705,-256.94 2705,-227 2705,-227 2705,-227 2705,-111 2705,-85.9332 2692.87,-78.2509 2671,-66 2655.46,-57.2939 2528.5,-65.5991 2495.05,-54.5625"/>
<polygon fill="blue" stroke="blue" points="2457.97,-639.975 2448.03,-643.624 2458.08,-646.974 2457.97,-639.975"/>
<polygon fill="blue" stroke="blue" points="2496.96,-51.6045 2487,-48 2492.54,-57.0307 2496.96,-51.6045"/>
<text text-anchor="middle" x="2621.5" y="-336.3" font-family="Times New Roman,serif" font-size="14.00"> Excludes</text>
</g>
<!-- T&#45;&gt;V -->
<g id="edge192" class="edge"><title>T&#45;&gt;V:n</title>
<path fill="none" stroke="blue" stroke-dasharray="5,2" d="M2458.46,-639.867C2527.01,-632.826 2671,-612.823 2671,-569 2671,-569 2671,-569 2671,-377 2671,-335.856 2722.88,-333.68 2712,-294 2680.19,-177.952 2675.56,-115.758 2566,-66 2545.77,-56.8124 1813.76,-69.8611 1722.34,-52.0001"/>
<polygon fill="blue" stroke="blue" points="2457.75,-636.42 2448.14,-640.887 2458.44,-643.386 2457.75,-636.42"/>
<polygon fill="blue" stroke="blue" points="1723.57,-48.7185 1713,-48 1720.82,-55.1535 1723.57,-48.7185"/>
<text text-anchor="middle" x="2729.5" y="-336.3" font-family="Times New Roman,serif" font-size="14.00"> Excludes</text>
</g>
<!-- T&#45;&gt;M -->
<g id="edge90" class="edge"><title>T&#45;&gt;M:n</title>
<path fill="none" stroke="red" d="M2401.66,-632.426C2386.32,-623.39 2367.47,-608.854 2362.34,-589.95"/>
<polygon fill="red" stroke="red" points="2365.8,-589.443 2361,-580 2358.87,-590.378 2365.8,-589.443"/>
<text text-anchor="middle" x="2400" y="-602.3" font-family="Times New Roman,serif" font-size="14.00">Requires</text>
</g>
<!-- T&#45;&gt;P -->
<g id="edge92" class="edge"><title>T&#45;&gt;P:n</title>
<path fill="none" stroke="red" d="M2397.74,-638.274C2374.87,-633.558 2340.49,-625.373 2312,-614 2298.33,-608.542 2296.2,-604.521 2283,-598 2269.34,-591.25 2252.56,-595.95 2245.45,-589.593"/>
<polygon fill="red" stroke="red" points="2248.68,-588.226 2242,-580 2242.09,-590.594 2248.68,-588.226"/>
<text text-anchor="middle" x="2337" y="-602.3" font-family="Times New Roman,serif" font-size="14.00">Requires</text>
</g>
<!-- S&#45;&gt;X -->
<g id="edge224" class="edge"><title>S&#45;&gt;X:n</title>
<path fill="none" stroke="blue" stroke-dasharray="5,2" d="M1725.04,-546.409C1724.06,-538.551 1724.09,-529.648 1727,-522 1729.14,-516.372 1733.93,-514.767 1737.72,-512.535"/>
<polygon fill="blue" stroke="blue" points="1721.59,-547.047 1726.82,-556.262 1728.48,-545.798 1721.59,-547.047"/>
<polygon fill="blue" stroke="blue" points="1740.72,-514.346 1743,-504 1734.76,-510.663 1740.72,-514.346"/>
<text text-anchor="middle" x="1754.5" y="-526.3" font-family="Times New Roman,serif" font-size="14.00"> Excludes</text>
</g>
<!-- S&#45;&gt;G -->
<g id="edge114" class="edge"><title>S&#45;&gt;G:n</title>
<path fill="none" stroke="blue" stroke-dasharray="5,2" d="M1764.53,-557.883C1774.87,-553.503 1785.24,-547.143 1792,-538 1816.56,-504.799 1781.13,-479.695 1805,-446 1806.47,-443.932 1883.7,-405.055 1886,-404 1905.58,-395.032 1914.47,-399.817 1931,-386 1937.43,-380.621 1934.38,-375.152 1941,-370 1957.92,-356.824 1984.76,-370.745 1993.86,-361.742"/>
<polygon fill="blue" stroke="blue" points="1763.3,-554.605 1755.15,-561.372 1765.74,-561.166 1763.3,-554.605"/>
<polygon fill="blue" stroke="blue" points="1997.27,-362.591 1997,-352 1990.6,-360.447 1997.27,-362.591"/>
<text text-anchor="middle" x="1832.5" y="-450.3" font-family="Times New Roman,serif" font-size="14.00"> Excludes</text>
</g>
<!-- S&#45;&gt;O -->
<g id="edge142" class="edge"><title>S&#45;&gt;O:n</title>
<path fill="none" stroke="blue" stroke-dasharray="5,2" d="M1716.77,-547.729C1703.72,-527.446 1684.63,-494.068 1677,-462 1669.03,-428.504 1693.15,-376.638 1700,-370 1722.14,-348.542 1740.89,-368.402 1767,-352 1774.2,-347.474 1810.42,-299.389 1817,-294 1829.63,-283.665 1835.4,-285.015 1849,-276 1884.12,-252.72 1886,-236.211 1924,-218 1951.05,-205.037 1988.18,-227.224 1997.05,-210.008"/>
<polygon fill="blue" stroke="blue" points="1714.02,-549.911 1722.45,-556.324 1719.86,-546.051 1714.02,-549.911"/>
<polygon fill="blue" stroke="blue" points="2000.52,-210.486 1999,-200 1993.65,-209.144 2000.52,-210.486"/>
<text text-anchor="middle" x="1727.5" y="-374.3" font-family="Times New Roman,serif" font-size="14.00"> Excludes</text>
</g>
<!-- S&#45;&gt;J -->
<g id="edge164" class="edge"><title>S&#45;&gt;J:n</title>
<path fill="none" stroke="blue" stroke-dasharray="5,2" d="M1764.53,-553.733C1771.28,-549.648 1777.61,-544.47 1782,-538 1805.14,-503.872 1775.36,-482.779 1794,-446 1806.22,-421.887 1814.19,-416.797 1838,-404 1869.72,-386.954 1889.32,-409.031 1917,-386 1927.79,-377.024 1933.82,-339.403 1942,-328 1948.97,-318.284 1954.21,-319.077 1962,-310 1982.06,-286.609 1977.78,-273.356 2000,-252 2011.21,-241.225 2016.8,-242.211 2030,-234 2082.97,-201.06 2104.19,-202.409 2148,-158 2153.89,-152.03 2151.62,-147.445 2158,-142 2176.17,-126.482 2233.79,-105.693 2257,-100 2305.72,-88.0511 2445.38,-116.275 2482,-82 2490.45,-74.0908 2488.96,-67.4148 2487.75,-57.998"/>
<polygon fill="blue" stroke="blue" points="1762.43,-550.883 1755.22,-558.644 1765.7,-557.075 1762.43,-550.883"/>
<polygon fill="blue" stroke="blue" points="2491.24,-57.7104 2487,-48 2484.26,-58.2336 2491.24,-57.7104"/>
<text text-anchor="middle" x="2001.5" y="-298.3" font-family="Times New Roman,serif" font-size="14.00"> Excludes</text>
</g>
<!-- S&#45;&gt;V -->
<g id="edge194" class="edge"><title>S&#45;&gt;V:n</title>
<path fill="none" stroke="blue" stroke-dasharray="5,2" d="M1694.6,-565.666C1668.52,-563.105 1633.33,-556.193 1608,-538 1601.19,-533.109 1603.86,-528.001 1598,-522 1564.16,-487.331 1543.5,-493.85 1507,-462 1499.88,-455.788 1500.05,-452.292 1493,-446 1482.52,-436.64 1476.7,-438.169 1467,-428 1458.32,-418.899 1462.58,-410.808 1452,-404 1400.73,-371.001 1356.19,-431.855 1316,-386 1311.31,-380.652 1312.12,-375.959 1316,-370 1328.6,-350.658 1389.8,-337.124 1411,-328 1430.03,-319.811 1438.93,-324.217 1454,-310 1470.19,-294.724 1476,-287.262 1476,-265 1476,-265 1476,-265 1476,-111 1476,-43.0988 1556.16,-82.6102 1622,-66 1638.55,-61.824 1690.1,-66.3572 1707.33,-56.3317"/>
<polygon fill="blue" stroke="blue" points="1694.56,-569.174 1704.81,-566.494 1695.12,-562.197 1694.56,-569.174"/>
<polygon fill="blue" stroke="blue" points="1710.26,-58.2356 1713,-48 1704.48,-54.2955 1710.26,-58.2356"/>
<text text-anchor="middle" x="1496.5" y="-298.3" font-family="Times New Roman,serif" font-size="14.00"> Excludes</text>
</g>
<!-- H&#45;&gt;X -->
<g id="edge226" class="edge"><title>H&#45;&gt;X:n</title>
<path fill="none" stroke="blue" stroke-dasharray="5,2" d="M2154.75,-640.435C2074.2,-634.022 1879.36,-615.219 1825,-580 1811.96,-571.555 1798,-531.858 1786,-522 1773.74,-511.932 1755.05,-518.874 1746.96,-513.383"/>
<polygon fill="blue" stroke="blue" points="2154.65,-643.938 2164.89,-641.225 2155.19,-636.959 2154.65,-643.938"/>
<polygon fill="blue" stroke="blue" points="1750.11,-511.853 1743,-504 1743.66,-514.574 1750.11,-511.853"/>
<text text-anchor="middle" x="1852.5" y="-564.3" font-family="Times New Roman,serif" font-size="14.00"> Excludes</text>
</g>
<!-- H&#45;&gt;G -->
<g id="edge116" class="edge"><title>H&#45;&gt;G:n</title>
<path fill="none" stroke="blue" stroke-dasharray="5,2" d="M2173.63,-624.25C2171.2,-620.964 2168.89,-617.479 2167,-614 2156.7,-595.044 2151.13,-537.378 2136,-522 2122.02,-507.797 1981.26,-475.919 1967,-462 1955.42,-450.699 1956.94,-443.909 1954,-428 1949.27,-402.411 1945.97,-390.502 1962,-370 1969.74,-360.094 1984.44,-364.166 1992.09,-360.744"/>
<polygon fill="blue" stroke="blue" points="2171.11,-626.707 2180.08,-632.343 2176.58,-622.343 2171.11,-626.707"/>
<polygon fill="blue" stroke="blue" points="1995.15,-362.433 1997,-352 1989.05,-359.005 1995.15,-362.433"/>
<text text-anchor="middle" x="2119.5" y="-488.3" font-family="Times New Roman,serif" font-size="14.00"> Excludes</text>
</g>
<!-- H&#45;&gt;O -->
<g id="edge144" class="edge"><title>H&#45;&gt;O:n</title>
<path fill="none" stroke="blue" stroke-dasharray="5,2" d="M2183.64,-622.606C2182.96,-619.741 2182.38,-616.814 2182,-614 2181.05,-606.953 2181.31,-605.077 2182,-598 2185.35,-563.734 2187.96,-555.221 2197,-522 2204.42,-494.739 2213.27,-489.853 2218,-462 2219.19,-454.989 2222.44,-451.553 2218,-446 2195.23,-417.542 2168.52,-447.916 2138,-428 2118.57,-415.322 2114.25,-408.038 2107,-386 2099.95,-364.565 2121.11,-330.789 2124,-310 2124.98,-302.957 2126.97,-300.461 2124,-294 2118.86,-282.832 2111.28,-285.084 2103,-276 2094.19,-266.34 2095.92,-260.511 2086,-252 2072.42,-240.352 2063.73,-245.462 2050,-234 2043.18,-228.304 2044.91,-223.588 2038,-218 2026.87,-208.999 2010.5,-214.113 2003.01,-209.179"/>
<polygon fill="blue" stroke="blue" points="2180.31,-623.69 2186.34,-632.401 2187.06,-621.83 2180.31,-623.69"/>
<polygon fill="blue" stroke="blue" points="2006.21,-207.765 1999,-200 1999.79,-210.565 2006.21,-207.765"/>
<text text-anchor="middle" x="2165.5" y="-412.3" font-family="Times New Roman,serif" font-size="14.00"> Excludes</text>
</g>
<!-- H&#45;&gt;J -->
<g id="edge166" class="edge"><title>H&#45;&gt;J:n</title>
<path fill="none" stroke="blue" stroke-dasharray="5,2" d="M2224.61,-632.045C2236.91,-627.394 2250.53,-621.333 2262,-614 2270.74,-608.41 2271.32,-604.973 2279,-598 2299.99,-578.949 2305.4,-574.358 2327,-556 2354.66,-532.488 2368.49,-533.25 2390,-504 2411.61,-474.61 2409.66,-462.672 2421,-428 2435.24,-384.458 2411.47,-358.102 2446,-328 2473.97,-303.62 2587.22,-337.615 2612,-310 2616.75,-304.708 2613.89,-300.855 2612,-294 2602.78,-260.567 2572,-261.681 2572,-227 2572,-227 2572,-227 2572,-111 2572,-88.9294 2567.82,-80.2885 2551,-66 2532,-49.8596 2499.5,-69.1773 2489.81,-57.8593"/>
<polygon fill="blue" stroke="blue" points="2223.32,-628.789 2215.1,-635.47 2225.7,-635.375 2223.32,-628.789"/>
<polygon fill="blue" stroke="blue" points="2493.1,-56.6591 2487,-48 2486.37,-58.5762 2493.1,-56.6591"/>
<text text-anchor="middle" x="2473.5" y="-336.3" font-family="Times New Roman,serif" font-size="14.00"> Excludes</text>
</g>
<!-- H&#45;&gt;V -->
<g id="edge196" class="edge"><title>H&#45;&gt;V:n</title>
<path fill="none" stroke="blue" stroke-dasharray="5,2" d="M2192.77,-622.3C2193.91,-614.635 2195.36,-605.892 2197,-598 2200.93,-579.109 2202,-574.34 2208,-556 2216.47,-530.113 2278.18,-346.675 2298,-328 2316.72,-310.364 2337.9,-330.824 2353,-310 2407.94,-234.214 2405.91,-163.351 2337,-100 2283.54,-50.8533 2084.37,-71.9611 2012,-66 1997.2,-64.7807 1770.61,-64.6555 1722.1,-52.8089"/>
<polygon fill="blue" stroke="blue" points="2189.3,-621.823 2191.36,-632.216 2196.23,-622.806 2189.3,-621.823"/>
<polygon fill="blue" stroke="blue" points="1723.48,-49.5791 1713,-48 1720.21,-55.7677 1723.48,-49.5791"/>
<text text-anchor="middle" x="2325.5" y="-336.3" font-family="Times New Roman,serif" font-size="14.00"> Excludes</text>
</g>
<!-- H&#45;&gt;P -->
<g id="edge88" class="edge"><title>H&#45;&gt;P:n</title>
<path fill="none" stroke="red" d="M2193.25,-632.34C2196.66,-622.519 2202.83,-607.995 2212,-598 2219.23,-590.124 2230.7,-591.919 2237.16,-588.758"/>
<polygon fill="red" stroke="red" points="2240.23,-590.445 2242,-580 2234.1,-587.059 2240.23,-590.445"/>
<text text-anchor="middle" x="2237" y="-602.3" font-family="Times New Roman,serif" font-size="14.00">Requires</text>
</g>
<!-- E&#45;&gt;X -->
<g id="edge228" class="edge"><title>E&#45;&gt;X:n</title>
<path fill="none" stroke="blue" stroke-dasharray="5,2" d="M1473.27,-563.446C1506.72,-559.443 1558.12,-551.64 1601,-538 1616.92,-532.938 1619.06,-526.975 1635,-522 1654.69,-515.856 1718.6,-524.677 1737.61,-512.688"/>
<polygon fill="blue" stroke="blue" points="1472.6,-559.999 1463.07,-564.615 1473.4,-566.954 1472.6,-559.999"/>
<polygon fill="blue" stroke="blue" points="1740.71,-514.344 1743,-504 1734.76,-510.656 1740.71,-514.344"/>
<text text-anchor="middle" x="1662.5" y="-526.3" font-family="Times New Roman,serif" font-size="14.00"> Excludes</text>
</g>
<!-- E&#45;&gt;G -->
<g id="edge118" class="edge"><title>E&#45;&gt;G:n</title>
<path fill="none" stroke="blue" stroke-dasharray="5,2" d="M1433.29,-546.398C1432.55,-538.186 1433.27,-529.034 1438,-522 1477.36,-463.428 1522.07,-493.933 1585,-462 1597.1,-455.86 1598.36,-450.928 1611,-446 1619.15,-442.824 1912.42,-390.359 1920,-386 1928.19,-381.29 1926.02,-375.06 1934,-370 1954.75,-356.842 1985.33,-373.805 1994.39,-361.935"/>
<polygon fill="blue" stroke="blue" points="1429.85,-547.073 1434.89,-556.396 1436.77,-545.969 1429.85,-547.073"/>
<polygon fill="blue" stroke="blue" points="1997.84,-362.561 1997,-352 1991.07,-360.78 1997.84,-362.561"/>
<text text-anchor="middle" x="1638.5" y="-450.3" font-family="Times New Roman,serif" font-size="14.00"> Excludes</text>
</g>
<!-- E&#45;&gt;O -->
<g id="edge146" class="edge"><title>E&#45;&gt;O:n</title>
<path fill="none" stroke="blue" stroke-dasharray="5,2" d="M1432.43,-546.573C1431.84,-543.713 1431.33,-540.797 1431,-538 1427.8,-511.064 1430.8,-499.162 1450,-480 1463.8,-466.229 1475.31,-474.818 1490,-462 1496.32,-456.486 1493.83,-451.677 1500,-446 1512.87,-434.159 1520.58,-437.902 1535,-428 1566.92,-406.081 1566.52,-389.439 1600,-370 1636.28,-348.937 1753.91,-343.627 1779,-310 1782.86,-304.831 1779.89,-258.351 1781,-252 1783.74,-236.357 1779.57,-227.891 1792,-218 1807.88,-205.363 1955.75,-218.869 1991.33,-206.651"/>
<polygon fill="blue" stroke="blue" points="1429.05,-547.467 1434.79,-556.368 1435.85,-545.826 1429.05,-547.467"/>
<polygon fill="blue" stroke="blue" points="1993.74,-209.195 1999,-200 1989.15,-203.905 1993.74,-209.195"/>
<text text-anchor="middle" x="1627.5" y="-374.3" font-family="Times New Roman,serif" font-size="14.00"> Excludes</text>
</g>
<!-- E&#45;&gt;J -->
<g id="edge168" class="edge"><title>E&#45;&gt;J:n</title>
<path fill="none" stroke="blue" stroke-dasharray="5,2" d="M1413.71,-550.571C1389.05,-532.276 1352.39,-500.196 1337,-462 1334.34,-455.404 1332.6,-451.584 1337,-446 1358.22,-419.08 1390.78,-454.92 1412,-428 1418.6,-419.624 1416.67,-413.589 1412,-404 1406.31,-392.331 1394.69,-397.669 1389,-386 1385.89,-379.607 1385.79,-376.347 1389,-370 1419.35,-309.944 1465.91,-335.923 1528,-310 1562.7,-295.514 1637.2,-236.39 1670,-218 1775.77,-158.69 1801.66,-140.389 1916,-100 1978,-78.0972 1994.86,-74.9807 2060,-66 2081.5,-63.0361 2420.46,-70.2892 2478.56,-53.4247"/>
<polygon fill="blue" stroke="blue" points="1411.71,-553.449 1421.87,-556.455 1415.81,-547.769 1411.71,-553.449"/>
<polygon fill="blue" stroke="blue" points="2480.48,-56.3504 2487,-48 2476.7,-50.4614 2480.48,-56.3504"/>
<text text-anchor="middle" x="1584.5" y="-298.3" font-family="Times New Roman,serif" font-size="14.00"> Excludes</text>
</g>
<!-- E&#45;&gt;V -->
<g id="edge198" class="edge"><title>E&#45;&gt;V:n</title>
<path fill="none" stroke="blue" stroke-dasharray="5,2" d="M1410.35,-551.001C1382.28,-533.144 1340.03,-501.499 1319,-462 1299.67,-425.697 1296.45,-409.168 1309,-370 1316,-348.155 1321.48,-342.807 1339,-328 1352.97,-316.196 1363.06,-322.918 1376,-310 1391.76,-294.274 1398,-287.262 1398,-265 1398,-265 1398,-265 1398,-111 1398,-69.0382 1440.76,-77.8832 1481,-66 1502.99,-59.5074 1668.4,-70.7054 1705.59,-55.2994"/>
<polygon fill="blue" stroke="blue" points="1408.58,-554.02 1418.93,-556.306 1412.27,-548.067 1408.58,-554.02"/>
<polygon fill="blue" stroke="blue" points="1708.33,-57.511 1713,-48 1703.42,-52.524 1708.33,-57.511"/>
<text text-anchor="middle" x="1418.5" y="-298.3" font-family="Times New Roman,serif" font-size="14.00"> Excludes</text>
</g>
<!-- R&#45;&gt;G -->
<g id="edge120" class="edge"><title>R&#45;&gt;G:n</title>
<path fill="none" stroke="blue" stroke-dasharray="5,2" d="M2051.58,-131.34C2054.3,-134.724 2056.89,-138.347 2059,-142 2080.63,-179.503 2075.27,-193.667 2091,-234 2101.56,-261.077 2111.1,-265.543 2117,-294 2118.44,-300.963 2120.88,-304.041 2117,-310 2116.61,-310.604 2022.7,-351.837 2022,-352 2016.92,-353.179 2011.11,-355.916 2006.37,-357.345"/>
<polygon fill="blue" stroke="blue" points="2054,-128.789 2044.8,-123.54 2048.72,-133.382 2054,-128.789"/>
<polygon fill="blue" stroke="blue" points="2007.54,-354.031 1997,-353 2004.6,-360.382 2007.54,-354.031"/>
<text text-anchor="middle" x="2118.5" y="-222.3" font-family="Times New Roman,serif" font-size="14.00"> Excludes</text>
</g>
<!-- R&#45;&gt;J -->
<g id="edge170" class="edge"><title>R&#45;&gt;J:n</title>
<path fill="none" stroke="blue" stroke-dasharray="5,2" d="M2069.4,-105.446C2126.06,-96.6274 2240.64,-79.085 2338,-66 2352.07,-64.1086 2450.23,-64.4783 2479.06,-54.3321"/>
<polygon fill="blue" stroke="blue" points="2068.53,-102.039 2059.19,-107.038 2069.61,-108.955 2068.53,-102.039"/>
<polygon fill="blue" stroke="blue" points="2481.36,-56.97 2487,-48 2477,-51.4961 2481.36,-56.97"/>
<text text-anchor="middle" x="2365.5" y="-70.3" font-family="Times New Roman,serif" font-size="14.00"> Excludes</text>
</g>
<!-- R&#45;&gt;V -->
<g id="edge200" class="edge"><title>R&#45;&gt;V:n</title>
<path fill="none" stroke="blue" stroke-dasharray="5,2" d="M1998.86,-110.804C1912.75,-109.958 1696.67,-105.494 1675,-82 1670.18,-76.7732 1671.2,-72.009 1675,-66 1682.34,-54.4032 1699.39,-60.2101 1707.93,-56.7119"/>
<polygon fill="blue" stroke="blue" points="1998.9,-114.304 2008.93,-110.892 1998.96,-107.304 1998.9,-114.304"/>
<polygon fill="blue" stroke="blue" points="1711,-58.4042 1713,-48 1704.95,-54.8855 1711,-58.4042"/>
<text text-anchor="middle" x="1702.5" y="-70.3" font-family="Times New Roman,serif" font-size="14.00"> Excludes</text>
</g>
<!-- Abstract -->
<g id="node150" class="node"><title>Abstract</title>
<polygon fill="#ffff00" stroke="red" points="950.25,-799.5 885.75,-799.5 885.75,-776.5 950.25,-776.5 950.25,-799.5"/>
<text text-anchor="middle" x="918" y="-784.3" font-family="Times New Roman,serif" font-size="14.00">Abstract</text>
</g>
<!-- Concrete -->
<g id="node151" class="node"><title>Concrete</title>
<polygon fill="#ffff00" stroke="blue" points="867,-799.5 799,-799.5 799,-776.5 867,-776.5 867,-799.5"/>
<text text-anchor="middle" x="833" y="-784.3" font-family="Times New Roman,serif" font-size="14.00">Concrete</text>
</g>
<!--  &#160;&#160;&#160;&#160;&#160;&#160;&#160;&#160;&#160;&#160;&#160;&#160;&#160;&#160;&#160; -->
<g id="node152" class="node"><title> &#160;&#160;&#160;&#160;&#160;&#160;&#160;&#160;&#160;&#160;&#160;&#160;&#160;&#160;&#160;</title>
<polygon fill="#ffff00" stroke="blue" points="780.25,-799.5 703.75,-799.5 703.75,-776.5 780.25,-776.5 780.25,-799.5"/>
<text text-anchor="middle" x="742" y="-784.3" font-family="Times New Roman,serif" font-size="14.00"> &#160;&#160;&#160;&#160;&#160;&#160;&#160;&#160;&#160;&#160;&#160;&#160;&#160;&#160;&#160;</text>
</g>
<!-- Mandatory -->
<g id="node154" class="node"><title>Mandatory</title>
<polygon fill="#ffff00" stroke="blue" points="780.25,-723.5 703.75,-723.5 703.75,-700.5 780.25,-700.5 780.25,-723.5"/>
<text text-anchor="middle" x="742" y="-708.3" font-family="Times New Roman,serif" font-size="14.00">Mandatory</text>
</g>
<!--  &#160;&#160;&#160;&#160;&#160;&#160;&#160;&#160;&#160;&#160;&#160;&#160;&#160;&#160;&#160;&#45;&gt;Mandatory -->
<g id="edge232" class="edge"><title> &#160;&#160;&#160;&#160;&#160;&#160;&#160;&#160;&#160;&#160;&#160;&#160;&#160;&#160;&#160;&#45;&gt;Mandatory:n</title>
<path fill="none" stroke="black" d="M742,-776.299C742,-765.625 742,-748.53 742,-732.343"/>
<ellipse fill="black" stroke="black" cx="742" cy="-728" rx="4" ry="4"/>
</g>
<!--  &#160;&#160;&#160;&#160;&#160;&#160;&#160;&#160;&#160;&#160;&#160;&#160; -->
<g id="node155" class="node"><title> &#160;&#160;&#160;&#160;&#160;&#160;&#160;&#160;&#160;&#160;&#160;&#160;</title>
<polygon fill="#ffff00" stroke="blue" points="685.25,-799.5 620.75,-799.5 620.75,-776.5 685.25,-776.5 685.25,-799.5"/>
<text text-anchor="middle" x="653" y="-784.3" font-family="Times New Roman,serif" font-size="14.00"> &#160;&#160;&#160;&#160;&#160;&#160;&#160;&#160;&#160;&#160;&#160;&#160;</text>
</g>
<!-- Optional -->
<g id="node157" class="node"><title>Optional</title>
<polygon fill="#ffff00" stroke="blue" points="685.25,-723.5 620.75,-723.5 620.75,-700.5 685.25,-700.5 685.25,-723.5"/>
<text text-anchor="middle" x="653" y="-708.3" font-family="Times New Roman,serif" font-size="14.00">Optional</text>
</g>
<!--  &#160;&#160;&#160;&#160;&#160;&#160;&#160;&#160;&#160;&#160;&#160;&#160;&#45;&gt;Optional -->
<g id="edge234" class="edge"><title> &#160;&#160;&#160;&#160;&#160;&#160;&#160;&#160;&#160;&#160;&#160;&#160;&#45;&gt;Optional:n</title>
<path fill="none" stroke="black" d="M653,-776.299C653,-765.625 653,-748.53 653,-732.343"/>
<ellipse fill="none" stroke="black" cx="653" cy="-728" rx="4" ry="4"/>
</g>
<!-- F1  -->
<g id="node159" class="node"><title>F1 </title>
<polygon fill="#ffff00" stroke="blue" points="566,-799.5 516,-799.5 516,-776.5 566,-776.5 566,-799.5"/>
<text text-anchor="middle" x="541" y="-784.3" font-family="Times New Roman,serif" font-size="14.00">F1 </text>
</g>
<!-- F2  -->
<g id="node161" class="node"><title>F2 </title>
<polygon fill="#ffff00" stroke="blue" points="566,-723.5 516,-723.5 516,-700.5 566,-700.5 566,-723.5"/>
<text text-anchor="middle" x="541" y="-708.3" font-family="Times New Roman,serif" font-size="14.00">F2 </text>
</g>
<!-- F1 &#45;&gt;F2  -->
<g id="edge237" class="edge"><title>F1 &#45;&gt;F2 </title>
<path fill="none" stroke="blue" stroke-dasharray="5,2" d="M541,-766.277C541,-756.077 541,-743.815 541,-733.627"/>
<polygon fill="blue" stroke="blue" points="537.5,-766.398 541,-776.398 544.5,-766.398 537.5,-766.398"/>
<polygon fill="blue" stroke="blue" points="544.5,-733.583 541,-723.583 537.5,-733.583 544.5,-733.583"/>
<text text-anchor="middle" x="568.5" y="-746.3" font-family="Times New Roman,serif" font-size="14.00"> Excludes</text>
</g>
<!-- F1 -->
<g id="node162" class="node"><title>F1</title>
<polygon fill="#ffff00" stroke="blue" points="496,-799.5 446,-799.5 446,-776.5 496,-776.5 496,-799.5"/>
<text text-anchor="middle" x="471" y="-784.3" font-family="Times New Roman,serif" font-size="14.00">F1</text>
</g>
<!-- F2 -->
<g id="node164" class="node"><title>F2</title>
<polygon fill="#ffff00" stroke="blue" points="496,-723.5 446,-723.5 446,-700.5 496,-700.5 496,-723.5"/>
<text text-anchor="middle" x="471" y="-708.3" font-family="Times New Roman,serif" font-size="14.00">F2</text>
</g>
<!-- F1&#45;&gt;F2 -->
<g id="edge239" class="edge"><title>F1&#45;&gt;F2</title>
<path fill="none" stroke="red" d="M471,-776.398C471,-765.298 471,-747.584 471,-733.698"/>
<polygon fill="red" stroke="red" points="474.5,-733.583 471,-723.583 467.5,-733.583 474.5,-733.583"/>
<text text-anchor="middle" x="498" y="-746.3" font-family="Times New Roman,serif" font-size="14.00"> Requires</text>
</g>
<!-- Or -->
<g id="node166" class="node"><title>Or</title>
<polygon fill="#ffff00" stroke="blue" points="388,-799.5 338,-799.5 338,-776.5 388,-776.5 388,-799.5"/>
<text text-anchor="middle" x="363" y="-784.3" font-family="Times New Roman,serif" font-size="14.00">Or</text>
</g>
<!--  &#160;&#160; -->
<g id="node168" class="node"><title> &#160;&#160;</title>
<polygon fill="#ffff00" stroke="blue" points="422,-723.5 372,-723.5 372,-700.5 422,-700.5 422,-723.5"/>
<text text-anchor="middle" x="397" y="-708.3" font-family="Times New Roman,serif" font-size="14.00"> &#160;&#160;</text>
</g>
<!-- Or&#45;&gt; &#160;&#160; -->
<g id="edge242" class="edge"><title>Or&#45;&gt; &#160;&#160;:n</title>
<path fill="none" stroke="black" d="M373.017,-776.336C381.009,-766.909 391.493,-752.216 395.423,-736.321"/>
<polygon fill="none" stroke="black" points="395.476,-735.903 392.27,-729.443 397,-724 400.206,-730.459 395.476,-735.903"/>
</g>
<!--  &#160;&#160;&#160;&#160; -->
<g id="node170" class="node"><title> &#160;&#160;&#160;&#160;</title>
<polygon fill="#ffff00" stroke="blue" points="354,-723.5 304,-723.5 304,-700.5 354,-700.5 354,-723.5"/>
<text text-anchor="middle" x="329" y="-708.3" font-family="Times New Roman,serif" font-size="14.00"> &#160;&#160;&#160;&#160;</text>
</g>
<!-- Or&#45;&gt; &#160;&#160;&#160;&#160; -->
<g id="edge244" class="edge"><title>Or&#45;&gt; &#160;&#160;&#160;&#160;:n</title>
<path fill="none" stroke="black" d="M352.983,-776.336C344.991,-766.909 334.507,-752.216 330.577,-736.321"/>
<polygon fill="none" stroke="black" points="330.524,-735.903 325.794,-730.459 329,-724 333.73,-729.443 330.524,-735.903"/>
</g>
<!-- Xor -->
<g id="node171" class="node"><title>Xor</title>
<polygon fill="#ffff00" stroke="blue" points="246,-799.5 196,-799.5 196,-776.5 246,-776.5 246,-799.5"/>
<text text-anchor="middle" x="221" y="-784.3" font-family="Times New Roman,serif" font-size="14.00">Xor</text>
</g>
<!--  &#160;&#160;&#160;&#160;&#160; -->
<g id="node173" class="node"><title> &#160;&#160;&#160;&#160;&#160;</title>
<polygon fill="#ffff00" stroke="blue" points="286,-723.5 236,-723.5 236,-700.5 286,-700.5 286,-723.5"/>
<text text-anchor="middle" x="261" y="-708.3" font-family="Times New Roman,serif" font-size="14.00"> &#160;&#160;&#160;&#160;&#160;</text>
</g>
<!-- Xor&#45;&gt; &#160;&#160;&#160;&#160;&#160; -->
<g id="edge246" class="edge"><title>Xor&#45;&gt; &#160;&#160;&#160;&#160;&#160;:n</title>
<path fill="none" stroke="black" d="M233.219,-776.245C241.582,-767.996 252.095,-755.678 257.474,-741.704"/>
<polygon fill="black" stroke="black" points="264.433,-724.684 259.047,-733.807 257.567,-723.316 264.433,-724.684"/>
<ellipse fill="none" stroke="black" cx="258.266" cy="-737.73" rx="4" ry="4"/>
</g>
<!--  &#160;&#160;&#160;&#160;&#160;&#160; -->
<g id="node175" class="node"><title> &#160;&#160;&#160;&#160;&#160;&#160;</title>
<polygon fill="#ffff00" stroke="blue" points="218,-723.5 168,-723.5 168,-700.5 218,-700.5 218,-723.5"/>
<text text-anchor="middle" x="193" y="-708.3" font-family="Times New Roman,serif" font-size="14.00"> &#160;&#160;&#160;&#160;&#160;&#160;</text>
</g>
<!-- Xor&#45;&gt; &#160;&#160;&#160;&#160;&#160;&#160; -->
<g id="edge248" class="edge"><title>Xor&#45;&gt; &#160;&#160;&#160;&#160;&#160;&#160;:n</title>
<path fill="none" stroke="black" d="M213.051,-776.482C207.295,-768.123 199.85,-755.621 195.847,-742.1"/>
<polygon fill="black" stroke="black" points="196.457,-723.456 194.554,-733.879 189.543,-724.544 196.457,-723.456"/>
<ellipse fill="none" stroke="black" cx="195.175" cy="-737.83" rx="4" ry="4"/>
</g>
<!-- And -->
<g id="node176" class="node"><title>And</title>
<polygon fill="#ffff00" stroke="blue" points="110,-799.5 60,-799.5 60,-776.5 110,-776.5 110,-799.5"/>
<text text-anchor="middle" x="85" y="-784.3" font-family="Times New Roman,serif" font-size="14.00">And</text>
</g>
<!--  &#160;&#160;&#160;&#160;&#160;&#160;&#160; -->
<g id="node178" class="node"><title> &#160;&#160;&#160;&#160;&#160;&#160;&#160;</title>
<polygon fill="#ffff00" stroke="blue" points="150,-723.5 100,-723.5 100,-700.5 150,-700.5 150,-723.5"/>
<text text-anchor="middle" x="125" y="-708.3" font-family="Times New Roman,serif" font-size="14.00"> &#160;&#160;&#160;&#160;&#160;&#160;&#160;</text>
</g>
<!-- And&#45;&gt; &#160;&#160;&#160;&#160;&#160;&#160;&#160; -->
<g id="edge250" class="edge"><title>And&#45;&gt; &#160;&#160;&#160;&#160;&#160;&#160;&#160;:n</title>
<path fill="none" stroke="black" d="M97.2187,-776.245C107.052,-766.546 119.859,-751.221 123.796,-734.193"/>
<polygon fill="black" stroke="black" points="121.028,-723.531 128.972,-724.469 128.034,-732.414 120.089,-731.476 121.028,-723.531"/>
<polyline fill="none" stroke="black" points="124.062,-731.945 123.827,-733.931 "/>
</g>
<!--  &#160;&#160;&#160;&#160;&#160;&#160;&#160;&#160; -->
<g id="node180" class="node"><title> &#160;&#160;&#160;&#160;&#160;&#160;&#160;&#160;</title>
<polygon fill="#ffff00" stroke="blue" points="82,-723.5 32,-723.5 32,-700.5 82,-700.5 82,-723.5"/>
<text text-anchor="middle" x="57" y="-708.3" font-family="Times New Roman,serif" font-size="14.00"> &#160;&#160;&#160;&#160;&#160;&#160;&#160;&#160;</text>
</g>
<!-- And&#45;&gt; &#160;&#160;&#160;&#160;&#160;&#160;&#160;&#160; -->
<g id="edge252" class="edge"><title>And&#45;&gt; &#160;&#160;&#160;&#160;&#160;&#160;&#160;&#160;:n</title>
<path fill="none" stroke="black" d="M77.0512,-776.482C70.196,-766.526 60.9438,-750.694 57.9659,-734.262"/>
<polygon fill="black" stroke="black" points="53.0176,-724.375 60.9824,-723.625 61.7321,-731.59 53.7673,-732.34 53.0176,-724.375"/>
<polyline fill="none" stroke="black" points="57.7497,-731.965 57.9372,-733.956 "/>
</g>
</g>
</svg>
